  0
SECTION
  2
HEADER
  9
$ACADVER
  1
AC1021
  9
$ACADMAINTVER
 70
    25
  9
$DWGCODEPAGE
  3
ANSI_1252
  9
$INSBASE
 10
0.0
 20
0.0
 30
0.0
  9
$EXTMIN
 10
-198.505
 20
-126.4366
 30
0.0
  9
$EXTMAX
 10
195.005
 20
148.505
 30
0.0
  9
$LIMMIN
 10
0.0
 20
0.0
  9
$LIMMAX
 10
12.0
 20
9.0
  9
$ORTHOMODE
 70
     0
  9
$REGENMODE
 70
     1
  9
$FILLMODE
 70
     1
  9
$QTEXTMODE
 70
     0
  9
$MIRRTEXT
 70
     1
  9
$LTSCALE
 40
1.0
  9
$ATTMODE
 70
     1
  9
$TEXTSIZE
 40
0.2
  9
$TRACEWID
 40
0.05
  9
$TEXTSTYLE
  7
Standard
  9
$CLAYER
  8
0
  9
$CELTYPE
  6
ByLayer
  9
$CECOLOR
 62
   256
  9
$CELTSCALE
 40
1.0
  9
$DISPSILH
 70
     0
  9
$DIMSCALE
 40
1.0
  9
$DIMASZ
 40
0.18
  9
$DIMEXO
 40
0.0625
  9
$DIMDLI
 40
0.38
  9
$DIMRND
 40
0.0
  9
$DIMDLE
 40
0.0
  9
$DIMEXE
 40
0.18
  9
$DIMTP
 40
0.0
  9
$DIMTM
 40
0.0
  9
$DIMTXT
 40
0.18
  9
$DIMCEN
 40
0.09
  9
$DIMTSZ
 40
0.0
  9
$DIMTOL
 70
     0
  9
$DIMLIM
 70
     0
  9
$DIMTIH
 70
     1
  9
$DIMTOH
 70
     1
  9
$DIMSE1
 70
     0
  9
$DIMSE2
 70
     0
  9
$DIMTAD
 70
     0
  9
$DIMZIN
 70
     0
  9
$DIMBLK
  1

  9
$DIMASO
 70
     1
  9
$DIMSHO
 70
     1
  9
$DIMPOST
  1

  9
$DIMAPOST
  1

  9
$DIMALT
 70
     0
  9
$DIMALTD
 70
     2
  9
$DIMALTF
 40
25.4
  9
$DIMLFAC
 40
1.0
  9
$DIMTOFL
 70
     0
  9
$DIMTVP
 40
0.0
  9
$DIMTIX
 70
     0
  9
$DIMSOXD
 70
     0
  9
$DIMSAH
 70
     0
  9
$DIMBLK1
  1

  9
$DIMBLK2
  1

  9
$DIMSTYLE
  2
Standard
  9
$DIMCLRD
 70
     0
  9
$DIMCLRE
 70
     0
  9
$DIMCLRT
 70
     0
  9
$DIMTFAC
 40
1.0
  9
$DIMGAP
 40
0.09
  9
$DIMJUST
 70
     0
  9
$DIMSD1
 70
     0
  9
$DIMSD2
 70
     0
  9
$DIMTOLJ
 70
     1
  9
$DIMTZIN
 70
     0
  9
$DIMALTZ
 70
     0
  9
$DIMALTTZ
 70
     0
  9
$DIMUPT
 70
     0
  9
$DIMDEC
 70
     4
  9
$DIMTDEC
 70
     4
  9
$DIMALTU
 70
     2
  9
$DIMALTTD
 70
     2
  9
$DIMTXSTY
  7
Standard
  9
$DIMAUNIT
 70
     0
  9
$DIMADEC
 70
     0
  9
$DIMALTRND
 40
0.0
  9
$DIMAZIN
 70
     0
  9
$DIMDSEP
 70
    46
  9
$DIMATFIT
 70
     3
  9
$DIMFRAC
 70
     0
  9
$DIMLDRBLK
  1

  9
$DIMLUNIT
 70
     2
  9
$DIMLWD
 70
    -2
  9
$DIMLWE
 70
    -2
  9
$DIMTMOVE
 70
     0
  9
$DIMFXL
 40
1.0
  9
$DIMFXLON
 70
     0
  9
$DIMJOGANG
 40
0.7853981633974483
  9
$DIMTFILL
 70
     0
  9
$DIMTFILLCLR
 70
     0
  9
$DIMARCSYM
 70
     0
  9
$DIMLTYPE
  6

  9
$DIMLTEX1
  6

  9
$DIMLTEX2
  6

  9
$LUNITS
 70
     2
  9
$LUPREC
 70
     4
  9
$SKETCHINC
 40
0.1
  9
$FILLETRAD
 40
0.5
  9
$AUNITS
 70
     0
  9
$AUPREC
 70
     0
  9
$MENU
  1
.
  9
$ELEVATION
 40
0.0
  9
$PELEVATION
 40
0.0
  9
$THICKNESS
 40
0.0
  9
$LIMCHECK
 70
     0
  9
$CHAMFERA
 40
0.5
  9
$CHAMFERB
 40
0.5
  9
$CHAMFERC
 40
1.0
  9
$CHAMFERD
 40
0.0
  9
$SKPOLY
 70
     0
  9
$TDCREATE
 40
2456902.868659699
  9
$TDUCREATE
 40
2456902.472826366
  9
$TDUPDATE
 40
2456902.868659815
  9
$TDUUPDATE
 40
2456902.472826481
  9
$TDINDWG
 40
0.0000000116
  9
$TDUSRTIMER
 40
0.0000000116
  9
$USRTIMER
 70
     1
  9
$ANGBASE
 50
0.0
  9
$ANGDIR
 70
     0
  9
$PDMODE
 70
     0
  9
$PDSIZE
 40
0.0
  9
$PLINEWID
 40
0.0
  9
$SPLFRAME
 70
     0
  9
$SPLINETYPE
 70
     6
  9
$SPLINESEGS
 70
     8
  9
$HANDSEED
  5
C6
  9
$SURFTAB1
 70
     6
  9
$SURFTAB2
 70
     6
  9
$SURFTYPE
 70
     6
  9
$SURFU
 70
     6
  9
$SURFV
 70
     6
  9
$UCSBASE
  2

  9
$UCSNAME
  2

  9
$UCSORG
 10
0.0
 20
0.0
 30
0.0
  9
$UCSXDIR
 10
1.0
 20
0.0
 30
0.0
  9
$UCSYDIR
 10
0.0
 20
1.0
 30
0.0
  9
$UCSORTHOREF
  2

  9
$UCSORTHOVIEW
 70
     0
  9
$UCSORGTOP
 10
0.0
 20
0.0
 30
0.0
  9
$UCSORGBOTTOM
 10
0.0
 20
0.0
 30
0.0
  9
$UCSORGLEFT
 10
0.0
 20
0.0
 30
0.0
  9
$UCSORGRIGHT
 10
0.0
 20
0.0
 30
0.0
  9
$UCSORGFRONT
 10
0.0
 20
0.0
 30
0.0
  9
$UCSORGBACK
 10
0.0
 20
0.0
 30
0.0
  9
$PUCSBASE
  2

  9
$PUCSNAME
  2

  9
$PUCSORG
 10
0.0
 20
0.0
 30
0.0
  9
$PUCSXDIR
 10
1.0
 20
0.0
 30
0.0
  9
$PUCSYDIR
 10
0.0
 20
1.0
 30
0.0
  9
$PUCSORTHOREF
  2

  9
$PUCSORTHOVIEW
 70
     0
  9
$PUCSORGTOP
 10
0.0
 20
0.0
 30
0.0
  9
$PUCSORGBOTTOM
 10
0.0
 20
0.0
 30
0.0
  9
$PUCSORGLEFT
 10
0.0
 20
0.0
 30
0.0
  9
$PUCSORGRIGHT
 10
0.0
 20
0.0
 30
0.0
  9
$PUCSORGFRONT
 10
0.0
 20
0.0
 30
0.0
  9
$PUCSORGBACK
 10
0.0
 20
0.0
 30
0.0
  9
$USERI1
 70
     0
  9
$USERI2
 70
     0
  9
$USERI3
 70
     0
  9
$USERI4
 70
     0
  9
$USERI5
 70
     0
  9
$USERR1
 40
0.0
  9
$USERR2
 40
0.0
  9
$USERR3
 40
0.0
  9
$USERR4
 40
0.0
  9
$USERR5
 40
0.0
  9
$WORLDVIEW
 70
     1
  9
$SHADEDGE
 70
     3
  9
$SHADEDIF
 70
    70
  9
$TILEMODE
 70
     1
  9
$MAXACTVP
 70
    64
  9
$PINSBASE
 10
0.0
 20
0.0
 30
0.0
  9
$PLIMCHECK
 70
     0
  9
$PEXTMIN
 10
1.000000000000000E+20
 20
1.000000000000000E+20
 30
1.000000000000000E+20
  9
$PEXTMAX
 10
-1.000000000000000E+20
 20
-1.000000000000000E+20
 30
-1.000000000000000E+20
  9
$PLIMMIN
 10
0.0
 20
0.0
  9
$PLIMMAX
 10
12.0
 20
9.0
  9
$UNITMODE
 70
     0
  9
$VISRETAIN
 70
     1
  9
$PLINEGEN
 70
     0
  9
$PSLTSCALE
 70
     1
  9
$TREEDEPTH
 70
  3020
  9
$CMLSTYLE
  2
Standard
  9
$CMLJUST
 70
     0
  9
$CMLSCALE
 40
1.0
  9
$PROXYGRAPHICS
 70
     1
  9
$MEASUREMENT
 70
     0
  9
$CELWEIGHT
370
    -1
  9
$ENDCAPS
280
     0
  9
$JOINSTYLE
280
     0
  9
$LWDISPLAY
290
     0
  9
$INSUNITS
 70
     4
  9
$HYPERLINKBASE
  1

  9
$STYLESHEET
  1

  9
$XEDIT
290
     1
  9
$CEPSNTYPE
380
     0
  9
$PSTYLEMODE
290
     1
  9
$FINGERPRINTGUID
  2
{F5F4C6C6-D6A4-4B88-B255-2C50B2568198}
  9
$VERSIONGUID
  2
{FAEB1C32-E019-11D5-929B-00C0DF256EC4}
  9
$EXTNAMES
290
     1
  9
$PSVPSCALE
 40
0.0
  9
$OLESTARTUP
290
     0
  9
$SORTENTS
280
   127
  9
$INDEXCTL
280
     0
  9
$HIDETEXT
280
     1
  9
$XCLIPFRAME
290
     0
  9
$HALOGAP
280
     0
  9
$OBSCOLOR
 70
   257
  9
$OBSLTYPE
280
     0
  9
$INTERSECTIONDISPLAY
280
     0
  9
$INTERSECTIONCOLOR
 70
   257
  9
$DIMASSOC
280
     2
  9
$PROJECTNAME
  1

  9
$CAMERADISPLAY
290
     0
  9
$LENSLENGTH
 40
50.0
  9
$CAMERAHEIGHT
 40
0.0
  9
$STEPSPERSEC
 40
2.0
  9
$STEPSIZE
 40
6.0
  9
$3DDWFPREC
 40
2.0
  9
$PSOLWIDTH
 40
0.25
  9
$PSOLHEIGHT
 40
4.0
  9
$LOFTANG1
 40
1.570796326794897
  9
$LOFTANG2
 40
1.570796326794897
  9
$LOFTMAG1
 40
0.0
  9
$LOFTMAG2
 40
0.0
  9
$LOFTPARAM
 70
     7
  9
$LOFTNORMALS
280
     1
  9
$LATITUDE
 40
37.795
  9
$LONGITUDE
 40
-122.394
  9
$NORTHDIRECTION
 40
0.0
  9
$TIMEZONE
 70
 -8000
  9
$LIGHTGLYPHDISPLAY
280
     1
  9
$TILEMODELIGHTSYNCH
280
     1
  9
$SOLIDHIST
280
     1
  9
$SHOWHIST
280
     1
  9
$DWFFRAME
280
     2
  9
$DGNFRAME
280
     2
  9
$REALWORLDSCALE
290
     1
  9
$INTERFERECOLOR
 62
   256
  9
$CSHADOW
280
     0
  9
$SHADOWPLANELOCATION
 40
0.0
  0
ENDSEC
  0
SECTION
  2
CLASSES
  0
CLASS
  1
ACDBDICTIONARYWDFLT
  2
AcDbDictionaryWithDefault
  3
ObjectDBX Classes
 90
        0
 91
        4
280
     0
281
     0
  0
CLASS
  1
VISUALSTYLE
  2
AcDbVisualStyle
  3
ObjectDBX Classes
 90
     4095
 91
        4
280
     0
281
     0
  0
CLASS
  1
MATERIAL
  2
AcDbMaterial
  3
ObjectDBX Classes
 90
     1153
 91
        4
280
     0
281
     0
  0
ENDSEC
  0
SECTION
  2
TABLES
  0
TABLE
  2
VPORT
  5
8
330
0
100
AcDbSymbolTable
 70
     1
  0
VPORT
  5
29
330
8
100
AcDbSymbolTableRecord
100
AcDbViewportTableRecord
  2
*Active
 70
     0
 10
0.0
 20
0.0
 11
1.0
 21
1.0
 12
10.42990654205607
 22
4.5
 13
0.0
 23
0.0
 14
0.5
 24
0.5
 15
0.5
 25
0.5
 16
0.0
 26
0.0
 36
1.0
 17
0.0
 27
0.0
 37
0.0
 40
9.0
 41
1.972972972850329
 42
50.0
 43
0.0
 44
0.0
 50
0.0
 51
0.0
 71
     0
 72
   100
 73
     1
 74
     3
 75
     0
 76
     0
 77
     0
 78
     0
281
     0
 65
     1
110
0.0
120
0.0
130
0.0
111
1.0
121
0.0
131
0.0
112
0.0
122
1.0
132
0.0
 79
     0
146
0.0
 60
     3
 61
     5
292
     1
282
     1
141
0.0
142
0.0
 63
   250
  0
ENDTAB
  0
TABLE
  2
LTYPE
  5
5
330
0
100
AcDbSymbolTable
 70
     1
  0
LTYPE
  5
14
330
5
100
AcDbSymbolTableRecord
100
AcDbLinetypeTableRecord
  2
ByBlock
 70
     0
  3

 72
    65
 73
     0
 40
0.0
  0
LTYPE
  5
15
330
5
100
AcDbSymbolTableRecord
100
AcDbLinetypeTableRecord
  2
ByLayer
 70
     0
  3

 72
    65
 73
     0
 40
0.0
  0
LTYPE
  5
16
330
5
100
AcDbSymbolTableRecord
100
AcDbLinetypeTableRecord
  2
Continuous
 70
     0
  3
Solid line
 72
    65
 73
     0
 40
0.0
  0
ENDTAB
  0
TABLE
  2
LAYER
  5
2
330
0
100
AcDbSymbolTable
 70
     2
  0
LAYER
  5
10
330
2
100
AcDbSymbolTableRecord
100
AcDbLayerTableRecord
  2
0
 70
     0
 62
     7
  6
Continuous
370
    -3
390
F
347
3E
  0
LAYER
  5
40
330
2
100
AcDbSymbolTableRecord
100
AcDbLayerTableRecord
  2
Layer 1
 70
     0
 62
     7
  6
Continuous
370
    -3
390
F
347
3E
  0
ENDTAB
  0
TABLE
  2
STYLE
  5
3
330
0
100
AcDbSymbolTable
 70
     1
  0
STYLE
  5
11
330
3
100
AcDbSymbolTableRecord
100
AcDbTextStyleTableRecord
  2
Standard
 70
     0
 40
0.0
 41
1.0
 50
0.0
 71
     0
 42
0.2
  3
txt
  4

  0
ENDTAB
  0
TABLE
  2
VIEW
  5
6
330
0
100
AcDbSymbolTable
 70
     0
  0
ENDTAB
  0
TABLE
  2
UCS
  5
7
330
0
100
AcDbSymbolTable
 70
     0
  0
ENDTAB
  0
TABLE
  2
APPID
  5
9
330
0
100
AcDbSymbolTable
 70
     2
  0
APPID
  5
12
330
9
100
AcDbSymbolTableRecord
100
AcDbRegAppTableRecord
  2
ACAD
 70
     0
  0
APPID
  5
3F
330
9
100
AcDbSymbolTableRecord
100
AcDbRegAppTableRecord
  2
ODA
 70
     0
  0
ENDTAB
  0
TABLE
  2
DIMSTYLE
  5
A
330
0
100
AcDbSymbolTable
 70
     1
100
AcDbDimStyleTable
  0
DIMSTYLE
105
27
330
A
100
AcDbSymbolTableRecord
100
AcDbDimStyleTableRecord
  2
Standard
 70
     0
178
     0
340
11
  0
ENDTAB
  0
TABLE
  2
BLOCK_RECORD
  5
1
330
0
100
AcDbSymbolTable
 70
     1
  0
BLOCK_RECORD
  5
1F
330
1
100
AcDbSymbolTableRecord
100
AcDbBlockTableRecord
  2
*Model_Space
340
22
 70
     0
280
     1
281
     0
  0
BLOCK_RECORD
  5
1B
330
1
100
AcDbSymbolTableRecord
100
AcDbBlockTableRecord
  2
*Paper_Space
340
1E
 70
     0
280
     1
281
     0
  0
BLOCK_RECORD
  5
23
330
1
100
AcDbSymbolTableRecord
100
AcDbBlockTableRecord
  2
*Paper_Space0
340
26
 70
     0
280
     1
281
     0
  0
ENDTAB
  0
ENDSEC
  0
SECTION
  2
BLOCKS
  0
BLOCK
  5
20
330
1F
100
AcDbEntity
  8
0
100
AcDbBlockBegin
  2
*Model_Space
 70
     0
 10
0.0
 20
0.0
 30
0.0
  3
*Model_Space
  1

  0
ENDBLK
  5
21
330
1F
100
AcDbEntity
  8
0
100
AcDbBlockEnd
  0
BLOCK
  5
1C
330
1B
100
AcDbEntity
 67
     1
  8
0
100
AcDbBlockBegin
  2
*Paper_Space
 70
     0
 10
0.0
 20
0.0
 30
0.0
  3
*Paper_Space
  1

  0
ENDBLK
  5
1D
330
1B
100
AcDbEntity
 67
     1
  8
0
100
AcDbBlockEnd
  0
BLOCK
  5
24
330
23
100
AcDbEntity
  8
0
100
AcDbBlockBegin
  2
*Paper_Space0
 70
     0
 10
0.0
 20
0.0
 30
0.0
  3
*Paper_Space0
  1

  0
ENDBLK
  5
25
330
23
100
AcDbEntity
  8
0
100
AcDbBlockEnd
  0
ENDSEC
  0
SECTION
  2
ENTITIES
  0
LWPOLYLINE
  5
41
330
1F
100
AcDbEntity
  8
Layer 1
 62
     1
370
     0
100
AcDbPolyline
 90
        5
 70
     1
 43
0.0
 10
-198.5
 20
146.5
 10
-196.5
 20
146.5
 10
-196.5
 20
148.5
 10
-198.5
 20
148.5
 10
-198.5
 20
146.5
  0
SPLINE
  5
42
330
1F
100
AcDbEntity
  8
Layer 1
370
     0
100
AcDbSpline
210
0.0
220
0.0
230
1.0
 70
    11
 71
     3
 72
    92
 73
    88
 74
     0
 42
0.0000000001
 43
0.0000000001
 12
1.0
 22
0.0
 32
0.0
 13
1.0
 23
0.0
 33
0.0
 40
0.0
 40
0.0
 40
0.0
 40
0.0
 40
0.0434782608695652
 40
0.0434782608695652
 40
0.0434782608695652
 40
0.0434782608695652
 40
0.0869565217391304
 40
0.0869565217391304
 40
0.0869565217391304
 40
0.0869565217391304
 40
0.1304347826086956
 40
0.1304347826086956
 40
0.1304347826086956
 40
0.1304347826086956
 40
0.1739130434782609
 40
0.1739130434782609
 40
0.1739130434782609
 40
0.1739130434782609
 40
0.2173913043478261
 40
0.2173913043478261
 40
0.2173913043478261
 40
0.2173913043478261
 40
0.2608695652173913
 40
0.2608695652173913
 40
0.2608695652173913
 40
0.2608695652173913
 40
0.3043478260869565
 40
0.3043478260869565
 40
0.3043478260869565
 40
0.3043478260869565
 40
0.3478260869565217
 40
0.3478260869565217
 40
0.3478260869565217
 40
0.3478260869565217
 40
0.391304347826087
 40
0.391304347826087
 40
0.391304347826087
 40
0.391304347826087
 40
0.4347826086956522
 40
0.4347826086956522
 40
0.4347826086956522
 40
0.4347826086956522
 40
0.4782608695652174
 40
0.4782608695652174
 40
0.4782608695652174
 40
0.4782608695652174
 40
0.5217391304347826
 40
0.5217391304347826
 40
0.5217391304347826
 40
0.5217391304347826
 40
0.5652173913043478
 40
0.5652173913043478
 40
0.5652173913043478
 40
0.5652173913043478
 40
0.6086956521739131
 40
0.6086956521739131
 40
0.6086956521739131
 40
0.6086956521739131
 40
0.6521739130434783
 40
0.6521739130434783
 40
0.6521739130434783
 40
0.6521739130434783
 40
0.6956521739130435
 40
0.6956521739130435
 40
0.6956521739130435
 40
0.6956521739130435
 40
0.7391304347826086
 40
0.7391304347826086
 40
0.7391304347826086
 40
0.7391304347826086
 40
0.782608695652174
 40
0.782608695652174
 40
0.782608695652174
 40
0.782608695652174
 40
0.8260869565217391
 40
0.8260869565217391
 40
0.8260869565217391
 40
0.8260869565217391
 40
0.8695652173913043
 40
0.8695652173913043
 40
0.8695652173913043
 40
0.8695652173913043
 40
0.9130434782608695
 40
0.9130434782608695
 40
0.9130434782608695
 40
0.9130434782608695
 40
1.0
 40
1.0
 40
1.0
 40
1.0
 10
-194.9006
 20
-53.0636
 30
0.0
 10
-194.9006
 20
-53.0636
 30
0.0
 10
-195.0
 20
-52.5001
 30
0.0
 10
-195.0
 20
-52.5001
 30
0.0
 10
-195.0
 20
-52.5001
 30
0.0
 10
-195.0
 20
-52.5001
 30
0.0
 10
-194.9
 20
-52.5001
 30
0.0
 10
-194.9
 20
-52.5001
 30
0.0
 10
-194.9
 20
-52.5001
 30
0.0
 10
-194.9
 20
-52.5001
 30
0.0
 10
-165.0
 20
-52.5001
 30
0.0
 10
-165.0
 20
-52.5001
 30
0.0
 10
-165.0
 20
-52.5001
 30
0.0
 10
-165.0
 20
-52.5001
 30
0.0
 10
-165.0
 20
-40.0001
 30
0.0
 10
-165.0
 20
-40.0001
 30
0.0
 10
-165.0
 20
-40.0001
 30
0.0
 10
-165.0
 20
-40.0001
 30
0.0
 10
-135.0
 20
-40.0001
 30
0.0
 10
-135.0
 20
-40.0001
 30
0.0
 10
-135.0
 20
-40.0001
 30
0.0
 10
-135.0
 20
-40.0001
 30
0.0
 10
-135.0
 20
-49.5001
 30
0.0
 10
-135.0
 20
-49.5001
 30
0.0
 10
-135.0
 20
-49.5001
 30
0.0
 10
-135.0
 20
-49.5001
 30
0.0
 10
-144.9
 20
-49.5001
 30
0.0
 10
-144.9
 20
-49.5001
 30
0.0
 10
-144.9
 20
-49.5001
 30
0.0
 10
-144.9
 20
-49.5001
 30
0.0
 10
-144.9
 20
-52.5001
 30
0.0
 10
-144.9
 20
-52.5001
 30
0.0
 10
-144.9
 20
-52.5001
 30
0.0
 10
-144.9
 20
-52.5001
 30
0.0
 10
-120.0
 20
-52.5001
 30
0.0
 10
-120.0
 20
-52.5001
 30
0.0
 10
-120.0
 20
-52.5001
 30
0.0
 10
-120.0
 20
-58.0001
 30
0.0
 10
-115.5
 20
-62.5001
 30
0.0
 10
-110.0001
 20
-62.5001
 30
0.0
 10
-110.0001
 20
-62.5001
 30
0.0
 10
-110.0001
 20
-62.5001
 30
0.0
 10
-85.0
 20
-62.5001
 30
0.0
 10
-85.0
 20
-62.5001
 30
0.0
 10
-85.0
 20
-62.5001
 30
0.0
 10
-79.5
 20
-62.5001
 30
0.0
 10
-75.0
 20
-58.0001
 30
0.0
 10
-75.0
 20
-52.5001
 30
0.0
 10
-75.0
 20
-52.5001
 30
0.0
 10
-75.0
 20
-52.5001
 30
0.0
 10
-60.0
 20
-52.5
 30
0.0
 10
-60.0
 20
-52.5
 30
0.0
 10
-60.0
 20
-52.5
 30
0.0
 10
-60.0
 20
-52.5
 30
0.0
 10
-60.0
 20
-40.0001
 30
0.0
 10
-60.0
 20
-40.0001
 30
0.0
 10
-60.0
 20
-40.0001
 30
0.0
 10
-60.0
 20
-40.0001
 30
0.0
 10
-30.0
 20
-40.0001
 30
0.0
 10
-30.0
 20
-40.0001
 30
0.0
 10
-30.0
 20
-40.0001
 30
0.0
 10
-30.0
 20
-40.0001
 30
0.0
 10
-30.0
 20
-49.5001
 30
0.0
 10
-30.0
 20
-49.5001
 30
0.0
 10
-30.0
 20
-49.5001
 30
0.0
 10
-30.0
 20
-49.5001
 30
0.0
 10
-39.9
 20
-49.5001
 30
0.0
 10
-39.9
 20
-49.5001
 30
0.0
 10
-39.9
 20
-49.5001
 30
0.0
 10
-39.9
 20
-49.5001
 30
0.0
 10
-39.9
 20
-52.5
 30
0.0
 10
-39.9
 20
-52.5
 30
0.0
 10
-39.9
 20
-52.5
 30
0.0
 10
-39.9
 20
-52.5
 30
0.0
 10
-30.0
 20
-52.5
 30
0.0
 10
-30.0
 20
-52.5
 30
0.0
 10
-30.0
 20
-52.5
 30
0.0
 10
-30.0
 20
-67.4801
 30
0.0
 10
-32.8793
 20
-70.8235
 30
0.0
 10
-73.2518
 20
-87.4268
 30
0.0
 10
-73.2518
 20
-87.4268
 30
0.0
 10
-73.2518
 20
-87.4268
 30
0.0
 10
-168.0917
 20
-126.43
 30
0.0
 10
-168.0917
 20
-126.43
 30
0.0
 10
-168.0917
 20
-126.43
 30
0.0
 10
-168.0917
 20
-126.43
 30
0.0
 10
-194.9006
 20
-53.0636
 30
0.0
 10
-194.9006
 20
-53.0636
 30
0.0
  0
SPLINE
  5
43
330
1F
100
AcDbEntity
  8
Layer 1
370
     0
100
AcDbSpline
210
0.0
220
0.0
230
1.0
 70
    11
 71
     3
 72
    92
 73
    88
 74
     0
 42
0.0000000001
 43
0.0000000001
 12
1.0
 22
0.0
 32
0.0
 13
1.0
 23
0.0
 33
0.0
 40
0.0
 40
0.0
 40
0.0
 40
0.0
 40
0.0434782608695652
 40
0.0434782608695652
 40
0.0434782608695652
 40
0.0434782608695652
 40
0.0869565217391304
 40
0.0869565217391304
 40
0.0869565217391304
 40
0.0869565217391304
 40
0.1304347826086956
 40
0.1304347826086956
 40
0.1304347826086956
 40
0.1304347826086956
 40
0.1739130434782609
 40
0.1739130434782609
 40
0.1739130434782609
 40
0.1739130434782609
 40
0.2173913043478261
 40
0.2173913043478261
 40
0.2173913043478261
 40
0.2173913043478261
 40
0.2608695652173913
 40
0.2608695652173913
 40
0.2608695652173913
 40
0.2608695652173913
 40
0.3043478260869565
 40
0.3043478260869565
 40
0.3043478260869565
 40
0.3043478260869565
 40
0.3478260869565217
 40
0.3478260869565217
 40
0.3478260869565217
 40
0.3478260869565217
 40
0.391304347826087
 40
0.391304347826087
 40
0.391304347826087
 40
0.391304347826087
 40
0.4347826086956522
 40
0.4347826086956522
 40
0.4347826086956522
 40
0.4347826086956522
 40
0.4782608695652174
 40
0.4782608695652174
 40
0.4782608695652174
 40
0.4782608695652174
 40
0.5217391304347826
 40
0.5217391304347826
 40
0.5217391304347826
 40
0.5217391304347826
 40
0.5652173913043478
 40
0.5652173913043478
 40
0.5652173913043478
 40
0.5652173913043478
 40
0.6086956521739131
 40
0.6086956521739131
 40
0.6086956521739131
 40
0.6086956521739131
 40
0.6521739130434783
 40
0.6521739130434783
 40
0.6521739130434783
 40
0.6521739130434783
 40
0.6956521739130435
 40
0.6956521739130435
 40
0.6956521739130435
 40
0.6956521739130435
 40
0.7391304347826086
 40
0.7391304347826086
 40
0.7391304347826086
 40
0.7391304347826086
 40
0.782608695652174
 40
0.782608695652174
 40
0.782608695652174
 40
0.782608695652174
 40
0.8260869565217391
 40
0.8260869565217391
 40
0.8260869565217391
 40
0.8260869565217391
 40
0.8695652173913043
 40
0.8695652173913043
 40
0.8695652173913043
 40
0.8695652173913043
 40
0.9130434782608695
 40
0.9130434782608695
 40
0.9130434782608695
 40
0.9130434782608695
 40
1.0
 40
1.0
 40
1.0
 40
1.0
 10
139.9009
 20
-53.0636
 30
0.0
 10
139.9009
 20
-53.0636
 30
0.0
 10
140.0003
 20
-52.5001
 30
0.0
 10
140.0003
 20
-52.5001
 30
0.0
 10
140.0003
 20
-52.5001
 30
0.0
 10
140.0003
 20
-52.5001
 30
0.0
 10
139.9003
 20
-52.5001
 30
0.0
 10
139.9003
 20
-52.5001
 30
0.0
 10
139.9003
 20
-52.5001
 30
0.0
 10
139.9003
 20
-52.5001
 30
0.0
 10
110.0003
 20
-52.5001
 30
0.0
 10
110.0003
 20
-52.5001
 30
0.0
 10
110.0003
 20
-52.5001
 30
0.0
 10
110.0003
 20
-52.5001
 30
0.0
 10
110.0003
 20
-40.0001
 30
0.0
 10
110.0003
 20
-40.0001
 30
0.0
 10
110.0003
 20
-40.0001
 30
0.0
 10
110.0003
 20
-40.0001
 30
0.0
 10
80.0003
 20
-40.0001
 30
0.0
 10
80.0003
 20
-40.0001
 30
0.0
 10
80.0003
 20
-40.0001
 30
0.0
 10
80.0003
 20
-40.0001
 30
0.0
 10
80.0003
 20
-49.5001
 30
0.0
 10
80.0003
 20
-49.5001
 30
0.0
 10
80.0003
 20
-49.5001
 30
0.0
 10
80.0003
 20
-49.5001
 30
0.0
 10
89.9003
 20
-49.5001
 30
0.0
 10
89.9003
 20
-49.5001
 30
0.0
 10
89.9003
 20
-49.5001
 30
0.0
 10
89.9003
 20
-49.5001
 30
0.0
 10
89.9003
 20
-52.5001
 30
0.0
 10
89.9003
 20
-52.5001
 30
0.0
 10
89.9003
 20
-52.5001
 30
0.0
 10
89.9003
 20
-52.5001
 30
0.0
 10
65.0003
 20
-52.5001
 30
0.0
 10
65.0003
 20
-52.5001
 30
0.0
 10
65.0003
 20
-52.5001
 30
0.0
 10
65.0003
 20
-58.0001
 30
0.0
 10
60.5003
 20
-62.5001
 30
0.0
 10
55.0004
 20
-62.5001
 30
0.0
 10
55.0004
 20
-62.5001
 30
0.0
 10
55.0004
 20
-62.5001
 30
0.0
 10
30.0003
 20
-62.5001
 30
0.0
 10
30.0003
 20
-62.5001
 30
0.0
 10
30.0003
 20
-62.5001
 30
0.0
 10
24.5003
 20
-62.5001
 30
0.0
 10
20.0003
 20
-58.0001
 30
0.0
 10
20.0003
 20
-52.5001
 30
0.0
 10
20.0003
 20
-52.5001
 30
0.0
 10
20.0003
 20
-52.5001
 30
0.0
 10
5.0003
 20
-52.5
 30
0.0
 10
5.0003
 20
-52.5
 30
0.0
 10
5.0003
 20
-52.5
 30
0.0
 10
5.0003
 20
-52.5
 30
0.0
 10
5.0003
 20
-40.0001
 30
0.0
 10
5.0003
 20
-40.0001
 30
0.0
 10
5.0003
 20
-40.0001
 30
0.0
 10
5.0003
 20
-40.0001
 30
0.0
 10
-24.9997
 20
-40.0001
 30
0.0
 10
-24.9997
 20
-40.0001
 30
0.0
 10
-24.9997
 20
-40.0001
 30
0.0
 10
-24.9997
 20
-40.0001
 30
0.0
 10
-24.9997
 20
-49.5001
 30
0.0
 10
-24.9997
 20
-49.5001
 30
0.0
 10
-24.9997
 20
-49.5001
 30
0.0
 10
-24.9997
 20
-49.5001
 30
0.0
 10
-15.0997
 20
-49.5001
 30
0.0
 10
-15.0997
 20
-49.5001
 30
0.0
 10
-15.0997
 20
-49.5001
 30
0.0
 10
-15.0997
 20
-49.5001
 30
0.0
 10
-15.0997
 20
-52.5
 30
0.0
 10
-15.0997
 20
-52.5
 30
0.0
 10
-15.0997
 20
-52.5
 30
0.0
 10
-15.0997
 20
-52.5
 30
0.0
 10
-24.9997
 20
-52.5
 30
0.0
 10
-24.9997
 20
-52.5
 30
0.0
 10
-24.9997
 20
-52.5
 30
0.0
 10
-24.9997
 20
-67.4801
 30
0.0
 10
-22.1204
 20
-70.8235
 30
0.0
 10
18.2521
 20
-87.4268
 30
0.0
 10
18.2521
 20
-87.4268
 30
0.0
 10
18.2521
 20
-87.4268
 30
0.0
 10
113.092
 20
-126.43
 30
0.0
 10
113.092
 20
-126.43
 30
0.0
 10
113.092
 20
-126.43
 30
0.0
 10
113.092
 20
-126.43
 30
0.0
 10
139.9009
 20
-53.0636
 30
0.0
 10
139.9009
 20
-53.0636
 30
0.0
  0
SPLINE
  5
44
330
1F
100
AcDbEntity
  8
Layer 1
370
     0
100
AcDbSpline
210
0.0
220
0.0
230
1.0
 70
    11
 71
     3
 72
    36
 73
    32
 74
     0
 42
0.0000000001
 43
0.0000000001
 12
1.0
 22
0.0
 32
0.0
 13
1.0
 23
0.0
 33
0.0
 40
0.0
 40
0.0
 40
0.0
 40
0.0
 40
0.1111111111111111
 40
0.1111111111111111
 40
0.1111111111111111
 40
0.1111111111111111
 40
0.2222222222222222
 40
0.2222222222222222
 40
0.2222222222222222
 40
0.2222222222222222
 40
0.3333333333333333
 40
0.3333333333333333
 40
0.3333333333333333
 40
0.3333333333333333
 40
0.4444444444444444
 40
0.4444444444444444
 40
0.4444444444444444
 40
0.4444444444444444
 40
0.5555555555555556
 40
0.5555555555555556
 40
0.5555555555555556
 40
0.5555555555555556
 40
0.6666666666666666
 40
0.6666666666666666
 40
0.6666666666666666
 40
0.6666666666666666
 40
0.7777777777777778
 40
0.7777777777777778
 40
0.7777777777777778
 40
0.7777777777777778
 40
1.0
 40
1.0
 40
1.0
 40
1.0
 10
-192.7499
 20
145.0
 30
0.0
 10
-192.7499
 20
145.0
 30
0.0
 10
122.75
 20
145.0
 30
0.0
 10
122.75
 20
145.0
 30
0.0
 10
122.75
 20
145.0
 30
0.0
 10
123.9876
 20
145.0
 30
0.0
 10
125.0
 20
143.9875
 30
0.0
 10
125.0
 20
142.75
 30
0.0
 10
125.0
 20
142.75
 30
0.0
 10
125.0
 20
142.75
 30
0.0
 10
125.0
 20
-32.75
 30
0.0
 10
125.0
 20
-32.75
 30
0.0
 10
125.0
 20
-32.75
 30
0.0
 10
125.0
 20
-33.9875
 30
0.0
 10
123.9876
 20
-35.0
 30
0.0
 10
122.75
 20
-35.0
 30
0.0
 10
122.75
 20
-35.0
 30
0.0
 10
122.75
 20
-35.0
 30
0.0
 10
-192.7499
 20
-35.0
 30
0.0
 10
-192.7499
 20
-35.0
 30
0.0
 10
-192.7499
 20
-35.0
 30
0.0
 10
-193.9874
 20
-35.0
 30
0.0
 10
-195.0
 20
-33.9875
 30
0.0
 10
-195.0
 20
-32.75
 30
0.0
 10
-195.0
 20
-32.75
 30
0.0
 10
-195.0
 20
-32.75
 30
0.0
 10
-195.0
 20
142.75
 30
0.0
 10
-195.0
 20
142.75
 30
0.0
 10
-195.0
 20
142.75
 30
0.0
 10
-195.0
 20
143.9875
 30
0.0
 10
-193.9874
 20
145.0
 30
0.0
 10
-192.7499
 20
145.0
 30
0.0
  0
LWPOLYLINE
  5
45
330
1F
100
AcDbEntity
  8
Layer 1
370
     0
100
AcDbPolyline
 90
        5
 70
     1
 43
0.0
 10
-176.5
 20
90.0
 10
-173.5
 20
90.0
 10
-173.5
 20
120.0
 10
-176.5
 20
120.0
 10
-176.5
 20
90.0
  0
LWPOLYLINE
  5
46
330
1F
100
AcDbEntity
  8
Layer 1
370
     0
100
AcDbPolyline
 90
        5
 70
     1
 43
0.0
 10
-176.5
 20
-15.0
 10
-173.5
 20
-15.0
 10
-173.5
 20
15.0
 10
-176.5
 20
15.0
 10
-176.5
 20
-15.0
  0
LWPOLYLINE
  5
47
330
1F
100
AcDbEntity
  8
Layer 1
370
     0
100
AcDbPolyline
 90
        5
 70
     1
 43
0.0
 10
-36.5
 20
90.0
 10
-33.5
 20
90.0
 10
-33.5
 20
120.0
 10
-36.5
 20
120.0
 10
-36.5
 20
90.0
  0
LWPOLYLINE
  5
48
330
1F
100
AcDbEntity
  8
Layer 1
370
     0
100
AcDbPolyline
 90
        5
 70
     1
 43
0.0
 10
-36.5
 20
-15.0
 10
-33.5
 20
-15.0
 10
-33.5
 20
15.0
 10
-36.5
 20
15.0
 10
-36.5
 20
-15.0
  0
LWPOLYLINE
  5
49
330
1F
100
AcDbEntity
  8
Layer 1
370
     0
100
AcDbPolyline
 90
        5
 70
     1
 43
0.0
 10
103.5
 20
90.0
 10
106.5
 20
90.0
 10
106.5
 20
120.0
 10
103.5
 20
120.0
 10
103.5
 20
90.0
  0
LWPOLYLINE
  5
4A
330
1F
100
AcDbEntity
  8
Layer 1
370
     0
100
AcDbPolyline
 90
        5
 70
     1
 43
0.0
 10
103.5
 20
-15.0
 10
106.5
 20
-15.0
 10
106.5
 20
15.0
 10
103.5
 20
15.0
 10
103.5
 20
-15.0
  0
SPLINE
  5
4B
330
1F
100
AcDbEntity
  8
Layer 1
370
     0
100
AcDbSpline
210
0.0
220
0.0
230
1.0
 70
    11
 71
     3
 72
    36
 73
    32
 74
     0
 42
0.0000000001
 43
0.0000000001
 12
1.0
 22
0.0
 32
0.0
 13
1.0
 23
0.0
 33
0.0
 40
0.0
 40
0.0
 40
0.0
 40
0.0
 40
0.1111111111111111
 40
0.1111111111111111
 40
0.1111111111111111
 40
0.1111111111111111
 40
0.2222222222222222
 40
0.2222222222222222
 40
0.2222222222222222
 40
0.2222222222222222
 40
0.3333333333333333
 40
0.3333333333333333
 40
0.3333333333333333
 40
0.3333333333333333
 40
0.4444444444444444
 40
0.4444444444444444
 40
0.4444444444444444
 40
0.4444444444444444
 40
0.5555555555555556
 40
0.5555555555555556
 40
0.5555555555555556
 40
0.5555555555555556
 40
0.6666666666666666
 40
0.6666666666666666
 40
0.6666666666666666
 40
0.6666666666666666
 40
0.7777777777777778
 40
0.7777777777777778
 40
0.7777777777777778
 40
0.7777777777777778
 40
1.0
 40
1.0
 40
1.0
 40
1.0
 10
-182.5001
 20
106.75
 30
0.0
 10
-182.5001
 20
106.75
 30
0.0
 10
-179.9999
 20
106.75
 30
0.0
 10
-179.9999
 20
106.75
 30
0.0
 10
-179.9999
 20
106.75
 30
0.0
 10
-179.0374
 20
106.75
 30
0.0
 10
-178.25
 20
105.9627
 30
0.0
 10
-178.25
 20
105.0002
 30
0.0
 10
-178.25
 20
105.0002
 30
0.0
 10
-178.25
 20
105.0002
 30
0.0
 10
-178.25
 20
104.9999
 30
0.0
 10
-178.25
 20
104.9999
 30
0.0
 10
-178.25
 20
104.9999
 30
0.0
 10
-178.25
 20
104.0374
 30
0.0
 10
-179.0374
 20
103.25
 30
0.0
 10
-179.9999
 20
103.25
 30
0.0
 10
-179.9999
 20
103.25
 30
0.0
 10
-179.9999
 20
103.25
 30
0.0
 10
-182.5001
 20
103.25
 30
0.0
 10
-182.5001
 20
103.25
 30
0.0
 10
-182.5001
 20
103.25
 30
0.0
 10
-183.4626
 20
103.25
 30
0.0
 10
-184.25
 20
104.0374
 30
0.0
 10
-184.25
 20
104.9999
 30
0.0
 10
-184.25
 20
104.9999
 30
0.0
 10
-184.25
 20
104.9999
 30
0.0
 10
-184.25
 20
105.0002
 30
0.0
 10
-184.25
 20
105.0002
 30
0.0
 10
-184.25
 20
105.0002
 30
0.0
 10
-184.25
 20
105.9627
 30
0.0
 10
-183.4626
 20
106.75
 30
0.0
 10
-182.5001
 20
106.75
 30
0.0
  0
SPLINE
  5
4C
330
1F
100
AcDbEntity
  8
Layer 1
370
     0
100
AcDbSpline
210
0.0
220
0.0
230
1.0
 70
    11
 71
     3
 72
    36
 73
    32
 74
     0
 42
0.0000000001
 43
0.0000000001
 12
1.0
 22
0.0
 32
0.0
 13
1.0
 23
0.0
 33
0.0
 40
0.0
 40
0.0
 40
0.0
 40
0.0
 40
0.1111111111111111
 40
0.1111111111111111
 40
0.1111111111111111
 40
0.1111111111111111
 40
0.2222222222222222
 40
0.2222222222222222
 40
0.2222222222222222
 40
0.2222222222222222
 40
0.3333333333333333
 40
0.3333333333333333
 40
0.3333333333333333
 40
0.3333333333333333
 40
0.4444444444444444
 40
0.4444444444444444
 40
0.4444444444444444
 40
0.4444444444444444
 40
0.5555555555555556
 40
0.5555555555555556
 40
0.5555555555555556
 40
0.5555555555555556
 40
0.6666666666666666
 40
0.6666666666666666
 40
0.6666666666666666
 40
0.6666666666666666
 40
0.7777777777777778
 40
0.7777777777777778
 40
0.7777777777777778
 40
0.7777777777777778
 40
1.0
 40
1.0
 40
1.0
 40
1.0
 10
109.9999
 20
106.75
 30
0.0
 10
109.9999
 20
106.75
 30
0.0
 10
112.5001
 20
106.75
 30
0.0
 10
112.5001
 20
106.75
 30
0.0
 10
112.5001
 20
106.75
 30
0.0
 10
113.4626
 20
106.75
 30
0.0
 10
114.25
 20
105.9627
 30
0.0
 10
114.25
 20
105.0002
 30
0.0
 10
114.25
 20
105.0002
 30
0.0
 10
114.25
 20
105.0002
 30
0.0
 10
114.25
 20
104.9999
 30
0.0
 10
114.25
 20
104.9999
 30
0.0
 10
114.25
 20
104.9999
 30
0.0
 10
114.25
 20
104.0374
 30
0.0
 10
113.4626
 20
103.25
 30
0.0
 10
112.5001
 20
103.25
 30
0.0
 10
112.5001
 20
103.25
 30
0.0
 10
112.5001
 20
103.25
 30
0.0
 10
109.9999
 20
103.25
 30
0.0
 10
109.9999
 20
103.25
 30
0.0
 10
109.9999
 20
103.25
 30
0.0
 10
109.0374
 20
103.25
 30
0.0
 10
108.25
 20
104.0374
 30
0.0
 10
108.25
 20
104.9999
 30
0.0
 10
108.25
 20
104.9999
 30
0.0
 10
108.25
 20
104.9999
 30
0.0
 10
108.25
 20
105.0002
 30
0.0
 10
108.25
 20
105.0002
 30
0.0
 10
108.25
 20
105.0002
 30
0.0
 10
108.25
 20
105.9627
 30
0.0
 10
109.0374
 20
106.75
 30
0.0
 10
109.9999
 20
106.75
 30
0.0
  0
SPLINE
  5
4D
330
1F
100
AcDbEntity
  8
Layer 1
370
     0
100
AcDbSpline
210
0.0
220
0.0
230
1.0
 70
    11
 71
     3
 72
    36
 73
    32
 74
     0
 42
0.0000000001
 43
0.0000000001
 12
1.0
 22
0.0
 32
0.0
 13
1.0
 23
0.0
 33
0.0
 40
0.0
 40
0.0
 40
0.0
 40
0.0
 40
0.1111111111111111
 40
0.1111111111111111
 40
0.1111111111111111
 40
0.1111111111111111
 40
0.2222222222222222
 40
0.2222222222222222
 40
0.2222222222222222
 40
0.2222222222222222
 40
0.3333333333333333
 40
0.3333333333333333
 40
0.3333333333333333
 40
0.3333333333333333
 40
0.4444444444444444
 40
0.4444444444444444
 40
0.4444444444444444
 40
0.4444444444444444
 40
0.5555555555555556
 40
0.5555555555555556
 40
0.5555555555555556
 40
0.5555555555555556
 40
0.6666666666666666
 40
0.6666666666666666
 40
0.6666666666666666
 40
0.6666666666666666
 40
0.7777777777777778
 40
0.7777777777777778
 40
0.7777777777777778
 40
0.7777777777777778
 40
1.0
 40
1.0
 40
1.0
 40
1.0
 10
109.9999
 20
25.75
 30
0.0
 10
109.9999
 20
25.75
 30
0.0
 10
112.5001
 20
25.75
 30
0.0
 10
112.5001
 20
25.75
 30
0.0
 10
112.5001
 20
25.75
 30
0.0
 10
113.4626
 20
25.75
 30
0.0
 10
114.25
 20
24.9627
 30
0.0
 10
114.25
 20
24.0002
 30
0.0
 10
114.25
 20
24.0002
 30
0.0
 10
114.25
 20
24.0002
 30
0.0
 10
114.25
 20
23.9999
 30
0.0
 10
114.25
 20
23.9999
 30
0.0
 10
114.25
 20
23.9999
 30
0.0
 10
114.25
 20
23.0374
 30
0.0
 10
113.4626
 20
22.25
 30
0.0
 10
112.5001
 20
22.25
 30
0.0
 10
112.5001
 20
22.25
 30
0.0
 10
112.5001
 20
22.25
 30
0.0
 10
109.9999
 20
22.25
 30
0.0
 10
109.9999
 20
22.25
 30
0.0
 10
109.9999
 20
22.25
 30
0.0
 10
109.0374
 20
22.25
 30
0.0
 10
108.25
 20
23.0374
 30
0.0
 10
108.25
 20
23.9999
 30
0.0
 10
108.25
 20
23.9999
 30
0.0
 10
108.25
 20
23.9999
 30
0.0
 10
108.25
 20
24.0002
 30
0.0
 10
108.25
 20
24.0002
 30
0.0
 10
108.25
 20
24.0002
 30
0.0
 10
108.25
 20
24.9627
 30
0.0
 10
109.0374
 20
25.75
 30
0.0
 10
109.9999
 20
25.75
 30
0.0
  0
SPLINE
  5
4E
330
1F
100
AcDbEntity
  8
Layer 1
370
     0
100
AcDbSpline
210
0.0
220
0.0
230
1.0
 70
    11
 71
     3
 72
    36
 73
    32
 74
     0
 42
0.0000000001
 43
0.0000000001
 12
1.0
 22
0.0
 32
0.0
 13
1.0
 23
0.0
 33
0.0
 40
0.0
 40
0.0
 40
0.0
 40
0.0
 40
0.1111111111111111
 40
0.1111111111111111
 40
0.1111111111111111
 40
0.1111111111111111
 40
0.2222222222222222
 40
0.2222222222222222
 40
0.2222222222222222
 40
0.2222222222222222
 40
0.3333333333333333
 40
0.3333333333333333
 40
0.3333333333333333
 40
0.3333333333333333
 40
0.4444444444444444
 40
0.4444444444444444
 40
0.4444444444444444
 40
0.4444444444444444
 40
0.5555555555555556
 40
0.5555555555555556
 40
0.5555555555555556
 40
0.5555555555555556
 40
0.6666666666666666
 40
0.6666666666666666
 40
0.6666666666666666
 40
0.6666666666666666
 40
0.7777777777777778
 40
0.7777777777777778
 40
0.7777777777777778
 40
0.7777777777777778
 40
1.0
 40
1.0
 40
1.0
 40
1.0
 10
-182.5001
 20
25.75
 30
0.0
 10
-182.5001
 20
25.75
 30
0.0
 10
-179.9999
 20
25.75
 30
0.0
 10
-179.9999
 20
25.75
 30
0.0
 10
-179.9999
 20
25.75
 30
0.0
 10
-179.0374
 20
25.75
 30
0.0
 10
-178.25
 20
24.9627
 30
0.0
 10
-178.25
 20
24.0002
 30
0.0
 10
-178.25
 20
24.0002
 30
0.0
 10
-178.25
 20
24.0002
 30
0.0
 10
-178.25
 20
23.9999
 30
0.0
 10
-178.25
 20
23.9999
 30
0.0
 10
-178.25
 20
23.9999
 30
0.0
 10
-178.25
 20
23.0374
 30
0.0
 10
-179.0374
 20
22.25
 30
0.0
 10
-179.9999
 20
22.25
 30
0.0
 10
-179.9999
 20
22.25
 30
0.0
 10
-179.9999
 20
22.25
 30
0.0
 10
-182.5001
 20
22.25
 30
0.0
 10
-182.5001
 20
22.25
 30
0.0
 10
-182.5001
 20
22.25
 30
0.0
 10
-183.4626
 20
22.25
 30
0.0
 10
-184.25
 20
23.0374
 30
0.0
 10
-184.25
 20
23.9999
 30
0.0
 10
-184.25
 20
23.9999
 30
0.0
 10
-184.25
 20
23.9999
 30
0.0
 10
-184.25
 20
24.0002
 30
0.0
 10
-184.25
 20
24.0002
 30
0.0
 10
-184.25
 20
24.0002
 30
0.0
 10
-184.25
 20
24.9627
 30
0.0
 10
-183.4626
 20
25.75
 30
0.0
 10
-182.5001
 20
25.75
 30
0.0
  0
SPLINE
  5
4F
330
1F
100
AcDbEntity
  8
Layer 1
370
     0
100
AcDbSpline
210
0.0
220
0.0
230
1.0
 70
    11
 71
     3
 72
    36
 73
    32
 74
     0
 42
0.0000000001
 43
0.0000000001
 12
1.0
 22
0.0
 32
0.0
 13
1.0
 23
0.0
 33
0.0
 40
0.0
 40
0.0
 40
0.0
 40
0.0
 40
0.1111111111111111
 40
0.1111111111111111
 40
0.1111111111111111
 40
0.1111111111111111
 40
0.2222222222222222
 40
0.2222222222222222
 40
0.2222222222222222
 40
0.2222222222222222
 40
0.3333333333333333
 40
0.3333333333333333
 40
0.3333333333333333
 40
0.3333333333333333
 40
0.4444444444444444
 40
0.4444444444444444
 40
0.4444444444444444
 40
0.4444444444444444
 40
0.5555555555555556
 40
0.5555555555555556
 40
0.5555555555555556
 40
0.5555555555555556
 40
0.6666666666666666
 40
0.6666666666666666
 40
0.6666666666666666
 40
0.6666666666666666
 40
0.7777777777777778
 40
0.7777777777777778
 40
0.7777777777777778
 40
0.7777777777777778
 40
1.0
 40
1.0
 40
1.0
 40
1.0
 10
-168.7501
 20
80.0
 30
0.0
 10
-168.7501
 20
80.0
 30
0.0
 10
-151.2499
 20
80.0
 30
0.0
 10
-151.2499
 20
80.0
 30
0.0
 10
-151.2499
 20
80.0
 30
0.0
 10
-149.1873
 20
80.0
 30
0.0
 10
-147.5
 20
78.3126
 30
0.0
 10
-147.5
 20
76.2501
 30
0.0
 10
-147.5
 20
76.2501
 30
0.0
 10
-147.5
 20
76.2501
 30
0.0
 10
-147.5
 20
49.7499
 30
0.0
 10
-147.5
 20
49.7499
 30
0.0
 10
-147.5
 20
49.7499
 30
0.0
 10
-147.5
 20
47.6874
 30
0.0
 10
-149.1873
 20
46.0
 30
0.0
 10
-151.2499
 20
46.0
 30
0.0
 10
-151.2499
 20
46.0
 30
0.0
 10
-151.2499
 20
46.0
 30
0.0
 10
-168.7501
 20
46.0
 30
0.0
 10
-168.7501
 20
46.0
 30
0.0
 10
-168.7501
 20
46.0
 30
0.0
 10
-170.8127
 20
46.0
 30
0.0
 10
-172.5
 20
47.6874
 30
0.0
 10
-172.5
 20
49.7499
 30
0.0
 10
-172.5
 20
49.7499
 30
0.0
 10
-172.5
 20
49.7499
 30
0.0
 10
-172.5
 20
76.2501
 30
0.0
 10
-172.5
 20
76.2501
 30
0.0
 10
-172.5
 20
76.2501
 30
0.0
 10
-172.5
 20
78.3126
 30
0.0
 10
-170.8127
 20
80.0
 30
0.0
 10
-168.7501
 20
80.0
 30
0.0
  0
SPLINE
  5
50
330
1F
100
AcDbEntity
  8
Layer 1
370
     0
100
AcDbSpline
210
0.0
220
0.0
230
1.0
 70
    11
 71
     3
 72
    36
 73
    32
 74
     0
 42
0.0000000001
 43
0.0000000001
 12
1.0
 22
0.0
 32
0.0
 13
1.0
 23
0.0
 33
0.0
 40
0.0
 40
0.0
 40
0.0
 40
0.0
 40
0.1111111111111111
 40
0.1111111111111111
 40
0.1111111111111111
 40
0.1111111111111111
 40
0.2222222222222222
 40
0.2222222222222222
 40
0.2222222222222222
 40
0.2222222222222222
 40
0.3333333333333333
 40
0.3333333333333333
 40
0.3333333333333333
 40
0.3333333333333333
 40
0.4444444444444444
 40
0.4444444444444444
 40
0.4444444444444444
 40
0.4444444444444444
 40
0.5555555555555556
 40
0.5555555555555556
 40
0.5555555555555556
 40
0.5555555555555556
 40
0.6666666666666666
 40
0.6666666666666666
 40
0.6666666666666666
 40
0.6666666666666666
 40
0.7777777777777778
 40
0.7777777777777778
 40
0.7777777777777778
 40
0.7777777777777778
 40
1.0
 40
1.0
 40
1.0
 40
1.0
 10
81.2499
 20
80.0
 30
0.0
 10
81.2499
 20
80.0
 30
0.0
 10
98.7501
 20
80.0
 30
0.0
 10
98.7501
 20
80.0
 30
0.0
 10
98.7501
 20
80.0
 30
0.0
 10
100.8127
 20
80.0
 30
0.0
 10
102.5
 20
78.3126
 30
0.0
 10
102.5
 20
76.2501
 30
0.0
 10
102.5
 20
76.2501
 30
0.0
 10
102.5
 20
76.2501
 30
0.0
 10
102.5
 20
49.7499
 30
0.0
 10
102.5
 20
49.7499
 30
0.0
 10
102.5
 20
49.7499
 30
0.0
 10
102.5
 20
47.6874
 30
0.0
 10
100.8127
 20
46.0
 30
0.0
 10
98.7501
 20
46.0
 30
0.0
 10
98.7501
 20
46.0
 30
0.0
 10
98.7501
 20
46.0
 30
0.0
 10
81.2499
 20
46.0
 30
0.0
 10
81.2499
 20
46.0
 30
0.0
 10
81.2499
 20
46.0
 30
0.0
 10
79.1873
 20
46.0
 30
0.0
 10
77.5
 20
47.6874
 30
0.0
 10
77.5
 20
49.7499
 30
0.0
 10
77.5
 20
49.7499
 30
0.0
 10
77.5
 20
49.7499
 30
0.0
 10
77.5
 20
76.2501
 30
0.0
 10
77.5
 20
76.2501
 30
0.0
 10
77.5
 20
76.2501
 30
0.0
 10
77.5
 20
78.3126
 30
0.0
 10
79.1873
 20
80.0
 30
0.0
 10
81.2499
 20
80.0
 30
0.0
  0
ELLIPSE
  5
51
330
1F
100
AcDbEntity
  8
Layer 1
370
     0
100
AcDbEllipse
 10
-115.32
 20
40.87
 30
0.0
 11
0.0
 21
1.5
 31
0.0
210
0.0
220
0.0
230
1.0
 40
1.0
 41
0.0
 42
6.283185307179586
  0
ELLIPSE
  5
52
330
1F
100
AcDbEntity
  8
Layer 1
370
     0
100
AcDbEllipse
 10
-63.25
 20
45.95
 30
0.0
 11
0.0
 21
1.5
 31
0.0
210
0.0
220
0.0
230
1.0
 40
1.0
 41
0.0
 42
6.283185307179586
  0
ELLIPSE
  5
53
330
1F
100
AcDbEntity
  8
Layer 1
370
     0
100
AcDbEllipse
 10
-63.25
 20
73.89
 30
0.0
 11
0.0
 21
1.5
 31
0.0
210
0.0
220
0.0
230
1.0
 40
1.0
 41
0.0
 42
6.283185307179586
  0
ELLIPSE
  5
54
330
1F
100
AcDbEntity
  8
Layer 1
370
     0
100
AcDbEllipse
 10
-114.05
 20
89.13
 30
0.0
 11
0.0
 21
1.5
 31
0.0
210
0.0
220
0.0
230
1.0
 40
1.0
 41
0.0
 42
6.283185307179586
  0
ELLIPSE
  5
55
330
1F
100
AcDbEntity
  8
Layer 1
370
     0
100
AcDbEllipse
 10
4.68
 20
40.87
 30
0.0
 11
0.0
 21
1.5
 31
0.0
210
0.0
220
0.0
230
1.0
 40
1.0
 41
0.0
 42
6.283185307179586
  0
ELLIPSE
  5
56
330
1F
100
AcDbEntity
  8
Layer 1
370
     0
100
AcDbEllipse
 10
56.75
 20
45.95
 30
0.0
 11
0.0
 21
1.5
 31
0.0
210
0.0
220
0.0
230
1.0
 40
1.0
 41
0.0
 42
6.283185307179586
  0
ELLIPSE
  5
57
330
1F
100
AcDbEntity
  8
Layer 1
370
     0
100
AcDbEllipse
 10
56.75
 20
73.89
 30
0.0
 11
0.0
 21
1.5
 31
0.0
210
0.0
220
0.0
230
1.0
 40
1.0
 41
0.0
 42
6.283185307179586
  0
ELLIPSE
  5
58
330
1F
100
AcDbEntity
  8
Layer 1
370
     0
100
AcDbEllipse
 10
5.95
 20
89.13
 30
0.0
 11
0.0
 21
1.5
 31
0.0
210
0.0
220
0.0
230
1.0
 40
1.0
 41
0.0
 42
6.283185307179586
  0
SPLINE
  5
59
330
1F
100
AcDbEntity
  8
Layer 1
370
     0
100
AcDbSpline
210
0.0
220
0.0
230
1.0
 70
    11
 71
     3
 72
    20
 73
    16
 74
     0
 42
0.0000000001
 43
0.0000000001
 12
1.0
 22
0.0
 32
0.0
 13
1.0
 23
0.0
 33
0.0
 40
0.0
 40
0.0
 40
0.0
 40
0.0
 40
0.2
 40
0.2
 40
0.2
 40
0.2
 40
0.4
 40
0.4
 40
0.4
 40
0.4
 40
0.6
 40
0.6
 40
0.6
 40
0.6
 40
1.0
 40
1.0
 40
1.0
 40
1.0
 10
-72.37
 20
44.68
 30
0.0
 10
-72.37
 20
45.5084
 30
0.0
 10
-71.6984
 20
46.18
 30
0.0
 10
-70.87
 20
46.18
 30
0.0
 10
-70.87
 20
46.18
 30
0.0
 10
-70.0416
 20
46.18
 30
0.0
 10
-69.37
 20
45.5084
 30
0.0
 10
-69.37
 20
44.68
 30
0.0
 10
-69.37
 20
44.68
 30
0.0
 10
-69.37
 20
43.8516
 30
0.0
 10
-70.0416
 20
43.18
 30
0.0
 10
-70.87
 20
43.18
 30
0.0
 10
-70.87
 20
43.18
 30
0.0
 10
-71.6984
 20
43.18
 30
0.0
 10
-72.37
 20
43.8516
 30
0.0
 10
-72.37
 20
44.68
 30
0.0
  0
SPLINE
  5
5A
330
1F
100
AcDbEntity
  8
Layer 1
370
     0
100
AcDbSpline
210
0.0
220
0.0
230
1.0
 70
    11
 71
     3
 72
    20
 73
    16
 74
     0
 42
0.0000000001
 43
0.0000000001
 12
1.0
 22
0.0
 32
0.0
 13
1.0
 23
0.0
 33
0.0
 40
0.0
 40
0.0
 40
0.0
 40
0.0
 40
0.2
 40
0.2
 40
0.2
 40
0.2
 40
0.4
 40
0.4
 40
0.4
 40
0.4
 40
0.6
 40
0.6
 40
0.6
 40
0.6
 40
1.0
 40
1.0
 40
1.0
 40
1.0
 10
-77.45
 20
96.75
 30
0.0
 10
-77.45
 20
97.5784
 30
0.0
 10
-76.7784
 20
98.25
 30
0.0
 10
-75.95
 20
98.25
 30
0.0
 10
-75.95
 20
98.25
 30
0.0
 10
-75.1216
 20
98.25
 30
0.0
 10
-74.45
 20
97.5784
 30
0.0
 10
-74.45
 20
96.75
 30
0.0
 10
-74.45
 20
96.75
 30
0.0
 10
-74.45
 20
95.9216
 30
0.0
 10
-75.1216
 20
95.25
 30
0.0
 10
-75.95
 20
95.25
 30
0.0
 10
-75.95
 20
95.25
 30
0.0
 10
-76.7784
 20
95.25
 30
0.0
 10
-77.45
 20
95.9216
 30
0.0
 10
-77.45
 20
96.75
 30
0.0
  0
SPLINE
  5
5B
330
1F
100
AcDbEntity
  8
Layer 1
370
     0
100
AcDbSpline
210
0.0
220
0.0
230
1.0
 70
    11
 71
     3
 72
    20
 73
    16
 74
     0
 42
0.0000000001
 43
0.0000000001
 12
1.0
 22
0.0
 32
0.0
 13
1.0
 23
0.0
 33
0.0
 40
0.0
 40
0.0
 40
0.0
 40
0.0
 40
0.2
 40
0.2
 40
0.2
 40
0.2
 40
0.4
 40
0.4
 40
0.4
 40
0.4
 40
0.6
 40
0.6
 40
0.6
 40
0.6
 40
1.0
 40
1.0
 40
1.0
 40
1.0
 10
-105.39
 20
96.75
 30
0.0
 10
-105.39
 20
97.5784
 30
0.0
 10
-104.7184
 20
98.25
 30
0.0
 10
-103.89
 20
98.25
 30
0.0
 10
-103.89
 20
98.25
 30
0.0
 10
-103.0616
 20
98.25
 30
0.0
 10
-102.39
 20
97.5784
 30
0.0
 10
-102.39
 20
96.75
 30
0.0
 10
-102.39
 20
96.75
 30
0.0
 10
-102.39
 20
95.9216
 30
0.0
 10
-103.0616
 20
95.25
 30
0.0
 10
-103.89
 20
95.25
 30
0.0
 10
-103.89
 20
95.25
 30
0.0
 10
-104.7184
 20
95.25
 30
0.0
 10
-105.39
 20
95.9216
 30
0.0
 10
-105.39
 20
96.75
 30
0.0
  0
SPLINE
  5
5C
330
1F
100
AcDbEntity
  8
Layer 1
370
     0
100
AcDbSpline
210
0.0
220
0.0
230
1.0
 70
    11
 71
     3
 72
    20
 73
    16
 74
     0
 42
0.0000000001
 43
0.0000000001
 12
1.0
 22
0.0
 32
0.0
 13
1.0
 23
0.0
 33
0.0
 40
0.0
 40
0.0
 40
0.0
 40
0.0
 40
0.2
 40
0.2
 40
0.2
 40
0.2
 40
0.4
 40
0.4
 40
0.4
 40
0.4
 40
0.6
 40
0.6
 40
0.6
 40
0.6
 40
1.0
 40
1.0
 40
1.0
 40
1.0
 10
-120.63
 20
45.95
 30
0.0
 10
-120.63
 20
46.7784
 30
0.0
 10
-119.9584
 20
47.45
 30
0.0
 10
-119.13
 20
47.45
 30
0.0
 10
-119.13
 20
47.45
 30
0.0
 10
-118.3016
 20
47.45
 30
0.0
 10
-117.63
 20
46.7784
 30
0.0
 10
-117.63
 20
45.95
 30
0.0
 10
-117.63
 20
45.95
 30
0.0
 10
-117.63
 20
45.1216
 30
0.0
 10
-118.3016
 20
44.45
 30
0.0
 10
-119.13
 20
44.45
 30
0.0
 10
-119.13
 20
44.45
 30
0.0
 10
-119.9584
 20
44.45
 30
0.0
 10
-120.63
 20
45.1216
 30
0.0
 10
-120.63
 20
45.95
 30
0.0
  0
SPLINE
  5
5D
330
1F
100
AcDbEntity
  8
Layer 1
370
     0
100
AcDbSpline
210
0.0
220
0.0
230
1.0
 70
    11
 71
     3
 72
    20
 73
    16
 74
     0
 42
0.0000000001
 43
0.0000000001
 12
1.0
 22
0.0
 32
0.0
 13
1.0
 23
0.0
 33
0.0
 40
0.0
 40
0.0
 40
0.0
 40
0.0
 40
0.2
 40
0.2
 40
0.2
 40
0.2
 40
0.4
 40
0.4
 40
0.4
 40
0.4
 40
0.6
 40
0.6
 40
0.6
 40
0.6
 40
1.0
 40
1.0
 40
1.0
 40
1.0
 10
47.63
 20
44.68
 30
0.0
 10
47.63
 20
45.5084
 30
0.0
 10
48.3016
 20
46.18
 30
0.0
 10
49.13
 20
46.18
 30
0.0
 10
49.13
 20
46.18
 30
0.0
 10
49.9584
 20
46.18
 30
0.0
 10
50.63
 20
45.5084
 30
0.0
 10
50.63
 20
44.68
 30
0.0
 10
50.63
 20
44.68
 30
0.0
 10
50.63
 20
43.8516
 30
0.0
 10
49.9584
 20
43.18
 30
0.0
 10
49.13
 20
43.18
 30
0.0
 10
49.13
 20
43.18
 30
0.0
 10
48.3016
 20
43.18
 30
0.0
 10
47.63
 20
43.8516
 30
0.0
 10
47.63
 20
44.68
 30
0.0
  0
SPLINE
  5
5E
330
1F
100
AcDbEntity
  8
Layer 1
370
     0
100
AcDbSpline
210
0.0
220
0.0
230
1.0
 70
    11
 71
     3
 72
    20
 73
    16
 74
     0
 42
0.0000000001
 43
0.0000000001
 12
1.0
 22
0.0
 32
0.0
 13
1.0
 23
0.0
 33
0.0
 40
0.0
 40
0.0
 40
0.0
 40
0.0
 40
0.2
 40
0.2
 40
0.2
 40
0.2
 40
0.4
 40
0.4
 40
0.4
 40
0.4
 40
0.6
 40
0.6
 40
0.6
 40
0.6
 40
1.0
 40
1.0
 40
1.0
 40
1.0
 10
42.55
 20
96.75
 30
0.0
 10
42.55
 20
97.5784
 30
0.0
 10
43.2216
 20
98.25
 30
0.0
 10
44.05
 20
98.25
 30
0.0
 10
44.05
 20
98.25
 30
0.0
 10
44.8784
 20
98.25
 30
0.0
 10
45.55
 20
97.5784
 30
0.0
 10
45.55
 20
96.75
 30
0.0
 10
45.55
 20
96.75
 30
0.0
 10
45.55
 20
95.9216
 30
0.0
 10
44.8784
 20
95.25
 30
0.0
 10
44.05
 20
95.25
 30
0.0
 10
44.05
 20
95.25
 30
0.0
 10
43.2216
 20
95.25
 30
0.0
 10
42.55
 20
95.9216
 30
0.0
 10
42.55
 20
96.75
 30
0.0
  0
SPLINE
  5
5F
330
1F
100
AcDbEntity
  8
Layer 1
370
     0
100
AcDbSpline
210
0.0
220
0.0
230
1.0
 70
    11
 71
     3
 72
    20
 73
    16
 74
     0
 42
0.0000000001
 43
0.0000000001
 12
1.0
 22
0.0
 32
0.0
 13
1.0
 23
0.0
 33
0.0
 40
0.0
 40
0.0
 40
0.0
 40
0.0
 40
0.2
 40
0.2
 40
0.2
 40
0.2
 40
0.4
 40
0.4
 40
0.4
 40
0.4
 40
0.6
 40
0.6
 40
0.6
 40
0.6
 40
1.0
 40
1.0
 40
1.0
 40
1.0
 10
14.61
 20
96.75
 30
0.0
 10
14.61
 20
97.5784
 30
0.0
 10
15.2816
 20
98.25
 30
0.0
 10
16.11
 20
98.25
 30
0.0
 10
16.11
 20
98.25
 30
0.0
 10
16.9384
 20
98.25
 30
0.0
 10
17.61
 20
97.5784
 30
0.0
 10
17.61
 20
96.75
 30
0.0
 10
17.61
 20
96.75
 30
0.0
 10
17.61
 20
95.9216
 30
0.0
 10
16.9384
 20
95.25
 30
0.0
 10
16.11
 20
95.25
 30
0.0
 10
16.11
 20
95.25
 30
0.0
 10
15.2816
 20
95.25
 30
0.0
 10
14.61
 20
95.9216
 30
0.0
 10
14.61
 20
96.75
 30
0.0
  0
SPLINE
  5
60
330
1F
100
AcDbEntity
  8
Layer 1
370
     0
100
AcDbSpline
210
0.0
220
0.0
230
1.0
 70
    11
 71
     3
 72
    20
 73
    16
 74
     0
 42
0.0000000001
 43
0.0000000001
 12
1.0
 22
0.0
 32
0.0
 13
1.0
 23
0.0
 33
0.0
 40
0.0
 40
0.0
 40
0.0
 40
0.0
 40
0.2
 40
0.2
 40
0.2
 40
0.2
 40
0.4
 40
0.4
 40
0.4
 40
0.4
 40
0.6
 40
0.6
 40
0.6
 40
0.6
 40
1.0
 40
1.0
 40
1.0
 40
1.0
 10
-0.63
 20
45.95
 30
0.0
 10
-0.63
 20
46.7784
 30
0.0
 10
0.0416
 20
47.45
 30
0.0
 10
0.87
 20
47.45
 30
0.0
 10
0.87
 20
47.45
 30
0.0
 10
1.6984
 20
47.45
 30
0.0
 10
2.37
 20
46.7784
 30
0.0
 10
2.37
 20
45.95
 30
0.0
 10
2.37
 20
45.95
 30
0.0
 10
2.37
 20
45.1216
 30
0.0
 10
1.6984
 20
44.45
 30
0.0
 10
0.87
 20
44.45
 30
0.0
 10
0.87
 20
44.45
 30
0.0
 10
0.0416
 20
44.45
 30
0.0
 10
-0.63
 20
45.1216
 30
0.0
 10
-0.63
 20
45.95
 30
0.0
  0
SPLINE
  5
61
330
1F
100
AcDbEntity
  8
Layer 1
370
     0
100
AcDbSpline
210
0.0
220
0.0
230
1.0
 70
    11
 71
     3
 72
    20
 73
    16
 74
     0
 42
0.0000000001
 43
0.0000000001
 12
1.0
 22
0.0
 32
0.0
 13
1.0
 23
0.0
 33
0.0
 40
0.0
 40
0.0
 40
0.0
 40
0.0
 40
0.2
 40
0.2
 40
0.2
 40
0.2
 40
0.4
 40
0.4
 40
0.4
 40
0.4
 40
0.6
 40
0.6
 40
0.6
 40
0.6
 40
1.0
 40
1.0
 40
1.0
 40
1.0
 10
-74.68
 20
87.63
 30
0.0
 10
-75.5084
 20
87.63
 30
0.0
 10
-76.18
 20
88.3016
 30
0.0
 10
-76.18
 20
89.13
 30
0.0
 10
-76.18
 20
89.13
 30
0.0
 10
-76.18
 20
89.9584
 30
0.0
 10
-75.5084
 20
90.63
 30
0.0
 10
-74.68
 20
90.63
 30
0.0
 10
-74.68
 20
90.63
 30
0.0
 10
-73.8516
 20
90.63
 30
0.0
 10
-73.18
 20
89.9584
 30
0.0
 10
-73.18
 20
89.13
 30
0.0
 10
-73.18
 20
89.13
 30
0.0
 10
-73.18
 20
88.3016
 30
0.0
 10
-73.8516
 20
87.63
 30
0.0
 10
-74.68
 20
87.63
 30
0.0
  0
SPLINE
  5
62
330
1F
100
AcDbEntity
  8
Layer 1
370
     0
100
AcDbSpline
210
0.0
220
0.0
230
1.0
 70
    11
 71
     3
 72
    20
 73
    16
 74
     0
 42
0.0000000001
 43
0.0000000001
 12
1.0
 22
0.0
 32
0.0
 13
1.0
 23
0.0
 33
0.0
 40
0.0
 40
0.0
 40
0.0
 40
0.0
 40
0.2
 40
0.2
 40
0.2
 40
0.2
 40
0.4
 40
0.4
 40
0.4
 40
0.4
 40
0.6
 40
0.6
 40
0.6
 40
0.6
 40
1.0
 40
1.0
 40
1.0
 40
1.0
 10
-126.75
 20
82.55
 30
0.0
 10
-127.5784
 20
82.55
 30
0.0
 10
-128.25
 20
83.2216
 30
0.0
 10
-128.25
 20
84.05
 30
0.0
 10
-128.25
 20
84.05
 30
0.0
 10
-128.25
 20
84.8784
 30
0.0
 10
-127.5784
 20
85.55
 30
0.0
 10
-126.75
 20
85.55
 30
0.0
 10
-126.75
 20
85.55
 30
0.0
 10
-125.9216
 20
85.55
 30
0.0
 10
-125.25
 20
84.8784
 30
0.0
 10
-125.25
 20
84.05
 30
0.0
 10
-125.25
 20
84.05
 30
0.0
 10
-125.25
 20
83.2216
 30
0.0
 10
-125.9216
 20
82.55
 30
0.0
 10
-126.75
 20
82.55
 30
0.0
  0
SPLINE
  5
63
330
1F
100
AcDbEntity
  8
Layer 1
370
     0
100
AcDbSpline
210
0.0
220
0.0
230
1.0
 70
    11
 71
     3
 72
    20
 73
    16
 74
     0
 42
0.0000000001
 43
0.0000000001
 12
1.0
 22
0.0
 32
0.0
 13
1.0
 23
0.0
 33
0.0
 40
0.0
 40
0.0
 40
0.0
 40
0.0
 40
0.2
 40
0.2
 40
0.2
 40
0.2
 40
0.4
 40
0.4
 40
0.4
 40
0.4
 40
0.6
 40
0.6
 40
0.6
 40
0.6
 40
1.0
 40
1.0
 40
1.0
 40
1.0
 10
-126.75
 20
54.61
 30
0.0
 10
-127.5784
 20
54.61
 30
0.0
 10
-128.25
 20
55.2816
 30
0.0
 10
-128.25
 20
56.11
 30
0.0
 10
-128.25
 20
56.11
 30
0.0
 10
-128.25
 20
56.9384
 30
0.0
 10
-127.5784
 20
57.61
 30
0.0
 10
-126.75
 20
57.61
 30
0.0
 10
-126.75
 20
57.61
 30
0.0
 10
-125.9216
 20
57.61
 30
0.0
 10
-125.25
 20
56.9384
 30
0.0
 10
-125.25
 20
56.11
 30
0.0
 10
-125.25
 20
56.11
 30
0.0
 10
-125.25
 20
55.2816
 30
0.0
 10
-125.9216
 20
54.61
 30
0.0
 10
-126.75
 20
54.61
 30
0.0
  0
SPLINE
  5
64
330
1F
100
AcDbEntity
  8
Layer 1
370
     0
100
AcDbSpline
210
0.0
220
0.0
230
1.0
 70
    11
 71
     3
 72
    20
 73
    16
 74
     0
 42
0.0000000001
 43
0.0000000001
 12
1.0
 22
0.0
 32
0.0
 13
1.0
 23
0.0
 33
0.0
 40
0.0
 40
0.0
 40
0.0
 40
0.0
 40
0.2
 40
0.2
 40
0.2
 40
0.2
 40
0.4
 40
0.4
 40
0.4
 40
0.4
 40
0.6
 40
0.6
 40
0.6
 40
0.6
 40
1.0
 40
1.0
 40
1.0
 40
1.0
 10
-75.95
 20
39.37
 30
0.0
 10
-76.7784
 20
39.37
 30
0.0
 10
-77.45
 20
40.0416
 30
0.0
 10
-77.45
 20
40.87
 30
0.0
 10
-77.45
 20
40.87
 30
0.0
 10
-77.45
 20
41.6984
 30
0.0
 10
-76.7784
 20
42.37
 30
0.0
 10
-75.95
 20
42.37
 30
0.0
 10
-75.95
 20
42.37
 30
0.0
 10
-75.1216
 20
42.37
 30
0.0
 10
-74.45
 20
41.6984
 30
0.0
 10
-74.45
 20
40.87
 30
0.0
 10
-74.45
 20
40.87
 30
0.0
 10
-74.45
 20
40.0416
 30
0.0
 10
-75.1216
 20
39.37
 30
0.0
 10
-75.95
 20
39.37
 30
0.0
  0
SPLINE
  5
65
330
1F
100
AcDbEntity
  8
Layer 1
370
     0
100
AcDbSpline
210
0.0
220
0.0
230
1.0
 70
    11
 71
     3
 72
    20
 73
    16
 74
     0
 42
0.0000000001
 43
0.0000000001
 12
1.0
 22
0.0
 32
0.0
 13
1.0
 23
0.0
 33
0.0
 40
0.0
 40
0.0
 40
0.0
 40
0.0
 40
0.2
 40
0.2
 40
0.2
 40
0.2
 40
0.4
 40
0.4
 40
0.4
 40
0.4
 40
0.6
 40
0.6
 40
0.6
 40
0.6
 40
1.0
 40
1.0
 40
1.0
 40
1.0
 10
45.32
 20
87.63
 30
0.0
 10
44.4916
 20
87.63
 30
0.0
 10
43.82
 20
88.3016
 30
0.0
 10
43.82
 20
89.13
 30
0.0
 10
43.82
 20
89.13
 30
0.0
 10
43.82
 20
89.9584
 30
0.0
 10
44.4916
 20
90.63
 30
0.0
 10
45.32
 20
90.63
 30
0.0
 10
45.32
 20
90.63
 30
0.0
 10
46.1484
 20
90.63
 30
0.0
 10
46.82
 20
89.9584
 30
0.0
 10
46.82
 20
89.13
 30
0.0
 10
46.82
 20
89.13
 30
0.0
 10
46.82
 20
88.3016
 30
0.0
 10
46.1484
 20
87.63
 30
0.0
 10
45.32
 20
87.63
 30
0.0
  0
SPLINE
  5
66
330
1F
100
AcDbEntity
  8
Layer 1
370
     0
100
AcDbSpline
210
0.0
220
0.0
230
1.0
 70
    11
 71
     3
 72
    20
 73
    16
 74
     0
 42
0.0000000001
 43
0.0000000001
 12
1.0
 22
0.0
 32
0.0
 13
1.0
 23
0.0
 33
0.0
 40
0.0
 40
0.0
 40
0.0
 40
0.0
 40
0.2
 40
0.2
 40
0.2
 40
0.2
 40
0.4
 40
0.4
 40
0.4
 40
0.4
 40
0.6
 40
0.6
 40
0.6
 40
0.6
 40
1.0
 40
1.0
 40
1.0
 40
1.0
 10
-6.75
 20
82.55
 30
0.0
 10
-7.5784
 20
82.55
 30
0.0
 10
-8.25
 20
83.2216
 30
0.0
 10
-8.25
 20
84.05
 30
0.0
 10
-8.25
 20
84.05
 30
0.0
 10
-8.25
 20
84.8784
 30
0.0
 10
-7.5784
 20
85.55
 30
0.0
 10
-6.75
 20
85.55
 30
0.0
 10
-6.75
 20
85.55
 30
0.0
 10
-5.9216
 20
85.55
 30
0.0
 10
-5.25
 20
84.8784
 30
0.0
 10
-5.25
 20
84.05
 30
0.0
 10
-5.25
 20
84.05
 30
0.0
 10
-5.25
 20
83.2216
 30
0.0
 10
-5.9216
 20
82.55
 30
0.0
 10
-6.75
 20
82.55
 30
0.0
  0
SPLINE
  5
67
330
1F
100
AcDbEntity
  8
Layer 1
370
     0
100
AcDbSpline
210
0.0
220
0.0
230
1.0
 70
    11
 71
     3
 72
    20
 73
    16
 74
     0
 42
0.0000000001
 43
0.0000000001
 12
1.0
 22
0.0
 32
0.0
 13
1.0
 23
0.0
 33
0.0
 40
0.0
 40
0.0
 40
0.0
 40
0.0
 40
0.2
 40
0.2
 40
0.2
 40
0.2
 40
0.4
 40
0.4
 40
0.4
 40
0.4
 40
0.6
 40
0.6
 40
0.6
 40
0.6
 40
1.0
 40
1.0
 40
1.0
 40
1.0
 10
-6.75
 20
54.61
 30
0.0
 10
-7.5784
 20
54.61
 30
0.0
 10
-8.25
 20
55.2816
 30
0.0
 10
-8.25
 20
56.11
 30
0.0
 10
-8.25
 20
56.11
 30
0.0
 10
-8.25
 20
56.9384
 30
0.0
 10
-7.5784
 20
57.61
 30
0.0
 10
-6.75
 20
57.61
 30
0.0
 10
-6.75
 20
57.61
 30
0.0
 10
-5.9216
 20
57.61
 30
0.0
 10
-5.25
 20
56.9384
 30
0.0
 10
-5.25
 20
56.11
 30
0.0
 10
-5.25
 20
56.11
 30
0.0
 10
-5.25
 20
55.2816
 30
0.0
 10
-5.9216
 20
54.61
 30
0.0
 10
-6.75
 20
54.61
 30
0.0
  0
SPLINE
  5
68
330
1F
100
AcDbEntity
  8
Layer 1
370
     0
100
AcDbSpline
210
0.0
220
0.0
230
1.0
 70
    11
 71
     3
 72
    20
 73
    16
 74
     0
 42
0.0000000001
 43
0.0000000001
 12
1.0
 22
0.0
 32
0.0
 13
1.0
 23
0.0
 33
0.0
 40
0.0
 40
0.0
 40
0.0
 40
0.0
 40
0.2
 40
0.2
 40
0.2
 40
0.2
 40
0.4
 40
0.4
 40
0.4
 40
0.4
 40
0.6
 40
0.6
 40
0.6
 40
0.6
 40
1.0
 40
1.0
 40
1.0
 40
1.0
 10
44.05
 20
39.37
 30
0.0
 10
43.2216
 20
39.37
 30
0.0
 10
42.55
 20
40.0416
 30
0.0
 10
42.55
 20
40.87
 30
0.0
 10
42.55
 20
40.87
 30
0.0
 10
42.55
 20
41.6984
 30
0.0
 10
43.2216
 20
42.37
 30
0.0
 10
44.05
 20
42.37
 30
0.0
 10
44.05
 20
42.37
 30
0.0
 10
44.8784
 20
42.37
 30
0.0
 10
45.55
 20
41.6984
 30
0.0
 10
45.55
 20
40.87
 30
0.0
 10
45.55
 20
40.87
 30
0.0
 10
45.55
 20
40.0416
 30
0.0
 10
44.8784
 20
39.37
 30
0.0
 10
44.05
 20
39.37
 30
0.0
  0
SPLINE
  5
69
330
1F
100
AcDbEntity
  8
Layer 1
370
     0
100
AcDbSpline
210
0.0
220
0.0
230
1.0
 70
    11
 71
     3
 72
    20
 73
    16
 74
     0
 42
0.0000000001
 43
0.0000000001
 12
1.0
 22
0.0
 32
0.0
 13
1.0
 23
0.0
 33
0.0
 40
0.0
 40
0.0
 40
0.0
 40
0.0
 40
0.2
 40
0.2
 40
0.2
 40
0.2
 40
0.4
 40
0.4
 40
0.4
 40
0.4
 40
0.6
 40
0.6
 40
0.6
 40
0.6
 40
1.0
 40
1.0
 40
1.0
 40
1.0
 10
-117.63
 20
85.32
 30
0.0
 10
-117.63
 20
84.4916
 30
0.0
 10
-118.3016
 20
83.82
 30
0.0
 10
-119.13
 20
83.82
 30
0.0
 10
-119.13
 20
83.82
 30
0.0
 10
-119.9584
 20
83.82
 30
0.0
 10
-120.63
 20
84.4916
 30
0.0
 10
-120.63
 20
85.32
 30
0.0
 10
-120.63
 20
85.32
 30
0.0
 10
-120.63
 20
86.1484
 30
0.0
 10
-119.9584
 20
86.82
 30
0.0
 10
-119.13
 20
86.82
 30
0.0
 10
-119.13
 20
86.82
 30
0.0
 10
-118.3016
 20
86.82
 30
0.0
 10
-117.63
 20
86.1484
 30
0.0
 10
-117.63
 20
85.32
 30
0.0
  0
SPLINE
  5
6A
330
1F
100
AcDbEntity
  8
Layer 1
370
     0
100
AcDbSpline
210
0.0
220
0.0
230
1.0
 70
    11
 71
     3
 72
    20
 73
    16
 74
     0
 42
0.0000000001
 43
0.0000000001
 12
1.0
 22
0.0
 32
0.0
 13
1.0
 23
0.0
 33
0.0
 40
0.0
 40
0.0
 40
0.0
 40
0.0
 40
0.2
 40
0.2
 40
0.2
 40
0.2
 40
0.4
 40
0.4
 40
0.4
 40
0.4
 40
0.6
 40
0.6
 40
0.6
 40
0.6
 40
1.0
 40
1.0
 40
1.0
 40
1.0
 10
-112.55
 20
33.25
 30
0.0
 10
-112.55
 20
32.4216
 30
0.0
 10
-113.2216
 20
31.75
 30
0.0
 10
-114.05
 20
31.75
 30
0.0
 10
-114.05
 20
31.75
 30
0.0
 10
-114.8784
 20
31.75
 30
0.0
 10
-115.55
 20
32.4216
 30
0.0
 10
-115.55
 20
33.25
 30
0.0
 10
-115.55
 20
33.25
 30
0.0
 10
-115.55
 20
34.0784
 30
0.0
 10
-114.8784
 20
34.75
 30
0.0
 10
-114.05
 20
34.75
 30
0.0
 10
-114.05
 20
34.75
 30
0.0
 10
-113.2216
 20
34.75
 30
0.0
 10
-112.55
 20
34.0784
 30
0.0
 10
-112.55
 20
33.25
 30
0.0
  0
SPLINE
  5
6B
330
1F
100
AcDbEntity
  8
Layer 1
370
     0
100
AcDbSpline
210
0.0
220
0.0
230
1.0
 70
    11
 71
     3
 72
    20
 73
    16
 74
     0
 42
0.0000000001
 43
0.0000000001
 12
1.0
 22
0.0
 32
0.0
 13
1.0
 23
0.0
 33
0.0
 40
0.0
 40
0.0
 40
0.0
 40
0.0
 40
0.2
 40
0.2
 40
0.2
 40
0.2
 40
0.4
 40
0.4
 40
0.4
 40
0.4
 40
0.6
 40
0.6
 40
0.6
 40
0.6
 40
1.0
 40
1.0
 40
1.0
 40
1.0
 10
-84.61
 20
33.25
 30
0.0
 10
-84.61
 20
32.4216
 30
0.0
 10
-85.2816
 20
31.75
 30
0.0
 10
-86.11
 20
31.75
 30
0.0
 10
-86.11
 20
31.75
 30
0.0
 10
-86.9384
 20
31.75
 30
0.0
 10
-87.61
 20
32.4216
 30
0.0
 10
-87.61
 20
33.25
 30
0.0
 10
-87.61
 20
33.25
 30
0.0
 10
-87.61
 20
34.0784
 30
0.0
 10
-86.9384
 20
34.75
 30
0.0
 10
-86.11
 20
34.75
 30
0.0
 10
-86.11
 20
34.75
 30
0.0
 10
-85.2816
 20
34.75
 30
0.0
 10
-84.61
 20
34.0784
 30
0.0
 10
-84.61
 20
33.25
 30
0.0
  0
SPLINE
  5
6C
330
1F
100
AcDbEntity
  8
Layer 1
370
     0
100
AcDbSpline
210
0.0
220
0.0
230
1.0
 70
    11
 71
     3
 72
    20
 73
    16
 74
     0
 42
0.0000000001
 43
0.0000000001
 12
1.0
 22
0.0
 32
0.0
 13
1.0
 23
0.0
 33
0.0
 40
0.0
 40
0.0
 40
0.0
 40
0.0
 40
0.2
 40
0.2
 40
0.2
 40
0.2
 40
0.4
 40
0.4
 40
0.4
 40
0.4
 40
0.6
 40
0.6
 40
0.6
 40
0.6
 40
1.0
 40
1.0
 40
1.0
 40
1.0
 10
-69.37
 20
84.05
 30
0.0
 10
-69.37
 20
83.2216
 30
0.0
 10
-70.0416
 20
82.55
 30
0.0
 10
-70.87
 20
82.55
 30
0.0
 10
-70.87
 20
82.55
 30
0.0
 10
-71.6984
 20
82.55
 30
0.0
 10
-72.37
 20
83.2216
 30
0.0
 10
-72.37
 20
84.05
 30
0.0
 10
-72.37
 20
84.05
 30
0.0
 10
-72.37
 20
84.8784
 30
0.0
 10
-71.6984
 20
85.55
 30
0.0
 10
-70.87
 20
85.55
 30
0.0
 10
-70.87
 20
85.55
 30
0.0
 10
-70.0416
 20
85.55
 30
0.0
 10
-69.37
 20
84.8784
 30
0.0
 10
-69.37
 20
84.05
 30
0.0
  0
SPLINE
  5
6D
330
1F
100
AcDbEntity
  8
Layer 1
370
     0
100
AcDbSpline
210
0.0
220
0.0
230
1.0
 70
    11
 71
     3
 72
    20
 73
    16
 74
     0
 42
0.0000000001
 43
0.0000000001
 12
1.0
 22
0.0
 32
0.0
 13
1.0
 23
0.0
 33
0.0
 40
0.0
 40
0.0
 40
0.0
 40
0.0
 40
0.2
 40
0.2
 40
0.2
 40
0.2
 40
0.4
 40
0.4
 40
0.4
 40
0.4
 40
0.6
 40
0.6
 40
0.6
 40
0.6
 40
1.0
 40
1.0
 40
1.0
 40
1.0
 10
2.37
 20
85.32
 30
0.0
 10
2.37
 20
84.4916
 30
0.0
 10
1.6984
 20
83.82
 30
0.0
 10
0.87
 20
83.82
 30
0.0
 10
0.87
 20
83.82
 30
0.0
 10
0.0416
 20
83.82
 30
0.0
 10
-0.63
 20
84.4916
 30
0.0
 10
-0.63
 20
85.32
 30
0.0
 10
-0.63
 20
85.32
 30
0.0
 10
-0.63
 20
86.1484
 30
0.0
 10
0.0416
 20
86.82
 30
0.0
 10
0.87
 20
86.82
 30
0.0
 10
0.87
 20
86.82
 30
0.0
 10
1.6984
 20
86.82
 30
0.0
 10
2.37
 20
86.1484
 30
0.0
 10
2.37
 20
85.32
 30
0.0
  0
SPLINE
  5
6E
330
1F
100
AcDbEntity
  8
Layer 1
370
     0
100
AcDbSpline
210
0.0
220
0.0
230
1.0
 70
    11
 71
     3
 72
    20
 73
    16
 74
     0
 42
0.0000000001
 43
0.0000000001
 12
1.0
 22
0.0
 32
0.0
 13
1.0
 23
0.0
 33
0.0
 40
0.0
 40
0.0
 40
0.0
 40
0.0
 40
0.2
 40
0.2
 40
0.2
 40
0.2
 40
0.4
 40
0.4
 40
0.4
 40
0.4
 40
0.6
 40
0.6
 40
0.6
 40
0.6
 40
1.0
 40
1.0
 40
1.0
 40
1.0
 10
7.45
 20
33.25
 30
0.0
 10
7.45
 20
32.4216
 30
0.0
 10
6.7784
 20
31.75
 30
0.0
 10
5.95
 20
31.75
 30
0.0
 10
5.95
 20
31.75
 30
0.0
 10
5.1216
 20
31.75
 30
0.0
 10
4.45
 20
32.4216
 30
0.0
 10
4.45
 20
33.25
 30
0.0
 10
4.45
 20
33.25
 30
0.0
 10
4.45
 20
34.0784
 30
0.0
 10
5.1216
 20
34.75
 30
0.0
 10
5.95
 20
34.75
 30
0.0
 10
5.95
 20
34.75
 30
0.0
 10
6.7784
 20
34.75
 30
0.0
 10
7.45
 20
34.0784
 30
0.0
 10
7.45
 20
33.25
 30
0.0
  0
SPLINE
  5
6F
330
1F
100
AcDbEntity
  8
Layer 1
370
     0
100
AcDbSpline
210
0.0
220
0.0
230
1.0
 70
    11
 71
     3
 72
    20
 73
    16
 74
     0
 42
0.0000000001
 43
0.0000000001
 12
1.0
 22
0.0
 32
0.0
 13
1.0
 23
0.0
 33
0.0
 40
0.0
 40
0.0
 40
0.0
 40
0.0
 40
0.2
 40
0.2
 40
0.2
 40
0.2
 40
0.4
 40
0.4
 40
0.4
 40
0.4
 40
0.6
 40
0.6
 40
0.6
 40
0.6
 40
1.0
 40
1.0
 40
1.0
 40
1.0
 10
35.39
 20
33.25
 30
0.0
 10
35.39
 20
32.4216
 30
0.0
 10
34.7184
 20
31.75
 30
0.0
 10
33.89
 20
31.75
 30
0.0
 10
33.89
 20
31.75
 30
0.0
 10
33.0616
 20
31.75
 30
0.0
 10
32.39
 20
32.4216
 30
0.0
 10
32.39
 20
33.25
 30
0.0
 10
32.39
 20
33.25
 30
0.0
 10
32.39
 20
34.0784
 30
0.0
 10
33.0616
 20
34.75
 30
0.0
 10
33.89
 20
34.75
 30
0.0
 10
33.89
 20
34.75
 30
0.0
 10
34.7184
 20
34.75
 30
0.0
 10
35.39
 20
34.0784
 30
0.0
 10
35.39
 20
33.25
 30
0.0
  0
SPLINE
  5
70
330
1F
100
AcDbEntity
  8
Layer 1
370
     0
100
AcDbSpline
210
0.0
220
0.0
230
1.0
 70
    11
 71
     3
 72
    20
 73
    16
 74
     0
 42
0.0000000001
 43
0.0000000001
 12
1.0
 22
0.0
 32
0.0
 13
1.0
 23
0.0
 33
0.0
 40
0.0
 40
0.0
 40
0.0
 40
0.0
 40
0.2
 40
0.2
 40
0.2
 40
0.2
 40
0.4
 40
0.4
 40
0.4
 40
0.4
 40
0.6
 40
0.6
 40
0.6
 40
0.6
 40
1.0
 40
1.0
 40
1.0
 40
1.0
 10
50.63
 20
84.05
 30
0.0
 10
50.63
 20
83.2216
 30
0.0
 10
49.9584
 20
82.55
 30
0.0
 10
49.13
 20
82.55
 30
0.0
 10
49.13
 20
82.55
 30
0.0
 10
48.3016
 20
82.55
 30
0.0
 10
47.63
 20
83.2216
 30
0.0
 10
47.63
 20
84.05
 30
0.0
 10
47.63
 20
84.05
 30
0.0
 10
47.63
 20
84.8784
 30
0.0
 10
48.3016
 20
85.55
 30
0.0
 10
49.13
 20
85.55
 30
0.0
 10
49.13
 20
85.55
 30
0.0
 10
49.9584
 20
85.55
 30
0.0
 10
50.63
 20
84.8784
 30
0.0
 10
50.63
 20
84.05
 30
0.0
  0
SPLINE
  5
71
330
1F
100
AcDbEntity
  8
Layer 1
370
     0
100
AcDbSpline
210
0.0
220
0.0
230
1.0
 70
    11
 71
     3
 72
    36
 73
    32
 74
     0
 42
0.0000000001
 43
0.0000000001
 12
1.0
 22
0.0
 32
0.0
 13
1.0
 23
0.0
 33
0.0
 40
0.0
 40
0.0
 40
0.0
 40
0.0
 40
0.1111111111111111
 40
0.1111111111111111
 40
0.1111111111111111
 40
0.1111111111111111
 40
0.2222222222222222
 40
0.2222222222222222
 40
0.2222222222222222
 40
0.2222222222222222
 40
0.3333333333333333
 40
0.3333333333333333
 40
0.3333333333333333
 40
0.3333333333333333
 40
0.4444444444444444
 40
0.4444444444444444
 40
0.4444444444444444
 40
0.4444444444444444
 40
0.5555555555555556
 40
0.5555555555555556
 40
0.5555555555555556
 40
0.5555555555555556
 40
0.6666666666666666
 40
0.6666666666666666
 40
0.6666666666666666
 40
0.6666666666666666
 40
0.7777777777777778
 40
0.7777777777777778
 40
0.7777777777777778
 40
0.7777777777777778
 40
1.0
 40
1.0
 40
1.0
 40
1.0
 10
-35.0
 20
85.0
 30
0.0
 10
-35.0
 20
85.0
 30
0.0
 10
-34.9999
 20
85.0
 30
0.0
 10
-34.9999
 20
85.0
 30
0.0
 10
-34.9999
 20
85.0
 30
0.0
 10
-29.4998
 20
85.0
 30
0.0
 10
-25.0
 20
80.5001
 30
0.0
 10
-25.0
 20
75.0001
 30
0.0
 10
-25.0
 20
75.0001
 30
0.0
 10
-25.0
 20
75.0001
 30
0.0
 10
-25.0
 20
49.9999
 30
0.0
 10
-25.0
 20
49.9999
 30
0.0
 10
-25.0
 20
49.9999
 30
0.0
 10
-25.0
 20
44.4999
 30
0.0
 10
-29.4998
 20
40.0
 30
0.0
 10
-34.9999
 20
40.0
 30
0.0
 10
-34.9999
 20
40.0
 30
0.0
 10
-34.9999
 20
40.0
 30
0.0
 10
-35.0
 20
40.0
 30
0.0
 10
-35.0
 20
40.0
 30
0.0
 10
-35.0
 20
40.0
 30
0.0
 10
-40.5001
 20
40.0
 30
0.0
 10
-45.0
 20
44.4999
 30
0.0
 10
-45.0
 20
49.9999
 30
0.0
 10
-45.0
 20
49.9999
 30
0.0
 10
-45.0
 20
49.9999
 30
0.0
 10
-45.0
 20
75.0001
 30
0.0
 10
-45.0
 20
75.0001
 30
0.0
 10
-45.0
 20
75.0001
 30
0.0
 10
-45.0
 20
80.5001
 30
0.0
 10
-40.5001
 20
85.0
 30
0.0
 10
-35.0
 20
85.0
 30
0.0
  0
ELLIPSE
  5
72
330
1F
100
AcDbEntity
  8
Layer 1
370
     0
100
AcDbEllipse
 10
-187.5
 20
135.0
 30
0.0
 11
0.0
 21
1.5
 31
0.0
210
0.0
220
0.0
230
1.0
 40
1.0
 41
0.0
 42
6.283185307179586
  0
ELLIPSE
  5
73
330
1F
100
AcDbEntity
  8
Layer 1
370
     0
100
AcDbEllipse
 10
117.5
 20
135.0
 30
0.0
 11
0.0
 21
1.5
 31
0.0
210
0.0
220
0.0
230
1.0
 40
1.0
 41
0.0
 42
6.283185307179586
  0
ELLIPSE
  5
74
330
1F
100
AcDbEntity
  8
Layer 1
370
     0
100
AcDbEllipse
 10
-187.5
 20
115.0
 30
0.0
 11
0.0
 21
1.5
 31
0.0
210
0.0
220
0.0
230
1.0
 40
1.0
 41
0.0
 42
6.283185307179586
  0
ELLIPSE
  5
75
330
1F
100
AcDbEntity
  8
Layer 1
370
     0
100
AcDbEllipse
 10
117.5
 20
115.0
 30
0.0
 11
0.0
 21
1.5
 31
0.0
210
0.0
220
0.0
230
1.0
 40
1.0
 41
0.0
 42
6.283185307179586
  0
ELLIPSE
  5
76
330
1F
100
AcDbEntity
  8
Layer 1
370
     0
100
AcDbEllipse
 10
-187.5
 20
95.0
 30
0.0
 11
0.0
 21
1.5
 31
0.0
210
0.0
220
0.0
230
1.0
 40
1.0
 41
0.0
 42
6.283185307179586
  0
ELLIPSE
  5
77
330
1F
100
AcDbEntity
  8
Layer 1
370
     0
100
AcDbEllipse
 10
117.5
 20
95.0
 30
0.0
 11
0.0
 21
1.5
 31
0.0
210
0.0
220
0.0
230
1.0
 40
1.0
 41
0.0
 42
6.283185307179586
  0
ELLIPSE
  5
78
330
1F
100
AcDbEntity
  8
Layer 1
370
     0
100
AcDbEllipse
 10
-187.5
 20
75.0
 30
0.0
 11
0.0
 21
1.5
 31
0.0
210
0.0
220
0.0
230
1.0
 40
1.0
 41
0.0
 42
6.283185307179586
  0
ELLIPSE
  5
79
330
1F
100
AcDbEntity
  8
Layer 1
370
     0
100
AcDbEllipse
 10
117.5
 20
75.0
 30
0.0
 11
0.0
 21
1.5
 31
0.0
210
0.0
220
0.0
230
1.0
 40
1.0
 41
0.0
 42
6.283185307179586
  0
ELLIPSE
  5
7A
330
1F
100
AcDbEntity
  8
Layer 1
370
     0
100
AcDbEllipse
 10
-187.5
 20
55.0
 30
0.0
 11
0.0
 21
1.5
 31
0.0
210
0.0
220
0.0
230
1.0
 40
1.0
 41
0.0
 42
6.283185307179586
  0
ELLIPSE
  5
7B
330
1F
100
AcDbEntity
  8
Layer 1
370
     0
100
AcDbEllipse
 10
117.5
 20
55.0
 30
0.0
 11
0.0
 21
1.5
 31
0.0
210
0.0
220
0.0
230
1.0
 40
1.0
 41
0.0
 42
6.283185307179586
  0
ELLIPSE
  5
7C
330
1F
100
AcDbEntity
  8
Layer 1
370
     0
100
AcDbEllipse
 10
-187.5
 20
35.0
 30
0.0
 11
0.0
 21
1.5
 31
0.0
210
0.0
220
0.0
230
1.0
 40
1.0
 41
0.0
 42
6.283185307179586
  0
ELLIPSE
  5
7D
330
1F
100
AcDbEntity
  8
Layer 1
370
     0
100
AcDbEllipse
 10
117.5
 20
35.0
 30
0.0
 11
0.0
 21
1.5
 31
0.0
210
0.0
220
0.0
230
1.0
 40
1.0
 41
0.0
 42
6.283185307179586
  0
ELLIPSE
  5
7E
330
1F
100
AcDbEntity
  8
Layer 1
370
     0
100
AcDbEllipse
 10
-187.5
 20
15.0
 30
0.0
 11
0.0
 21
1.5
 31
0.0
210
0.0
220
0.0
230
1.0
 40
1.0
 41
0.0
 42
6.283185307179586
  0
ELLIPSE
  5
7F
330
1F
100
AcDbEntity
  8
Layer 1
370
     0
100
AcDbEllipse
 10
117.5
 20
15.0
 30
0.0
 11
0.0
 21
1.5
 31
0.0
210
0.0
220
0.0
230
1.0
 40
1.0
 41
0.0
 42
6.283185307179586
  0
ELLIPSE
  5
80
330
1F
100
AcDbEntity
  8
Layer 1
370
     0
100
AcDbEllipse
 10
-187.5
 20
-5.0
 30
0.0
 11
0.0
 21
1.5
 31
0.0
210
0.0
220
0.0
230
1.0
 40
1.0
 41
0.0
 42
6.283185307179586
  0
ELLIPSE
  5
81
330
1F
100
AcDbEntity
  8
Layer 1
370
     0
100
AcDbEllipse
 10
117.5
 20
-5.0
 30
0.0
 11
0.0
 21
1.5
 31
0.0
210
0.0
220
0.0
230
1.0
 40
1.0
 41
0.0
 42
6.283185307179586
  0
SPLINE
  5
82
330
1F
100
AcDbEntity
  8
Layer 1
370
     0
100
AcDbSpline
210
0.0
220
0.0
230
1.0
 70
    11
 71
     3
 72
   172
 73
   168
 74
     0
 42
0.0000000001
 43
0.0000000001
 12
1.0
 22
0.0
 32
0.0
 13
1.0
 23
0.0
 33
0.0
 40
0.0
 40
0.0
 40
0.0
 40
0.0
 40
0.0232558139534884
 40
0.0232558139534884
 40
0.0232558139534884
 40
0.0232558139534884
 40
0.0465116279069767
 40
0.0465116279069767
 40
0.0465116279069767
 40
0.0465116279069767
 40
0.0697674418604651
 40
0.0697674418604651
 40
0.0697674418604651
 40
0.0697674418604651
 40
0.0930232558139535
 40
0.0930232558139535
 40
0.0930232558139535
 40
0.0930232558139535
 40
0.1162790697674419
 40
0.1162790697674419
 40
0.1162790697674419
 40
0.1162790697674419
 40
0.1395348837209302
 40
0.1395348837209302
 40
0.1395348837209302
 40
0.1395348837209302
 40
0.1627906976744186
 40
0.1627906976744186
 40
0.1627906976744186
 40
0.1627906976744186
 40
0.186046511627907
 40
0.186046511627907
 40
0.186046511627907
 40
0.186046511627907
 40
0.2093023255813954
 40
0.2093023255813954
 40
0.2093023255813954
 40
0.2093023255813954
 40
0.2325581395348837
 40
0.2325581395348837
 40
0.2325581395348837
 40
0.2325581395348837
 40
0.2558139534883721
 40
0.2558139534883721
 40
0.2558139534883721
 40
0.2558139534883721
 40
0.2790697674418605
 40
0.2790697674418605
 40
0.2790697674418605
 40
0.2790697674418605
 40
0.3023255813953488
 40
0.3023255813953488
 40
0.3023255813953488
 40
0.3023255813953488
 40
0.3255813953488372
 40
0.3255813953488372
 40
0.3255813953488372
 40
0.3255813953488372
 40
0.3488372093023256
 40
0.3488372093023256
 40
0.3488372093023256
 40
0.3488372093023256
 40
0.3720930232558139
 40
0.3720930232558139
 40
0.3720930232558139
 40
0.3720930232558139
 40
0.3953488372093023
 40
0.3953488372093023
 40
0.3953488372093023
 40
0.3953488372093023
 40
0.4186046511627907
 40
0.4186046511627907
 40
0.4186046511627907
 40
0.4186046511627907
 40
0.4418604651162791
 40
0.4418604651162791
 40
0.4418604651162791
 40
0.4418604651162791
 40
0.4651162790697674
 40
0.4651162790697674
 40
0.4651162790697674
 40
0.4651162790697674
 40
0.4883720930232558
 40
0.4883720930232558
 40
0.4883720930232558
 40
0.4883720930232558
 40
0.5116279069767442
 40
0.5116279069767442
 40
0.5116279069767442
 40
0.5116279069767442
 40
0.5348837209302325
 40
0.5348837209302325
 40
0.5348837209302325
 40
0.5348837209302325
 40
0.5581395348837209
 40
0.5581395348837209
 40
0.5581395348837209
 40
0.5581395348837209
 40
0.5813953488372093
 40
0.5813953488372093
 40
0.5813953488372093
 40
0.5813953488372093
 40
0.6046511627906976
 40
0.6046511627906976
 40
0.6046511627906976
 40
0.6046511627906976
 40
0.627906976744186
 40
0.627906976744186
 40
0.627906976744186
 40
0.627906976744186
 40
0.6511627906976745
 40
0.6511627906976745
 40
0.6511627906976745
 40
0.6511627906976745
 40
0.6744186046511628
 40
0.6744186046511628
 40
0.6744186046511628
 40
0.6744186046511628
 40
0.6976744186046512
 40
0.6976744186046512
 40
0.6976744186046512
 40
0.6976744186046512
 40
0.7209302325581395
 40
0.7209302325581395
 40
0.7209302325581395
 40
0.7209302325581395
 40
0.7441860465116279
 40
0.7441860465116279
 40
0.7441860465116279
 40
0.7441860465116279
 40
0.7674418604651163
 40
0.7674418604651163
 40
0.7674418604651163
 40
0.7674418604651163
 40
0.7906976744186046
 40
0.7906976744186046
 40
0.7906976744186046
 40
0.7906976744186046
 40
0.813953488372093
 40
0.813953488372093
 40
0.813953488372093
 40
0.813953488372093
 40
0.8372093023255814
 40
0.8372093023255814
 40
0.8372093023255814
 40
0.8372093023255814
 40
0.8604651162790697
 40
0.8604651162790697
 40
0.8604651162790697
 40
0.8604651162790697
 40
0.8837209302325582
 40
0.8837209302325582
 40
0.8837209302325582
 40
0.8837209302325582
 40
0.9069767441860465
 40
0.9069767441860465
 40
0.9069767441860465
 40
0.9069767441860465
 40
0.9302325581395349
 40
0.9302325581395349
 40
0.9302325581395349
 40
0.9302325581395349
 40
0.9534883720930233
 40
0.9534883720930233
 40
0.9534883720930233
 40
0.9534883720930233
 40
1.0
 40
1.0
 40
1.0
 40
1.0
 10
145.0
 20
145.0
 30
0.0
 10
145.0
 20
145.0
 30
0.0
 10
156.25
 20
145.0
 30
0.0
 10
156.25
 20
145.0
 30
0.0
 10
156.25
 20
145.0
 30
0.0
 10
158.3125
 20
145.0
 30
0.0
 10
160.0
 20
143.3125
 30
0.0
 10
160.0
 20
141.2499
 30
0.0
 10
160.0
 20
141.2499
 30
0.0
 10
160.0
 20
141.2499
 30
0.0
 10
160.0
 20
109.9937
 30
0.0
 10
160.0
 20
109.9937
 30
0.0
 10
160.0
 20
109.9937
 30
0.0
 10
159.9172
 20
109.9978
 30
0.0
 10
159.8338
 20
110.0
 30
0.0
 10
159.75
 20
110.0
 30
0.0
 10
159.75
 20
110.0
 30
0.0
 10
159.75
 20
110.0
 30
0.0
 10
157.75
 20
110.0
 30
0.0
 10
157.75
 20
110.0
 30
0.0
 10
157.75
 20
110.0
 30
0.0
 10
155.0
 20
110.0
 30
0.0
 10
152.75
 20
107.75
 30
0.0
 10
152.75
 20
105.0
 30
0.0
 10
152.75
 20
105.0
 30
0.0
 10
152.75
 20
105.0
 30
0.0
 10
152.75
 20
105.0
 30
0.0
 10
152.75
 20
105.0
 30
0.0
 10
152.75
 20
105.0
 30
0.0
 10
152.75
 20
102.25
 30
0.0
 10
155.0
 20
100.0
 30
0.0
 10
157.75
 20
100.0
 30
0.0
 10
157.75
 20
100.0
 30
0.0
 10
157.75
 20
100.0
 30
0.0
 10
159.75
 20
100.0
 30
0.0
 10
159.75
 20
100.0
 30
0.0
 10
159.75
 20
100.0
 30
0.0
 10
159.8338
 20
100.0
 30
0.0
 10
159.9172
 20
100.0022
 30
0.0
 10
160.0
 20
100.0063
 30
0.0
 10
160.0
 20
100.0063
 30
0.0
 10
160.0
 20
100.0063
 30
0.0
 10
160.0
 20
29.9937
 30
0.0
 10
160.0
 20
29.9937
 30
0.0
 10
160.0
 20
29.9937
 30
0.0
 10
159.9172
 20
29.9978
 30
0.0
 10
159.8338
 20
30.0
 30
0.0
 10
159.75
 20
30.0
 30
0.0
 10
159.75
 20
30.0
 30
0.0
 10
159.75
 20
30.0
 30
0.0
 10
157.75
 20
30.0
 30
0.0
 10
157.75
 20
30.0
 30
0.0
 10
157.75
 20
30.0
 30
0.0
 10
155.0
 20
30.0
 30
0.0
 10
152.75
 20
27.75
 30
0.0
 10
152.75
 20
25.0
 30
0.0
 10
152.75
 20
25.0
 30
0.0
 10
152.75
 20
25.0
 30
0.0
 10
152.75
 20
25.0
 30
0.0
 10
152.75
 20
25.0
 30
0.0
 10
152.75
 20
25.0
 30
0.0
 10
152.75
 20
22.25
 30
0.0
 10
155.0
 20
20.0
 30
0.0
 10
157.75
 20
20.0
 30
0.0
 10
157.75
 20
20.0
 30
0.0
 10
157.75
 20
20.0
 30
0.0
 10
159.75
 20
20.0
 30
0.0
 10
159.75
 20
20.0
 30
0.0
 10
159.75
 20
20.0
 30
0.0
 10
159.8338
 20
20.0
 30
0.0
 10
159.9172
 20
20.0022
 30
0.0
 10
160.0
 20
20.0063
 30
0.0
 10
160.0
 20
20.0063
 30
0.0
 10
160.0
 20
20.0063
 30
0.0
 10
160.0
 20
-11.2499
 30
0.0
 10
160.0
 20
-11.2499
 30
0.0
 10
160.0
 20
-11.2499
 30
0.0
 10
160.0
 20
-13.3125
 30
0.0
 10
158.3125
 20
-15.0
 30
0.0
 10
156.25
 20
-15.0
 30
0.0
 10
156.25
 20
-15.0
 30
0.0
 10
156.25
 20
-15.0
 30
0.0
 10
145.0
 20
-15.0
 30
0.0
 10
145.0
 20
-15.0
 30
0.0
 10
145.0
 20
-15.0
 30
0.0
 10
145.0
 20
-15.0
 30
0.0
 10
133.75
 20
-15.0
 30
0.0
 10
133.75
 20
-15.0
 30
0.0
 10
133.75
 20
-15.0
 30
0.0
 10
131.6875
 20
-15.0
 30
0.0
 10
130.0
 20
-13.3125
 30
0.0
 10
130.0
 20
-11.2499
 30
0.0
 10
130.0
 20
-11.2499
 30
0.0
 10
130.0
 20
-11.2499
 30
0.0
 10
130.0
 20
20.0063
 30
0.0
 10
130.0
 20
20.0063
 30
0.0
 10
130.0
 20
20.0063
 30
0.0
 10
130.0828
 20
20.0022
 30
0.0
 10
130.1662
 20
20.0
 30
0.0
 10
130.25
 20
20.0
 30
0.0
 10
130.25
 20
20.0
 30
0.0
 10
130.25
 20
20.0
 30
0.0
 10
132.25
 20
20.0
 30
0.0
 10
132.25
 20
20.0
 30
0.0
 10
132.25
 20
20.0
 30
0.0
 10
135.0
 20
20.0
 30
0.0
 10
137.25
 20
22.25
 30
0.0
 10
137.25
 20
25.0
 30
0.0
 10
137.25
 20
25.0
 30
0.0
 10
137.25
 20
25.0
 30
0.0
 10
137.25
 20
25.0
 30
0.0
 10
137.25
 20
25.0
 30
0.0
 10
137.25
 20
25.0
 30
0.0
 10
137.25
 20
27.75
 30
0.0
 10
135.0
 20
30.0
 30
0.0
 10
132.25
 20
30.0
 30
0.0
 10
132.25
 20
30.0
 30
0.0
 10
132.25
 20
30.0
 30
0.0
 10
130.25
 20
30.0
 30
0.0
 10
130.25
 20
30.0
 30
0.0
 10
130.25
 20
30.0
 30
0.0
 10
130.1662
 20
30.0
 30
0.0
 10
130.0828
 20
29.9978
 30
0.0
 10
130.0
 20
29.9937
 30
0.0
 10
130.0
 20
29.9937
 30
0.0
 10
130.0
 20
29.9937
 30
0.0
 10
130.0
 20
100.0063
 30
0.0
 10
130.0
 20
100.0063
 30
0.0
 10
130.0
 20
100.0063
 30
0.0
 10
130.0828
 20
100.0022
 30
0.0
 10
130.1662
 20
100.0
 30
0.0
 10
130.25
 20
100.0
 30
0.0
 10
130.25
 20
100.0
 30
0.0
 10
130.25
 20
100.0
 30
0.0
 10
132.25
 20
100.0
 30
0.0
 10
132.25
 20
100.0
 30
0.0
 10
132.25
 20
100.0
 30
0.0
 10
135.0
 20
100.0
 30
0.0
 10
137.25
 20
102.25
 30
0.0
 10
137.25
 20
105.0
 30
0.0
 10
137.25
 20
105.0
 30
0.0
 10
137.25
 20
105.0
 30
0.0
 10
137.25
 20
105.0
 30
0.0
 10
137.25
 20
105.0
 30
0.0
 10
137.25
 20
105.0
 30
0.0
 10
137.25
 20
107.75
 30
0.0
 10
135.0
 20
110.0
 30
0.0
 10
132.25
 20
110.0
 30
0.0
 10
132.25
 20
110.0
 30
0.0
 10
132.25
 20
110.0
 30
0.0
 10
130.25
 20
110.0
 30
0.0
 10
130.25
 20
110.0
 30
0.0
 10
130.25
 20
110.0
 30
0.0
 10
130.1662
 20
110.0
 30
0.0
 10
130.0828
 20
109.9978
 30
0.0
 10
130.0
 20
109.9937
 30
0.0
 10
130.0
 20
109.9937
 30
0.0
 10
130.0
 20
109.9937
 30
0.0
 10
130.0
 20
141.2499
 30
0.0
 10
130.0
 20
141.2499
 30
0.0
 10
130.0
 20
141.2499
 30
0.0
 10
130.0
 20
143.3125
 30
0.0
 10
131.6875
 20
145.0
 30
0.0
 10
133.75
 20
145.0
 30
0.0
 10
133.75
 20
145.0
 30
0.0
 10
133.75
 20
145.0
 30
0.0
 10
145.0
 20
145.0
 30
0.0
 10
145.0
 20
145.0
 30
0.0
  0
SPLINE
  5
83
330
1F
100
AcDbEntity
  8
Layer 1
370
     0
100
AcDbSpline
210
0.0
220
0.0
230
1.0
 70
    11
 71
     3
 72
    36
 73
    32
 74
     0
 42
0.0000000001
 43
0.0000000001
 12
1.0
 22
0.0
 32
0.0
 13
1.0
 23
0.0
 33
0.0
 40
0.0
 40
0.0
 40
0.0
 40
0.0
 40
0.1111111111111111
 40
0.1111111111111111
 40
0.1111111111111111
 40
0.1111111111111111
 40
0.2222222222222222
 40
0.2222222222222222
 40
0.2222222222222222
 40
0.2222222222222222
 40
0.3333333333333333
 40
0.3333333333333333
 40
0.3333333333333333
 40
0.3333333333333333
 40
0.4444444444444444
 40
0.4444444444444444
 40
0.4444444444444444
 40
0.4444444444444444
 40
0.5555555555555556
 40
0.5555555555555556
 40
0.5555555555555556
 40
0.5555555555555556
 40
0.6666666666666666
 40
0.6666666666666666
 40
0.6666666666666666
 40
0.6666666666666666
 40
0.7777777777777778
 40
0.7777777777777778
 40
0.7777777777777778
 40
0.7777777777777778
 40
1.0
 40
1.0
 40
1.0
 40
1.0
 10
151.3999
 20
136.9
 30
0.0
 10
151.3999
 20
136.9
 30
0.0
 10
153.6001
 20
136.9
 30
0.0
 10
153.6001
 20
136.9
 30
0.0
 10
153.6001
 20
136.9
 30
0.0
 10
154.6451
 20
136.9
 30
0.0
 10
155.5
 20
136.0452
 30
0.0
 10
155.5
 20
135.0001
 30
0.0
 10
155.5
 20
135.0001
 30
0.0
 10
155.5
 20
135.0001
 30
0.0
 10
155.5
 20
134.9999
 30
0.0
 10
155.5
 20
134.9999
 30
0.0
 10
155.5
 20
134.9999
 30
0.0
 10
155.5
 20
133.9548
 30
0.0
 10
154.6451
 20
133.1
 30
0.0
 10
153.6001
 20
133.1
 30
0.0
 10
153.6001
 20
133.1
 30
0.0
 10
153.6001
 20
133.1
 30
0.0
 10
151.3999
 20
133.1
 30
0.0
 10
151.3999
 20
133.1
 30
0.0
 10
151.3999
 20
133.1
 30
0.0
 10
150.3549
 20
133.1
 30
0.0
 10
149.5
 20
133.9548
 30
0.0
 10
149.5
 20
134.9999
 30
0.0
 10
149.5
 20
134.9999
 30
0.0
 10
149.5
 20
134.9999
 30
0.0
 10
149.5
 20
135.0001
 30
0.0
 10
149.5
 20
135.0001
 30
0.0
 10
149.5
 20
135.0001
 30
0.0
 10
149.5
 20
136.0452
 30
0.0
 10
150.3549
 20
136.9
 30
0.0
 10
151.3999
 20
136.9
 30
0.0
  0
SPLINE
  5
84
330
1F
100
AcDbEntity
  8
Layer 1
370
     0
100
AcDbSpline
210
0.0
220
0.0
230
1.0
 70
    11
 71
     3
 72
    36
 73
    32
 74
     0
 42
0.0000000001
 43
0.0000000001
 12
1.0
 22
0.0
 32
0.0
 13
1.0
 23
0.0
 33
0.0
 40
0.0
 40
0.0
 40
0.0
 40
0.0
 40
0.1111111111111111
 40
0.1111111111111111
 40
0.1111111111111111
 40
0.1111111111111111
 40
0.2222222222222222
 40
0.2222222222222222
 40
0.2222222222222222
 40
0.2222222222222222
 40
0.3333333333333333
 40
0.3333333333333333
 40
0.3333333333333333
 40
0.3333333333333333
 40
0.4444444444444444
 40
0.4444444444444444
 40
0.4444444444444444
 40
0.4444444444444444
 40
0.5555555555555556
 40
0.5555555555555556
 40
0.5555555555555556
 40
0.5555555555555556
 40
0.6666666666666666
 40
0.6666666666666666
 40
0.6666666666666666
 40
0.6666666666666666
 40
0.7777777777777778
 40
0.7777777777777778
 40
0.7777777777777778
 40
0.7777777777777778
 40
1.0
 40
1.0
 40
1.0
 40
1.0
 10
151.3999
 20
116.9
 30
0.0
 10
151.3999
 20
116.9
 30
0.0
 10
153.6001
 20
116.9
 30
0.0
 10
153.6001
 20
116.9
 30
0.0
 10
153.6001
 20
116.9
 30
0.0
 10
154.6451
 20
116.9
 30
0.0
 10
155.5
 20
116.0452
 30
0.0
 10
155.5
 20
115.0001
 30
0.0
 10
155.5
 20
115.0001
 30
0.0
 10
155.5
 20
115.0001
 30
0.0
 10
155.5
 20
114.9999
 30
0.0
 10
155.5
 20
114.9999
 30
0.0
 10
155.5
 20
114.9999
 30
0.0
 10
155.5
 20
113.9548
 30
0.0
 10
154.6451
 20
113.1
 30
0.0
 10
153.6001
 20
113.1
 30
0.0
 10
153.6001
 20
113.1
 30
0.0
 10
153.6001
 20
113.1
 30
0.0
 10
151.3999
 20
113.1
 30
0.0
 10
151.3999
 20
113.1
 30
0.0
 10
151.3999
 20
113.1
 30
0.0
 10
150.3549
 20
113.1
 30
0.0
 10
149.5
 20
113.9548
 30
0.0
 10
149.5
 20
114.9999
 30
0.0
 10
149.5
 20
114.9999
 30
0.0
 10
149.5
 20
114.9999
 30
0.0
 10
149.5
 20
115.0001
 30
0.0
 10
149.5
 20
115.0001
 30
0.0
 10
149.5
 20
115.0001
 30
0.0
 10
149.5
 20
116.0452
 30
0.0
 10
150.3549
 20
116.9
 30
0.0
 10
151.3999
 20
116.9
 30
0.0
  0
SPLINE
  5
85
330
1F
100
AcDbEntity
  8
Layer 1
370
     0
100
AcDbSpline
210
0.0
220
0.0
230
1.0
 70
    11
 71
     3
 72
    36
 73
    32
 74
     0
 42
0.0000000001
 43
0.0000000001
 12
1.0
 22
0.0
 32
0.0
 13
1.0
 23
0.0
 33
0.0
 40
0.0
 40
0.0
 40
0.0
 40
0.0
 40
0.1111111111111111
 40
0.1111111111111111
 40
0.1111111111111111
 40
0.1111111111111111
 40
0.2222222222222222
 40
0.2222222222222222
 40
0.2222222222222222
 40
0.2222222222222222
 40
0.3333333333333333
 40
0.3333333333333333
 40
0.3333333333333333
 40
0.3333333333333333
 40
0.4444444444444444
 40
0.4444444444444444
 40
0.4444444444444444
 40
0.4444444444444444
 40
0.5555555555555556
 40
0.5555555555555556
 40
0.5555555555555556
 40
0.5555555555555556
 40
0.6666666666666666
 40
0.6666666666666666
 40
0.6666666666666666
 40
0.6666666666666666
 40
0.7777777777777778
 40
0.7777777777777778
 40
0.7777777777777778
 40
0.7777777777777778
 40
1.0
 40
1.0
 40
1.0
 40
1.0
 10
151.3999
 20
96.9
 30
0.0
 10
151.3999
 20
96.9
 30
0.0
 10
153.6001
 20
96.9
 30
0.0
 10
153.6001
 20
96.9
 30
0.0
 10
153.6001
 20
96.9
 30
0.0
 10
154.6451
 20
96.9
 30
0.0
 10
155.5
 20
96.0452
 30
0.0
 10
155.5
 20
95.0001
 30
0.0
 10
155.5
 20
95.0001
 30
0.0
 10
155.5
 20
95.0001
 30
0.0
 10
155.5
 20
94.9999
 30
0.0
 10
155.5
 20
94.9999
 30
0.0
 10
155.5
 20
94.9999
 30
0.0
 10
155.5
 20
93.9548
 30
0.0
 10
154.6451
 20
93.1
 30
0.0
 10
153.6001
 20
93.1
 30
0.0
 10
153.6001
 20
93.1
 30
0.0
 10
153.6001
 20
93.1
 30
0.0
 10
151.3999
 20
93.1
 30
0.0
 10
151.3999
 20
93.1
 30
0.0
 10
151.3999
 20
93.1
 30
0.0
 10
150.3549
 20
93.1
 30
0.0
 10
149.5
 20
93.9548
 30
0.0
 10
149.5
 20
94.9999
 30
0.0
 10
149.5
 20
94.9999
 30
0.0
 10
149.5
 20
94.9999
 30
0.0
 10
149.5
 20
95.0001
 30
0.0
 10
149.5
 20
95.0001
 30
0.0
 10
149.5
 20
95.0001
 30
0.0
 10
149.5
 20
96.0452
 30
0.0
 10
150.3549
 20
96.9
 30
0.0
 10
151.3999
 20
96.9
 30
0.0
  0
SPLINE
  5
86
330
1F
100
AcDbEntity
  8
Layer 1
370
     0
100
AcDbSpline
210
0.0
220
0.0
230
1.0
 70
    11
 71
     3
 72
    36
 73
    32
 74
     0
 42
0.0000000001
 43
0.0000000001
 12
1.0
 22
0.0
 32
0.0
 13
1.0
 23
0.0
 33
0.0
 40
0.0
 40
0.0
 40
0.0
 40
0.0
 40
0.1111111111111111
 40
0.1111111111111111
 40
0.1111111111111111
 40
0.1111111111111111
 40
0.2222222222222222
 40
0.2222222222222222
 40
0.2222222222222222
 40
0.2222222222222222
 40
0.3333333333333333
 40
0.3333333333333333
 40
0.3333333333333333
 40
0.3333333333333333
 40
0.4444444444444444
 40
0.4444444444444444
 40
0.4444444444444444
 40
0.4444444444444444
 40
0.5555555555555556
 40
0.5555555555555556
 40
0.5555555555555556
 40
0.5555555555555556
 40
0.6666666666666666
 40
0.6666666666666666
 40
0.6666666666666666
 40
0.6666666666666666
 40
0.7777777777777778
 40
0.7777777777777778
 40
0.7777777777777778
 40
0.7777777777777778
 40
1.0
 40
1.0
 40
1.0
 40
1.0
 10
151.3999
 20
76.9
 30
0.0
 10
151.3999
 20
76.9
 30
0.0
 10
153.6001
 20
76.9
 30
0.0
 10
153.6001
 20
76.9
 30
0.0
 10
153.6001
 20
76.9
 30
0.0
 10
154.6451
 20
76.9
 30
0.0
 10
155.5
 20
76.0452
 30
0.0
 10
155.5
 20
75.0001
 30
0.0
 10
155.5
 20
75.0001
 30
0.0
 10
155.5
 20
75.0001
 30
0.0
 10
155.5
 20
74.9999
 30
0.0
 10
155.5
 20
74.9999
 30
0.0
 10
155.5
 20
74.9999
 30
0.0
 10
155.5
 20
73.9548
 30
0.0
 10
154.6451
 20
73.1
 30
0.0
 10
153.6001
 20
73.1
 30
0.0
 10
153.6001
 20
73.1
 30
0.0
 10
153.6001
 20
73.1
 30
0.0
 10
151.3999
 20
73.1
 30
0.0
 10
151.3999
 20
73.1
 30
0.0
 10
151.3999
 20
73.1
 30
0.0
 10
150.3549
 20
73.1
 30
0.0
 10
149.5
 20
73.9548
 30
0.0
 10
149.5
 20
74.9999
 30
0.0
 10
149.5
 20
74.9999
 30
0.0
 10
149.5
 20
74.9999
 30
0.0
 10
149.5
 20
75.0001
 30
0.0
 10
149.5
 20
75.0001
 30
0.0
 10
149.5
 20
75.0001
 30
0.0
 10
149.5
 20
76.0452
 30
0.0
 10
150.3549
 20
76.9
 30
0.0
 10
151.3999
 20
76.9
 30
0.0
  0
SPLINE
  5
87
330
1F
100
AcDbEntity
  8
Layer 1
370
     0
100
AcDbSpline
210
0.0
220
0.0
230
1.0
 70
    11
 71
     3
 72
    36
 73
    32
 74
     0
 42
0.0000000001
 43
0.0000000001
 12
1.0
 22
0.0
 32
0.0
 13
1.0
 23
0.0
 33
0.0
 40
0.0
 40
0.0
 40
0.0
 40
0.0
 40
0.1111111111111111
 40
0.1111111111111111
 40
0.1111111111111111
 40
0.1111111111111111
 40
0.2222222222222222
 40
0.2222222222222222
 40
0.2222222222222222
 40
0.2222222222222222
 40
0.3333333333333333
 40
0.3333333333333333
 40
0.3333333333333333
 40
0.3333333333333333
 40
0.4444444444444444
 40
0.4444444444444444
 40
0.4444444444444444
 40
0.4444444444444444
 40
0.5555555555555556
 40
0.5555555555555556
 40
0.5555555555555556
 40
0.5555555555555556
 40
0.6666666666666666
 40
0.6666666666666666
 40
0.6666666666666666
 40
0.6666666666666666
 40
0.7777777777777778
 40
0.7777777777777778
 40
0.7777777777777778
 40
0.7777777777777778
 40
1.0
 40
1.0
 40
1.0
 40
1.0
 10
151.3999
 20
56.9
 30
0.0
 10
151.3999
 20
56.9
 30
0.0
 10
153.6001
 20
56.9
 30
0.0
 10
153.6001
 20
56.9
 30
0.0
 10
153.6001
 20
56.9
 30
0.0
 10
154.6451
 20
56.9
 30
0.0
 10
155.5
 20
56.0452
 30
0.0
 10
155.5
 20
55.0001
 30
0.0
 10
155.5
 20
55.0001
 30
0.0
 10
155.5
 20
55.0001
 30
0.0
 10
155.5
 20
54.9999
 30
0.0
 10
155.5
 20
54.9999
 30
0.0
 10
155.5
 20
54.9999
 30
0.0
 10
155.5
 20
53.9548
 30
0.0
 10
154.6451
 20
53.1
 30
0.0
 10
153.6001
 20
53.1
 30
0.0
 10
153.6001
 20
53.1
 30
0.0
 10
153.6001
 20
53.1
 30
0.0
 10
151.3999
 20
53.1
 30
0.0
 10
151.3999
 20
53.1
 30
0.0
 10
151.3999
 20
53.1
 30
0.0
 10
150.3549
 20
53.1
 30
0.0
 10
149.5
 20
53.9548
 30
0.0
 10
149.5
 20
54.9999
 30
0.0
 10
149.5
 20
54.9999
 30
0.0
 10
149.5
 20
54.9999
 30
0.0
 10
149.5
 20
55.0001
 30
0.0
 10
149.5
 20
55.0001
 30
0.0
 10
149.5
 20
55.0001
 30
0.0
 10
149.5
 20
56.0452
 30
0.0
 10
150.3549
 20
56.9
 30
0.0
 10
151.3999
 20
56.9
 30
0.0
  0
SPLINE
  5
88
330
1F
100
AcDbEntity
  8
Layer 1
370
     0
100
AcDbSpline
210
0.0
220
0.0
230
1.0
 70
    11
 71
     3
 72
    36
 73
    32
 74
     0
 42
0.0000000001
 43
0.0000000001
 12
1.0
 22
0.0
 32
0.0
 13
1.0
 23
0.0
 33
0.0
 40
0.0
 40
0.0
 40
0.0
 40
0.0
 40
0.1111111111111111
 40
0.1111111111111111
 40
0.1111111111111111
 40
0.1111111111111111
 40
0.2222222222222222
 40
0.2222222222222222
 40
0.2222222222222222
 40
0.2222222222222222
 40
0.3333333333333333
 40
0.3333333333333333
 40
0.3333333333333333
 40
0.3333333333333333
 40
0.4444444444444444
 40
0.4444444444444444
 40
0.4444444444444444
 40
0.4444444444444444
 40
0.5555555555555556
 40
0.5555555555555556
 40
0.5555555555555556
 40
0.5555555555555556
 40
0.6666666666666666
 40
0.6666666666666666
 40
0.6666666666666666
 40
0.6666666666666666
 40
0.7777777777777778
 40
0.7777777777777778
 40
0.7777777777777778
 40
0.7777777777777778
 40
1.0
 40
1.0
 40
1.0
 40
1.0
 10
151.3999
 20
36.9
 30
0.0
 10
151.3999
 20
36.9
 30
0.0
 10
153.6001
 20
36.9
 30
0.0
 10
153.6001
 20
36.9
 30
0.0
 10
153.6001
 20
36.9
 30
0.0
 10
154.6451
 20
36.9
 30
0.0
 10
155.5
 20
36.0452
 30
0.0
 10
155.5
 20
35.0001
 30
0.0
 10
155.5
 20
35.0001
 30
0.0
 10
155.5
 20
35.0001
 30
0.0
 10
155.5
 20
34.9999
 30
0.0
 10
155.5
 20
34.9999
 30
0.0
 10
155.5
 20
34.9999
 30
0.0
 10
155.5
 20
33.9548
 30
0.0
 10
154.6451
 20
33.1
 30
0.0
 10
153.6001
 20
33.1
 30
0.0
 10
153.6001
 20
33.1
 30
0.0
 10
153.6001
 20
33.1
 30
0.0
 10
151.3999
 20
33.1
 30
0.0
 10
151.3999
 20
33.1
 30
0.0
 10
151.3999
 20
33.1
 30
0.0
 10
150.3549
 20
33.1
 30
0.0
 10
149.5
 20
33.9548
 30
0.0
 10
149.5
 20
34.9999
 30
0.0
 10
149.5
 20
34.9999
 30
0.0
 10
149.5
 20
34.9999
 30
0.0
 10
149.5
 20
35.0001
 30
0.0
 10
149.5
 20
35.0001
 30
0.0
 10
149.5
 20
35.0001
 30
0.0
 10
149.5
 20
36.0452
 30
0.0
 10
150.3549
 20
36.9
 30
0.0
 10
151.3999
 20
36.9
 30
0.0
  0
SPLINE
  5
89
330
1F
100
AcDbEntity
  8
Layer 1
370
     0
100
AcDbSpline
210
0.0
220
0.0
230
1.0
 70
    11
 71
     3
 72
    36
 73
    32
 74
     0
 42
0.0000000001
 43
0.0000000001
 12
1.0
 22
0.0
 32
0.0
 13
1.0
 23
0.0
 33
0.0
 40
0.0
 40
0.0
 40
0.0
 40
0.0
 40
0.1111111111111111
 40
0.1111111111111111
 40
0.1111111111111111
 40
0.1111111111111111
 40
0.2222222222222222
 40
0.2222222222222222
 40
0.2222222222222222
 40
0.2222222222222222
 40
0.3333333333333333
 40
0.3333333333333333
 40
0.3333333333333333
 40
0.3333333333333333
 40
0.4444444444444444
 40
0.4444444444444444
 40
0.4444444444444444
 40
0.4444444444444444
 40
0.5555555555555556
 40
0.5555555555555556
 40
0.5555555555555556
 40
0.5555555555555556
 40
0.6666666666666666
 40
0.6666666666666666
 40
0.6666666666666666
 40
0.6666666666666666
 40
0.7777777777777778
 40
0.7777777777777778
 40
0.7777777777777778
 40
0.7777777777777778
 40
1.0
 40
1.0
 40
1.0
 40
1.0
 10
151.3999
 20
16.9
 30
0.0
 10
151.3999
 20
16.9
 30
0.0
 10
153.6001
 20
16.9
 30
0.0
 10
153.6001
 20
16.9
 30
0.0
 10
153.6001
 20
16.9
 30
0.0
 10
154.6451
 20
16.9
 30
0.0
 10
155.5
 20
16.0452
 30
0.0
 10
155.5
 20
15.0001
 30
0.0
 10
155.5
 20
15.0001
 30
0.0
 10
155.5
 20
15.0001
 30
0.0
 10
155.5
 20
14.9999
 30
0.0
 10
155.5
 20
14.9999
 30
0.0
 10
155.5
 20
14.9999
 30
0.0
 10
155.5
 20
13.9548
 30
0.0
 10
154.6451
 20
13.1
 30
0.0
 10
153.6001
 20
13.1
 30
0.0
 10
153.6001
 20
13.1
 30
0.0
 10
153.6001
 20
13.1
 30
0.0
 10
151.3999
 20
13.1
 30
0.0
 10
151.3999
 20
13.1
 30
0.0
 10
151.3999
 20
13.1
 30
0.0
 10
150.3549
 20
13.1
 30
0.0
 10
149.5
 20
13.9548
 30
0.0
 10
149.5
 20
14.9999
 30
0.0
 10
149.5
 20
14.9999
 30
0.0
 10
149.5
 20
14.9999
 30
0.0
 10
149.5
 20
15.0001
 30
0.0
 10
149.5
 20
15.0001
 30
0.0
 10
149.5
 20
15.0001
 30
0.0
 10
149.5
 20
16.0452
 30
0.0
 10
150.3549
 20
16.9
 30
0.0
 10
151.3999
 20
16.9
 30
0.0
  0
SPLINE
  5
8A
330
1F
100
AcDbEntity
  8
Layer 1
370
     0
100
AcDbSpline
210
0.0
220
0.0
230
1.0
 70
    11
 71
     3
 72
    36
 73
    32
 74
     0
 42
0.0000000001
 43
0.0000000001
 12
1.0
 22
0.0
 32
0.0
 13
1.0
 23
0.0
 33
0.0
 40
0.0
 40
0.0
 40
0.0
 40
0.0
 40
0.1111111111111111
 40
0.1111111111111111
 40
0.1111111111111111
 40
0.1111111111111111
 40
0.2222222222222222
 40
0.2222222222222222
 40
0.2222222222222222
 40
0.2222222222222222
 40
0.3333333333333333
 40
0.3333333333333333
 40
0.3333333333333333
 40
0.3333333333333333
 40
0.4444444444444444
 40
0.4444444444444444
 40
0.4444444444444444
 40
0.4444444444444444
 40
0.5555555555555556
 40
0.5555555555555556
 40
0.5555555555555556
 40
0.5555555555555556
 40
0.6666666666666666
 40
0.6666666666666666
 40
0.6666666666666666
 40
0.6666666666666666
 40
0.7777777777777778
 40
0.7777777777777778
 40
0.7777777777777778
 40
0.7777777777777778
 40
1.0
 40
1.0
 40
1.0
 40
1.0
 10
151.3999
 20
-3.1
 30
0.0
 10
151.3999
 20
-3.1
 30
0.0
 10
153.6001
 20
-3.1
 30
0.0
 10
153.6001
 20
-3.1
 30
0.0
 10
153.6001
 20
-3.1
 30
0.0
 10
154.6451
 20
-3.1
 30
0.0
 10
155.5
 20
-3.9548
 30
0.0
 10
155.5
 20
-4.9999
 30
0.0
 10
155.5
 20
-4.9999
 30
0.0
 10
155.5
 20
-4.9999
 30
0.0
 10
155.5
 20
-5.0001
 30
0.0
 10
155.5
 20
-5.0001
 30
0.0
 10
155.5
 20
-5.0001
 30
0.0
 10
155.5
 20
-6.0452
 30
0.0
 10
154.6451
 20
-6.9
 30
0.0
 10
153.6001
 20
-6.9
 30
0.0
 10
153.6001
 20
-6.9
 30
0.0
 10
153.6001
 20
-6.9
 30
0.0
 10
151.3999
 20
-6.9
 30
0.0
 10
151.3999
 20
-6.9
 30
0.0
 10
151.3999
 20
-6.9
 30
0.0
 10
150.3549
 20
-6.9
 30
0.0
 10
149.5
 20
-6.0452
 30
0.0
 10
149.5
 20
-5.0001
 30
0.0
 10
149.5
 20
-5.0001
 30
0.0
 10
149.5
 20
-5.0001
 30
0.0
 10
149.5
 20
-4.9999
 30
0.0
 10
149.5
 20
-4.9999
 30
0.0
 10
149.5
 20
-4.9999
 30
0.0
 10
149.5
 20
-3.9548
 30
0.0
 10
150.3549
 20
-3.1
 30
0.0
 10
151.3999
 20
-3.1
 30
0.0
  0
SPLINE
  5
8B
330
1F
100
AcDbEntity
  8
Layer 1
370
     0
100
AcDbSpline
210
0.0
220
0.0
230
1.0
 70
    11
 71
     3
 72
    36
 73
    32
 74
     0
 42
0.0000000001
 43
0.0000000001
 12
1.0
 22
0.0
 32
0.0
 13
1.0
 23
0.0
 33
0.0
 40
0.0
 40
0.0
 40
0.0
 40
0.0
 40
0.1111111111111111
 40
0.1111111111111111
 40
0.1111111111111111
 40
0.1111111111111111
 40
0.2222222222222222
 40
0.2222222222222222
 40
0.2222222222222222
 40
0.2222222222222222
 40
0.3333333333333333
 40
0.3333333333333333
 40
0.3333333333333333
 40
0.3333333333333333
 40
0.4444444444444444
 40
0.4444444444444444
 40
0.4444444444444444
 40
0.4444444444444444
 40
0.5555555555555556
 40
0.5555555555555556
 40
0.5555555555555556
 40
0.5555555555555556
 40
0.6666666666666666
 40
0.6666666666666666
 40
0.6666666666666666
 40
0.6666666666666666
 40
0.7777777777777778
 40
0.7777777777777778
 40
0.7777777777777778
 40
0.7777777777777778
 40
1.0
 40
1.0
 40
1.0
 40
1.0
 10
138.6001
 20
136.9
 30
0.0
 10
138.6001
 20
136.9
 30
0.0
 10
136.3999
 20
136.9
 30
0.0
 10
136.3999
 20
136.9
 30
0.0
 10
136.3999
 20
136.9
 30
0.0
 10
135.3549
 20
136.9
 30
0.0
 10
134.5
 20
136.0452
 30
0.0
 10
134.5
 20
135.0001
 30
0.0
 10
134.5
 20
135.0001
 30
0.0
 10
134.5
 20
135.0001
 30
0.0
 10
134.5
 20
134.9999
 30
0.0
 10
134.5
 20
134.9999
 30
0.0
 10
134.5
 20
134.9999
 30
0.0
 10
134.5
 20
133.9548
 30
0.0
 10
135.3549
 20
133.1
 30
0.0
 10
136.3999
 20
133.1
 30
0.0
 10
136.3999
 20
133.1
 30
0.0
 10
136.3999
 20
133.1
 30
0.0
 10
138.6001
 20
133.1
 30
0.0
 10
138.6001
 20
133.1
 30
0.0
 10
138.6001
 20
133.1
 30
0.0
 10
139.6451
 20
133.1
 30
0.0
 10
140.5
 20
133.9548
 30
0.0
 10
140.5
 20
134.9999
 30
0.0
 10
140.5
 20
134.9999
 30
0.0
 10
140.5
 20
134.9999
 30
0.0
 10
140.5
 20
135.0001
 30
0.0
 10
140.5
 20
135.0001
 30
0.0
 10
140.5
 20
135.0001
 30
0.0
 10
140.5
 20
136.0452
 30
0.0
 10
139.6451
 20
136.9
 30
0.0
 10
138.6001
 20
136.9
 30
0.0
  0
SPLINE
  5
8C
330
1F
100
AcDbEntity
  8
Layer 1
370
     0
100
AcDbSpline
210
0.0
220
0.0
230
1.0
 70
    11
 71
     3
 72
    36
 73
    32
 74
     0
 42
0.0000000001
 43
0.0000000001
 12
1.0
 22
0.0
 32
0.0
 13
1.0
 23
0.0
 33
0.0
 40
0.0
 40
0.0
 40
0.0
 40
0.0
 40
0.1111111111111111
 40
0.1111111111111111
 40
0.1111111111111111
 40
0.1111111111111111
 40
0.2222222222222222
 40
0.2222222222222222
 40
0.2222222222222222
 40
0.2222222222222222
 40
0.3333333333333333
 40
0.3333333333333333
 40
0.3333333333333333
 40
0.3333333333333333
 40
0.4444444444444444
 40
0.4444444444444444
 40
0.4444444444444444
 40
0.4444444444444444
 40
0.5555555555555556
 40
0.5555555555555556
 40
0.5555555555555556
 40
0.5555555555555556
 40
0.6666666666666666
 40
0.6666666666666666
 40
0.6666666666666666
 40
0.6666666666666666
 40
0.7777777777777778
 40
0.7777777777777778
 40
0.7777777777777778
 40
0.7777777777777778
 40
1.0
 40
1.0
 40
1.0
 40
1.0
 10
138.6001
 20
116.9
 30
0.0
 10
138.6001
 20
116.9
 30
0.0
 10
136.3999
 20
116.9
 30
0.0
 10
136.3999
 20
116.9
 30
0.0
 10
136.3999
 20
116.9
 30
0.0
 10
135.3549
 20
116.9
 30
0.0
 10
134.5
 20
116.0452
 30
0.0
 10
134.5
 20
115.0001
 30
0.0
 10
134.5
 20
115.0001
 30
0.0
 10
134.5
 20
115.0001
 30
0.0
 10
134.5
 20
114.9999
 30
0.0
 10
134.5
 20
114.9999
 30
0.0
 10
134.5
 20
114.9999
 30
0.0
 10
134.5
 20
113.9548
 30
0.0
 10
135.3549
 20
113.1
 30
0.0
 10
136.3999
 20
113.1
 30
0.0
 10
136.3999
 20
113.1
 30
0.0
 10
136.3999
 20
113.1
 30
0.0
 10
138.6001
 20
113.1
 30
0.0
 10
138.6001
 20
113.1
 30
0.0
 10
138.6001
 20
113.1
 30
0.0
 10
139.6451
 20
113.1
 30
0.0
 10
140.5
 20
113.9548
 30
0.0
 10
140.5
 20
114.9999
 30
0.0
 10
140.5
 20
114.9999
 30
0.0
 10
140.5
 20
114.9999
 30
0.0
 10
140.5
 20
115.0001
 30
0.0
 10
140.5
 20
115.0001
 30
0.0
 10
140.5
 20
115.0001
 30
0.0
 10
140.5
 20
116.0452
 30
0.0
 10
139.6451
 20
116.9
 30
0.0
 10
138.6001
 20
116.9
 30
0.0
  0
SPLINE
  5
8D
330
1F
100
AcDbEntity
  8
Layer 1
370
     0
100
AcDbSpline
210
0.0
220
0.0
230
1.0
 70
    11
 71
     3
 72
    36
 73
    32
 74
     0
 42
0.0000000001
 43
0.0000000001
 12
1.0
 22
0.0
 32
0.0
 13
1.0
 23
0.0
 33
0.0
 40
0.0
 40
0.0
 40
0.0
 40
0.0
 40
0.1111111111111111
 40
0.1111111111111111
 40
0.1111111111111111
 40
0.1111111111111111
 40
0.2222222222222222
 40
0.2222222222222222
 40
0.2222222222222222
 40
0.2222222222222222
 40
0.3333333333333333
 40
0.3333333333333333
 40
0.3333333333333333
 40
0.3333333333333333
 40
0.4444444444444444
 40
0.4444444444444444
 40
0.4444444444444444
 40
0.4444444444444444
 40
0.5555555555555556
 40
0.5555555555555556
 40
0.5555555555555556
 40
0.5555555555555556
 40
0.6666666666666666
 40
0.6666666666666666
 40
0.6666666666666666
 40
0.6666666666666666
 40
0.7777777777777778
 40
0.7777777777777778
 40
0.7777777777777778
 40
0.7777777777777778
 40
1.0
 40
1.0
 40
1.0
 40
1.0
 10
138.6001
 20
96.9
 30
0.0
 10
138.6001
 20
96.9
 30
0.0
 10
136.3999
 20
96.9
 30
0.0
 10
136.3999
 20
96.9
 30
0.0
 10
136.3999
 20
96.9
 30
0.0
 10
135.3549
 20
96.9
 30
0.0
 10
134.5
 20
96.0452
 30
0.0
 10
134.5
 20
95.0001
 30
0.0
 10
134.5
 20
95.0001
 30
0.0
 10
134.5
 20
95.0001
 30
0.0
 10
134.5
 20
94.9999
 30
0.0
 10
134.5
 20
94.9999
 30
0.0
 10
134.5
 20
94.9999
 30
0.0
 10
134.5
 20
93.9548
 30
0.0
 10
135.3549
 20
93.1
 30
0.0
 10
136.3999
 20
93.1
 30
0.0
 10
136.3999
 20
93.1
 30
0.0
 10
136.3999
 20
93.1
 30
0.0
 10
138.6001
 20
93.1
 30
0.0
 10
138.6001
 20
93.1
 30
0.0
 10
138.6001
 20
93.1
 30
0.0
 10
139.6451
 20
93.1
 30
0.0
 10
140.5
 20
93.9548
 30
0.0
 10
140.5
 20
94.9999
 30
0.0
 10
140.5
 20
94.9999
 30
0.0
 10
140.5
 20
94.9999
 30
0.0
 10
140.5
 20
95.0001
 30
0.0
 10
140.5
 20
95.0001
 30
0.0
 10
140.5
 20
95.0001
 30
0.0
 10
140.5
 20
96.0452
 30
0.0
 10
139.6451
 20
96.9
 30
0.0
 10
138.6001
 20
96.9
 30
0.0
  0
SPLINE
  5
8E
330
1F
100
AcDbEntity
  8
Layer 1
370
     0
100
AcDbSpline
210
0.0
220
0.0
230
1.0
 70
    11
 71
     3
 72
    36
 73
    32
 74
     0
 42
0.0000000001
 43
0.0000000001
 12
1.0
 22
0.0
 32
0.0
 13
1.0
 23
0.0
 33
0.0
 40
0.0
 40
0.0
 40
0.0
 40
0.0
 40
0.1111111111111111
 40
0.1111111111111111
 40
0.1111111111111111
 40
0.1111111111111111
 40
0.2222222222222222
 40
0.2222222222222222
 40
0.2222222222222222
 40
0.2222222222222222
 40
0.3333333333333333
 40
0.3333333333333333
 40
0.3333333333333333
 40
0.3333333333333333
 40
0.4444444444444444
 40
0.4444444444444444
 40
0.4444444444444444
 40
0.4444444444444444
 40
0.5555555555555556
 40
0.5555555555555556
 40
0.5555555555555556
 40
0.5555555555555556
 40
0.6666666666666666
 40
0.6666666666666666
 40
0.6666666666666666
 40
0.6666666666666666
 40
0.7777777777777778
 40
0.7777777777777778
 40
0.7777777777777778
 40
0.7777777777777778
 40
1.0
 40
1.0
 40
1.0
 40
1.0
 10
138.6001
 20
76.9
 30
0.0
 10
138.6001
 20
76.9
 30
0.0
 10
136.3999
 20
76.9
 30
0.0
 10
136.3999
 20
76.9
 30
0.0
 10
136.3999
 20
76.9
 30
0.0
 10
135.3549
 20
76.9
 30
0.0
 10
134.5
 20
76.0452
 30
0.0
 10
134.5
 20
75.0001
 30
0.0
 10
134.5
 20
75.0001
 30
0.0
 10
134.5
 20
75.0001
 30
0.0
 10
134.5
 20
74.9999
 30
0.0
 10
134.5
 20
74.9999
 30
0.0
 10
134.5
 20
74.9999
 30
0.0
 10
134.5
 20
73.9548
 30
0.0
 10
135.3549
 20
73.1
 30
0.0
 10
136.3999
 20
73.1
 30
0.0
 10
136.3999
 20
73.1
 30
0.0
 10
136.3999
 20
73.1
 30
0.0
 10
138.6001
 20
73.1
 30
0.0
 10
138.6001
 20
73.1
 30
0.0
 10
138.6001
 20
73.1
 30
0.0
 10
139.6451
 20
73.1
 30
0.0
 10
140.5
 20
73.9548
 30
0.0
 10
140.5
 20
74.9999
 30
0.0
 10
140.5
 20
74.9999
 30
0.0
 10
140.5
 20
74.9999
 30
0.0
 10
140.5
 20
75.0001
 30
0.0
 10
140.5
 20
75.0001
 30
0.0
 10
140.5
 20
75.0001
 30
0.0
 10
140.5
 20
76.0452
 30
0.0
 10
139.6451
 20
76.9
 30
0.0
 10
138.6001
 20
76.9
 30
0.0
  0
SPLINE
  5
8F
330
1F
100
AcDbEntity
  8
Layer 1
370
     0
100
AcDbSpline
210
0.0
220
0.0
230
1.0
 70
    11
 71
     3
 72
    36
 73
    32
 74
     0
 42
0.0000000001
 43
0.0000000001
 12
1.0
 22
0.0
 32
0.0
 13
1.0
 23
0.0
 33
0.0
 40
0.0
 40
0.0
 40
0.0
 40
0.0
 40
0.1111111111111111
 40
0.1111111111111111
 40
0.1111111111111111
 40
0.1111111111111111
 40
0.2222222222222222
 40
0.2222222222222222
 40
0.2222222222222222
 40
0.2222222222222222
 40
0.3333333333333333
 40
0.3333333333333333
 40
0.3333333333333333
 40
0.3333333333333333
 40
0.4444444444444444
 40
0.4444444444444444
 40
0.4444444444444444
 40
0.4444444444444444
 40
0.5555555555555556
 40
0.5555555555555556
 40
0.5555555555555556
 40
0.5555555555555556
 40
0.6666666666666666
 40
0.6666666666666666
 40
0.6666666666666666
 40
0.6666666666666666
 40
0.7777777777777778
 40
0.7777777777777778
 40
0.7777777777777778
 40
0.7777777777777778
 40
1.0
 40
1.0
 40
1.0
 40
1.0
 10
138.6001
 20
56.9
 30
0.0
 10
138.6001
 20
56.9
 30
0.0
 10
136.3999
 20
56.9
 30
0.0
 10
136.3999
 20
56.9
 30
0.0
 10
136.3999
 20
56.9
 30
0.0
 10
135.3549
 20
56.9
 30
0.0
 10
134.5
 20
56.0452
 30
0.0
 10
134.5
 20
55.0001
 30
0.0
 10
134.5
 20
55.0001
 30
0.0
 10
134.5
 20
55.0001
 30
0.0
 10
134.5
 20
54.9999
 30
0.0
 10
134.5
 20
54.9999
 30
0.0
 10
134.5
 20
54.9999
 30
0.0
 10
134.5
 20
53.9548
 30
0.0
 10
135.3549
 20
53.1
 30
0.0
 10
136.3999
 20
53.1
 30
0.0
 10
136.3999
 20
53.1
 30
0.0
 10
136.3999
 20
53.1
 30
0.0
 10
138.6001
 20
53.1
 30
0.0
 10
138.6001
 20
53.1
 30
0.0
 10
138.6001
 20
53.1
 30
0.0
 10
139.6451
 20
53.1
 30
0.0
 10
140.5
 20
53.9548
 30
0.0
 10
140.5
 20
54.9999
 30
0.0
 10
140.5
 20
54.9999
 30
0.0
 10
140.5
 20
54.9999
 30
0.0
 10
140.5
 20
55.0001
 30
0.0
 10
140.5
 20
55.0001
 30
0.0
 10
140.5
 20
55.0001
 30
0.0
 10
140.5
 20
56.0452
 30
0.0
 10
139.6451
 20
56.9
 30
0.0
 10
138.6001
 20
56.9
 30
0.0
  0
SPLINE
  5
90
330
1F
100
AcDbEntity
  8
Layer 1
370
     0
100
AcDbSpline
210
0.0
220
0.0
230
1.0
 70
    11
 71
     3
 72
    36
 73
    32
 74
     0
 42
0.0000000001
 43
0.0000000001
 12
1.0
 22
0.0
 32
0.0
 13
1.0
 23
0.0
 33
0.0
 40
0.0
 40
0.0
 40
0.0
 40
0.0
 40
0.1111111111111111
 40
0.1111111111111111
 40
0.1111111111111111
 40
0.1111111111111111
 40
0.2222222222222222
 40
0.2222222222222222
 40
0.2222222222222222
 40
0.2222222222222222
 40
0.3333333333333333
 40
0.3333333333333333
 40
0.3333333333333333
 40
0.3333333333333333
 40
0.4444444444444444
 40
0.4444444444444444
 40
0.4444444444444444
 40
0.4444444444444444
 40
0.5555555555555556
 40
0.5555555555555556
 40
0.5555555555555556
 40
0.5555555555555556
 40
0.6666666666666666
 40
0.6666666666666666
 40
0.6666666666666666
 40
0.6666666666666666
 40
0.7777777777777778
 40
0.7777777777777778
 40
0.7777777777777778
 40
0.7777777777777778
 40
1.0
 40
1.0
 40
1.0
 40
1.0
 10
138.6001
 20
36.9
 30
0.0
 10
138.6001
 20
36.9
 30
0.0
 10
136.3999
 20
36.9
 30
0.0
 10
136.3999
 20
36.9
 30
0.0
 10
136.3999
 20
36.9
 30
0.0
 10
135.3549
 20
36.9
 30
0.0
 10
134.5
 20
36.0452
 30
0.0
 10
134.5
 20
35.0001
 30
0.0
 10
134.5
 20
35.0001
 30
0.0
 10
134.5
 20
35.0001
 30
0.0
 10
134.5
 20
34.9999
 30
0.0
 10
134.5
 20
34.9999
 30
0.0
 10
134.5
 20
34.9999
 30
0.0
 10
134.5
 20
33.9548
 30
0.0
 10
135.3549
 20
33.1
 30
0.0
 10
136.3999
 20
33.1
 30
0.0
 10
136.3999
 20
33.1
 30
0.0
 10
136.3999
 20
33.1
 30
0.0
 10
138.6001
 20
33.1
 30
0.0
 10
138.6001
 20
33.1
 30
0.0
 10
138.6001
 20
33.1
 30
0.0
 10
139.6451
 20
33.1
 30
0.0
 10
140.5
 20
33.9548
 30
0.0
 10
140.5
 20
34.9999
 30
0.0
 10
140.5
 20
34.9999
 30
0.0
 10
140.5
 20
34.9999
 30
0.0
 10
140.5
 20
35.0001
 30
0.0
 10
140.5
 20
35.0001
 30
0.0
 10
140.5
 20
35.0001
 30
0.0
 10
140.5
 20
36.0452
 30
0.0
 10
139.6451
 20
36.9
 30
0.0
 10
138.6001
 20
36.9
 30
0.0
  0
SPLINE
  5
91
330
1F
100
AcDbEntity
  8
Layer 1
370
     0
100
AcDbSpline
210
0.0
220
0.0
230
1.0
 70
    11
 71
     3
 72
    36
 73
    32
 74
     0
 42
0.0000000001
 43
0.0000000001
 12
1.0
 22
0.0
 32
0.0
 13
1.0
 23
0.0
 33
0.0
 40
0.0
 40
0.0
 40
0.0
 40
0.0
 40
0.1111111111111111
 40
0.1111111111111111
 40
0.1111111111111111
 40
0.1111111111111111
 40
0.2222222222222222
 40
0.2222222222222222
 40
0.2222222222222222
 40
0.2222222222222222
 40
0.3333333333333333
 40
0.3333333333333333
 40
0.3333333333333333
 40
0.3333333333333333
 40
0.4444444444444444
 40
0.4444444444444444
 40
0.4444444444444444
 40
0.4444444444444444
 40
0.5555555555555556
 40
0.5555555555555556
 40
0.5555555555555556
 40
0.5555555555555556
 40
0.6666666666666666
 40
0.6666666666666666
 40
0.6666666666666666
 40
0.6666666666666666
 40
0.7777777777777778
 40
0.7777777777777778
 40
0.7777777777777778
 40
0.7777777777777778
 40
1.0
 40
1.0
 40
1.0
 40
1.0
 10
138.6001
 20
16.9
 30
0.0
 10
138.6001
 20
16.9
 30
0.0
 10
136.3999
 20
16.9
 30
0.0
 10
136.3999
 20
16.9
 30
0.0
 10
136.3999
 20
16.9
 30
0.0
 10
135.3549
 20
16.9
 30
0.0
 10
134.5
 20
16.0452
 30
0.0
 10
134.5
 20
15.0001
 30
0.0
 10
134.5
 20
15.0001
 30
0.0
 10
134.5
 20
15.0001
 30
0.0
 10
134.5
 20
14.9999
 30
0.0
 10
134.5
 20
14.9999
 30
0.0
 10
134.5
 20
14.9999
 30
0.0
 10
134.5
 20
13.9548
 30
0.0
 10
135.3549
 20
13.1
 30
0.0
 10
136.3999
 20
13.1
 30
0.0
 10
136.3999
 20
13.1
 30
0.0
 10
136.3999
 20
13.1
 30
0.0
 10
138.6001
 20
13.1
 30
0.0
 10
138.6001
 20
13.1
 30
0.0
 10
138.6001
 20
13.1
 30
0.0
 10
139.6451
 20
13.1
 30
0.0
 10
140.5
 20
13.9548
 30
0.0
 10
140.5
 20
14.9999
 30
0.0
 10
140.5
 20
14.9999
 30
0.0
 10
140.5
 20
14.9999
 30
0.0
 10
140.5
 20
15.0001
 30
0.0
 10
140.5
 20
15.0001
 30
0.0
 10
140.5
 20
15.0001
 30
0.0
 10
140.5
 20
16.0452
 30
0.0
 10
139.6451
 20
16.9
 30
0.0
 10
138.6001
 20
16.9
 30
0.0
  0
SPLINE
  5
92
330
1F
100
AcDbEntity
  8
Layer 1
370
     0
100
AcDbSpline
210
0.0
220
0.0
230
1.0
 70
    11
 71
     3
 72
    36
 73
    32
 74
     0
 42
0.0000000001
 43
0.0000000001
 12
1.0
 22
0.0
 32
0.0
 13
1.0
 23
0.0
 33
0.0
 40
0.0
 40
0.0
 40
0.0
 40
0.0
 40
0.1111111111111111
 40
0.1111111111111111
 40
0.1111111111111111
 40
0.1111111111111111
 40
0.2222222222222222
 40
0.2222222222222222
 40
0.2222222222222222
 40
0.2222222222222222
 40
0.3333333333333333
 40
0.3333333333333333
 40
0.3333333333333333
 40
0.3333333333333333
 40
0.4444444444444444
 40
0.4444444444444444
 40
0.4444444444444444
 40
0.4444444444444444
 40
0.5555555555555556
 40
0.5555555555555556
 40
0.5555555555555556
 40
0.5555555555555556
 40
0.6666666666666666
 40
0.6666666666666666
 40
0.6666666666666666
 40
0.6666666666666666
 40
0.7777777777777778
 40
0.7777777777777778
 40
0.7777777777777778
 40
0.7777777777777778
 40
1.0
 40
1.0
 40
1.0
 40
1.0
 10
138.6001
 20
-3.1
 30
0.0
 10
138.6001
 20
-3.1
 30
0.0
 10
136.3999
 20
-3.1
 30
0.0
 10
136.3999
 20
-3.1
 30
0.0
 10
136.3999
 20
-3.1
 30
0.0
 10
135.3549
 20
-3.1
 30
0.0
 10
134.5
 20
-3.9548
 30
0.0
 10
134.5
 20
-4.9999
 30
0.0
 10
134.5
 20
-4.9999
 30
0.0
 10
134.5
 20
-4.9999
 30
0.0
 10
134.5
 20
-5.0001
 30
0.0
 10
134.5
 20
-5.0001
 30
0.0
 10
134.5
 20
-5.0001
 30
0.0
 10
134.5
 20
-6.0452
 30
0.0
 10
135.3549
 20
-6.9
 30
0.0
 10
136.3999
 20
-6.9
 30
0.0
 10
136.3999
 20
-6.9
 30
0.0
 10
136.3999
 20
-6.9
 30
0.0
 10
138.6001
 20
-6.9
 30
0.0
 10
138.6001
 20
-6.9
 30
0.0
 10
138.6001
 20
-6.9
 30
0.0
 10
139.6451
 20
-6.9
 30
0.0
 10
140.5
 20
-6.0452
 30
0.0
 10
140.5
 20
-5.0001
 30
0.0
 10
140.5
 20
-5.0001
 30
0.0
 10
140.5
 20
-5.0001
 30
0.0
 10
140.5
 20
-4.9999
 30
0.0
 10
140.5
 20
-4.9999
 30
0.0
 10
140.5
 20
-4.9999
 30
0.0
 10
140.5
 20
-3.9548
 30
0.0
 10
139.6451
 20
-3.1
 30
0.0
 10
138.6001
 20
-3.1
 30
0.0
  0
SPLINE
  5
93
330
1F
100
AcDbEntity
  8
Layer 1
370
     0
100
AcDbSpline
210
0.0
220
0.0
230
1.0
 70
    11
 71
     3
 72
   172
 73
   168
 74
     0
 42
0.0000000001
 43
0.0000000001
 12
1.0
 22
0.0
 32
0.0
 13
1.0
 23
0.0
 33
0.0
 40
0.0
 40
0.0
 40
0.0
 40
0.0
 40
0.0232558139534884
 40
0.0232558139534884
 40
0.0232558139534884
 40
0.0232558139534884
 40
0.0465116279069767
 40
0.0465116279069767
 40
0.0465116279069767
 40
0.0465116279069767
 40
0.0697674418604651
 40
0.0697674418604651
 40
0.0697674418604651
 40
0.0697674418604651
 40
0.0930232558139535
 40
0.0930232558139535
 40
0.0930232558139535
 40
0.0930232558139535
 40
0.1162790697674419
 40
0.1162790697674419
 40
0.1162790697674419
 40
0.1162790697674419
 40
0.1395348837209302
 40
0.1395348837209302
 40
0.1395348837209302
 40
0.1395348837209302
 40
0.1627906976744186
 40
0.1627906976744186
 40
0.1627906976744186
 40
0.1627906976744186
 40
0.186046511627907
 40
0.186046511627907
 40
0.186046511627907
 40
0.186046511627907
 40
0.2093023255813954
 40
0.2093023255813954
 40
0.2093023255813954
 40
0.2093023255813954
 40
0.2325581395348837
 40
0.2325581395348837
 40
0.2325581395348837
 40
0.2325581395348837
 40
0.2558139534883721
 40
0.2558139534883721
 40
0.2558139534883721
 40
0.2558139534883721
 40
0.2790697674418605
 40
0.2790697674418605
 40
0.2790697674418605
 40
0.2790697674418605
 40
0.3023255813953488
 40
0.3023255813953488
 40
0.3023255813953488
 40
0.3023255813953488
 40
0.3255813953488372
 40
0.3255813953488372
 40
0.3255813953488372
 40
0.3255813953488372
 40
0.3488372093023256
 40
0.3488372093023256
 40
0.3488372093023256
 40
0.3488372093023256
 40
0.3720930232558139
 40
0.3720930232558139
 40
0.3720930232558139
 40
0.3720930232558139
 40
0.3953488372093023
 40
0.3953488372093023
 40
0.3953488372093023
 40
0.3953488372093023
 40
0.4186046511627907
 40
0.4186046511627907
 40
0.4186046511627907
 40
0.4186046511627907
 40
0.4418604651162791
 40
0.4418604651162791
 40
0.4418604651162791
 40
0.4418604651162791
 40
0.4651162790697674
 40
0.4651162790697674
 40
0.4651162790697674
 40
0.4651162790697674
 40
0.4883720930232558
 40
0.4883720930232558
 40
0.4883720930232558
 40
0.4883720930232558
 40
0.5116279069767442
 40
0.5116279069767442
 40
0.5116279069767442
 40
0.5116279069767442
 40
0.5348837209302325
 40
0.5348837209302325
 40
0.5348837209302325
 40
0.5348837209302325
 40
0.5581395348837209
 40
0.5581395348837209
 40
0.5581395348837209
 40
0.5581395348837209
 40
0.5813953488372093
 40
0.5813953488372093
 40
0.5813953488372093
 40
0.5813953488372093
 40
0.6046511627906976
 40
0.6046511627906976
 40
0.6046511627906976
 40
0.6046511627906976
 40
0.627906976744186
 40
0.627906976744186
 40
0.627906976744186
 40
0.627906976744186
 40
0.6511627906976745
 40
0.6511627906976745
 40
0.6511627906976745
 40
0.6511627906976745
 40
0.6744186046511628
 40
0.6744186046511628
 40
0.6744186046511628
 40
0.6744186046511628
 40
0.6976744186046512
 40
0.6976744186046512
 40
0.6976744186046512
 40
0.6976744186046512
 40
0.7209302325581395
 40
0.7209302325581395
 40
0.7209302325581395
 40
0.7209302325581395
 40
0.7441860465116279
 40
0.7441860465116279
 40
0.7441860465116279
 40
0.7441860465116279
 40
0.7674418604651163
 40
0.7674418604651163
 40
0.7674418604651163
 40
0.7674418604651163
 40
0.7906976744186046
 40
0.7906976744186046
 40
0.7906976744186046
 40
0.7906976744186046
 40
0.813953488372093
 40
0.813953488372093
 40
0.813953488372093
 40
0.813953488372093
 40
0.8372093023255814
 40
0.8372093023255814
 40
0.8372093023255814
 40
0.8372093023255814
 40
0.8604651162790697
 40
0.8604651162790697
 40
0.8604651162790697
 40
0.8604651162790697
 40
0.8837209302325582
 40
0.8837209302325582
 40
0.8837209302325582
 40
0.8837209302325582
 40
0.9069767441860465
 40
0.9069767441860465
 40
0.9069767441860465
 40
0.9069767441860465
 40
0.9302325581395349
 40
0.9302325581395349
 40
0.9302325581395349
 40
0.9302325581395349
 40
0.9534883720930233
 40
0.9534883720930233
 40
0.9534883720930233
 40
0.9534883720930233
 40
1.0
 40
1.0
 40
1.0
 40
1.0
 10
180.0
 20
145.0
 30
0.0
 10
180.0
 20
145.0
 30
0.0
 10
191.25
 20
145.0
 30
0.0
 10
191.25
 20
145.0
 30
0.0
 10
191.25
 20
145.0
 30
0.0
 10
193.3125
 20
145.0
 30
0.0
 10
195.0
 20
143.3125
 30
0.0
 10
195.0
 20
141.2499
 30
0.0
 10
195.0
 20
141.2499
 30
0.0
 10
195.0
 20
141.2499
 30
0.0
 10
195.0
 20
109.9937
 30
0.0
 10
195.0
 20
109.9937
 30
0.0
 10
195.0
 20
109.9937
 30
0.0
 10
194.9172
 20
109.9978
 30
0.0
 10
194.8338
 20
110.0
 30
0.0
 10
194.75
 20
110.0
 30
0.0
 10
194.75
 20
110.0
 30
0.0
 10
194.75
 20
110.0
 30
0.0
 10
192.75
 20
110.0
 30
0.0
 10
192.75
 20
110.0
 30
0.0
 10
192.75
 20
110.0
 30
0.0
 10
190.0
 20
110.0
 30
0.0
 10
187.75
 20
107.75
 30
0.0
 10
187.75
 20
105.0
 30
0.0
 10
187.75
 20
105.0
 30
0.0
 10
187.75
 20
105.0
 30
0.0
 10
187.75
 20
105.0
 30
0.0
 10
187.75
 20
105.0
 30
0.0
 10
187.75
 20
105.0
 30
0.0
 10
187.75
 20
102.25
 30
0.0
 10
190.0
 20
100.0
 30
0.0
 10
192.75
 20
100.0
 30
0.0
 10
192.75
 20
100.0
 30
0.0
 10
192.75
 20
100.0
 30
0.0
 10
194.75
 20
100.0
 30
0.0
 10
194.75
 20
100.0
 30
0.0
 10
194.75
 20
100.0
 30
0.0
 10
194.8338
 20
100.0
 30
0.0
 10
194.9172
 20
100.0022
 30
0.0
 10
195.0
 20
100.0063
 30
0.0
 10
195.0
 20
100.0063
 30
0.0
 10
195.0
 20
100.0063
 30
0.0
 10
195.0
 20
29.9937
 30
0.0
 10
195.0
 20
29.9937
 30
0.0
 10
195.0
 20
29.9937
 30
0.0
 10
194.9172
 20
29.9978
 30
0.0
 10
194.8338
 20
30.0
 30
0.0
 10
194.75
 20
30.0
 30
0.0
 10
194.75
 20
30.0
 30
0.0
 10
194.75
 20
30.0
 30
0.0
 10
192.75
 20
30.0
 30
0.0
 10
192.75
 20
30.0
 30
0.0
 10
192.75
 20
30.0
 30
0.0
 10
190.0
 20
30.0
 30
0.0
 10
187.75
 20
27.75
 30
0.0
 10
187.75
 20
25.0
 30
0.0
 10
187.75
 20
25.0
 30
0.0
 10
187.75
 20
25.0
 30
0.0
 10
187.75
 20
25.0
 30
0.0
 10
187.75
 20
25.0
 30
0.0
 10
187.75
 20
25.0
 30
0.0
 10
187.75
 20
22.25
 30
0.0
 10
190.0
 20
20.0
 30
0.0
 10
192.75
 20
20.0
 30
0.0
 10
192.75
 20
20.0
 30
0.0
 10
192.75
 20
20.0
 30
0.0
 10
194.75
 20
20.0
 30
0.0
 10
194.75
 20
20.0
 30
0.0
 10
194.75
 20
20.0
 30
0.0
 10
194.8338
 20
20.0
 30
0.0
 10
194.9172
 20
20.0022
 30
0.0
 10
195.0
 20
20.0063
 30
0.0
 10
195.0
 20
20.0063
 30
0.0
 10
195.0
 20
20.0063
 30
0.0
 10
195.0
 20
-11.2499
 30
0.0
 10
195.0
 20
-11.2499
 30
0.0
 10
195.0
 20
-11.2499
 30
0.0
 10
195.0
 20
-13.3125
 30
0.0
 10
193.3125
 20
-15.0
 30
0.0
 10
191.25
 20
-15.0
 30
0.0
 10
191.25
 20
-15.0
 30
0.0
 10
191.25
 20
-15.0
 30
0.0
 10
180.0
 20
-15.0
 30
0.0
 10
180.0
 20
-15.0
 30
0.0
 10
180.0
 20
-15.0
 30
0.0
 10
180.0
 20
-15.0
 30
0.0
 10
168.75
 20
-15.0
 30
0.0
 10
168.75
 20
-15.0
 30
0.0
 10
168.75
 20
-15.0
 30
0.0
 10
166.6875
 20
-15.0
 30
0.0
 10
165.0
 20
-13.3125
 30
0.0
 10
165.0
 20
-11.2499
 30
0.0
 10
165.0
 20
-11.2499
 30
0.0
 10
165.0
 20
-11.2499
 30
0.0
 10
165.0
 20
20.0063
 30
0.0
 10
165.0
 20
20.0063
 30
0.0
 10
165.0
 20
20.0063
 30
0.0
 10
165.0828
 20
20.0022
 30
0.0
 10
165.1662
 20
20.0
 30
0.0
 10
165.25
 20
20.0
 30
0.0
 10
165.25
 20
20.0
 30
0.0
 10
165.25
 20
20.0
 30
0.0
 10
167.25
 20
20.0
 30
0.0
 10
167.25
 20
20.0
 30
0.0
 10
167.25
 20
20.0
 30
0.0
 10
170.0
 20
20.0
 30
0.0
 10
172.25
 20
22.25
 30
0.0
 10
172.25
 20
25.0
 30
0.0
 10
172.25
 20
25.0
 30
0.0
 10
172.25
 20
25.0
 30
0.0
 10
172.25
 20
25.0
 30
0.0
 10
172.25
 20
25.0
 30
0.0
 10
172.25
 20
25.0
 30
0.0
 10
172.25
 20
27.75
 30
0.0
 10
170.0
 20
30.0
 30
0.0
 10
167.25
 20
30.0
 30
0.0
 10
167.25
 20
30.0
 30
0.0
 10
167.25
 20
30.0
 30
0.0
 10
165.25
 20
30.0
 30
0.0
 10
165.25
 20
30.0
 30
0.0
 10
165.25
 20
30.0
 30
0.0
 10
165.1662
 20
30.0
 30
0.0
 10
165.0828
 20
29.9978
 30
0.0
 10
165.0
 20
29.9937
 30
0.0
 10
165.0
 20
29.9937
 30
0.0
 10
165.0
 20
29.9937
 30
0.0
 10
165.0
 20
100.0063
 30
0.0
 10
165.0
 20
100.0063
 30
0.0
 10
165.0
 20
100.0063
 30
0.0
 10
165.0828
 20
100.0022
 30
0.0
 10
165.1662
 20
100.0
 30
0.0
 10
165.25
 20
100.0
 30
0.0
 10
165.25
 20
100.0
 30
0.0
 10
165.25
 20
100.0
 30
0.0
 10
167.25
 20
100.0
 30
0.0
 10
167.25
 20
100.0
 30
0.0
 10
167.25
 20
100.0
 30
0.0
 10
170.0
 20
100.0
 30
0.0
 10
172.25
 20
102.25
 30
0.0
 10
172.25
 20
105.0
 30
0.0
 10
172.25
 20
105.0
 30
0.0
 10
172.25
 20
105.0
 30
0.0
 10
172.25
 20
105.0
 30
0.0
 10
172.25
 20
105.0
 30
0.0
 10
172.25
 20
105.0
 30
0.0
 10
172.25
 20
107.75
 30
0.0
 10
170.0
 20
110.0
 30
0.0
 10
167.25
 20
110.0
 30
0.0
 10
167.25
 20
110.0
 30
0.0
 10
167.25
 20
110.0
 30
0.0
 10
165.25
 20
110.0
 30
0.0
 10
165.25
 20
110.0
 30
0.0
 10
165.25
 20
110.0
 30
0.0
 10
165.1662
 20
110.0
 30
0.0
 10
165.0828
 20
109.9978
 30
0.0
 10
165.0
 20
109.9937
 30
0.0
 10
165.0
 20
109.9937
 30
0.0
 10
165.0
 20
109.9937
 30
0.0
 10
165.0
 20
141.2499
 30
0.0
 10
165.0
 20
141.2499
 30
0.0
 10
165.0
 20
141.2499
 30
0.0
 10
165.0
 20
143.3125
 30
0.0
 10
166.6875
 20
145.0
 30
0.0
 10
168.75
 20
145.0
 30
0.0
 10
168.75
 20
145.0
 30
0.0
 10
168.75
 20
145.0
 30
0.0
 10
180.0
 20
145.0
 30
0.0
 10
180.0
 20
145.0
 30
0.0
  0
SPLINE
  5
94
330
1F
100
AcDbEntity
  8
Layer 1
370
     0
100
AcDbSpline
210
0.0
220
0.0
230
1.0
 70
    11
 71
     3
 72
    36
 73
    32
 74
     0
 42
0.0000000001
 43
0.0000000001
 12
1.0
 22
0.0
 32
0.0
 13
1.0
 23
0.0
 33
0.0
 40
0.0
 40
0.0
 40
0.0
 40
0.0
 40
0.1111111111111111
 40
0.1111111111111111
 40
0.1111111111111111
 40
0.1111111111111111
 40
0.2222222222222222
 40
0.2222222222222222
 40
0.2222222222222222
 40
0.2222222222222222
 40
0.3333333333333333
 40
0.3333333333333333
 40
0.3333333333333333
 40
0.3333333333333333
 40
0.4444444444444444
 40
0.4444444444444444
 40
0.4444444444444444
 40
0.4444444444444444
 40
0.5555555555555556
 40
0.5555555555555556
 40
0.5555555555555556
 40
0.5555555555555556
 40
0.6666666666666666
 40
0.6666666666666666
 40
0.6666666666666666
 40
0.6666666666666666
 40
0.7777777777777778
 40
0.7777777777777778
 40
0.7777777777777778
 40
0.7777777777777778
 40
1.0
 40
1.0
 40
1.0
 40
1.0
 10
186.3999
 20
136.9
 30
0.0
 10
186.3999
 20
136.9
 30
0.0
 10
188.6001
 20
136.9
 30
0.0
 10
188.6001
 20
136.9
 30
0.0
 10
188.6001
 20
136.9
 30
0.0
 10
189.6451
 20
136.9
 30
0.0
 10
190.5
 20
136.0452
 30
0.0
 10
190.5
 20
135.0001
 30
0.0
 10
190.5
 20
135.0001
 30
0.0
 10
190.5
 20
135.0001
 30
0.0
 10
190.5
 20
134.9999
 30
0.0
 10
190.5
 20
134.9999
 30
0.0
 10
190.5
 20
134.9999
 30
0.0
 10
190.5
 20
133.9548
 30
0.0
 10
189.6451
 20
133.1
 30
0.0
 10
188.6001
 20
133.1
 30
0.0
 10
188.6001
 20
133.1
 30
0.0
 10
188.6001
 20
133.1
 30
0.0
 10
186.3999
 20
133.1
 30
0.0
 10
186.3999
 20
133.1
 30
0.0
 10
186.3999
 20
133.1
 30
0.0
 10
185.3549
 20
133.1
 30
0.0
 10
184.5
 20
133.9548
 30
0.0
 10
184.5
 20
134.9999
 30
0.0
 10
184.5
 20
134.9999
 30
0.0
 10
184.5
 20
134.9999
 30
0.0
 10
184.5
 20
135.0001
 30
0.0
 10
184.5
 20
135.0001
 30
0.0
 10
184.5
 20
135.0001
 30
0.0
 10
184.5
 20
136.0452
 30
0.0
 10
185.3549
 20
136.9
 30
0.0
 10
186.3999
 20
136.9
 30
0.0
  0
SPLINE
  5
95
330
1F
100
AcDbEntity
  8
Layer 1
370
     0
100
AcDbSpline
210
0.0
220
0.0
230
1.0
 70
    11
 71
     3
 72
    36
 73
    32
 74
     0
 42
0.0000000001
 43
0.0000000001
 12
1.0
 22
0.0
 32
0.0
 13
1.0
 23
0.0
 33
0.0
 40
0.0
 40
0.0
 40
0.0
 40
0.0
 40
0.1111111111111111
 40
0.1111111111111111
 40
0.1111111111111111
 40
0.1111111111111111
 40
0.2222222222222222
 40
0.2222222222222222
 40
0.2222222222222222
 40
0.2222222222222222
 40
0.3333333333333333
 40
0.3333333333333333
 40
0.3333333333333333
 40
0.3333333333333333
 40
0.4444444444444444
 40
0.4444444444444444
 40
0.4444444444444444
 40
0.4444444444444444
 40
0.5555555555555556
 40
0.5555555555555556
 40
0.5555555555555556
 40
0.5555555555555556
 40
0.6666666666666666
 40
0.6666666666666666
 40
0.6666666666666666
 40
0.6666666666666666
 40
0.7777777777777778
 40
0.7777777777777778
 40
0.7777777777777778
 40
0.7777777777777778
 40
1.0
 40
1.0
 40
1.0
 40
1.0
 10
186.3999
 20
116.9
 30
0.0
 10
186.3999
 20
116.9
 30
0.0
 10
188.6001
 20
116.9
 30
0.0
 10
188.6001
 20
116.9
 30
0.0
 10
188.6001
 20
116.9
 30
0.0
 10
189.6451
 20
116.9
 30
0.0
 10
190.5
 20
116.0452
 30
0.0
 10
190.5
 20
115.0001
 30
0.0
 10
190.5
 20
115.0001
 30
0.0
 10
190.5
 20
115.0001
 30
0.0
 10
190.5
 20
114.9999
 30
0.0
 10
190.5
 20
114.9999
 30
0.0
 10
190.5
 20
114.9999
 30
0.0
 10
190.5
 20
113.9548
 30
0.0
 10
189.6451
 20
113.1
 30
0.0
 10
188.6001
 20
113.1
 30
0.0
 10
188.6001
 20
113.1
 30
0.0
 10
188.6001
 20
113.1
 30
0.0
 10
186.3999
 20
113.1
 30
0.0
 10
186.3999
 20
113.1
 30
0.0
 10
186.3999
 20
113.1
 30
0.0
 10
185.3549
 20
113.1
 30
0.0
 10
184.5
 20
113.9548
 30
0.0
 10
184.5
 20
114.9999
 30
0.0
 10
184.5
 20
114.9999
 30
0.0
 10
184.5
 20
114.9999
 30
0.0
 10
184.5
 20
115.0001
 30
0.0
 10
184.5
 20
115.0001
 30
0.0
 10
184.5
 20
115.0001
 30
0.0
 10
184.5
 20
116.0452
 30
0.0
 10
185.3549
 20
116.9
 30
0.0
 10
186.3999
 20
116.9
 30
0.0
  0
SPLINE
  5
96
330
1F
100
AcDbEntity
  8
Layer 1
370
     0
100
AcDbSpline
210
0.0
220
0.0
230
1.0
 70
    11
 71
     3
 72
    36
 73
    32
 74
     0
 42
0.0000000001
 43
0.0000000001
 12
1.0
 22
0.0
 32
0.0
 13
1.0
 23
0.0
 33
0.0
 40
0.0
 40
0.0
 40
0.0
 40
0.0
 40
0.1111111111111111
 40
0.1111111111111111
 40
0.1111111111111111
 40
0.1111111111111111
 40
0.2222222222222222
 40
0.2222222222222222
 40
0.2222222222222222
 40
0.2222222222222222
 40
0.3333333333333333
 40
0.3333333333333333
 40
0.3333333333333333
 40
0.3333333333333333
 40
0.4444444444444444
 40
0.4444444444444444
 40
0.4444444444444444
 40
0.4444444444444444
 40
0.5555555555555556
 40
0.5555555555555556
 40
0.5555555555555556
 40
0.5555555555555556
 40
0.6666666666666666
 40
0.6666666666666666
 40
0.6666666666666666
 40
0.6666666666666666
 40
0.7777777777777778
 40
0.7777777777777778
 40
0.7777777777777778
 40
0.7777777777777778
 40
1.0
 40
1.0
 40
1.0
 40
1.0
 10
186.3999
 20
96.9
 30
0.0
 10
186.3999
 20
96.9
 30
0.0
 10
188.6001
 20
96.9
 30
0.0
 10
188.6001
 20
96.9
 30
0.0
 10
188.6001
 20
96.9
 30
0.0
 10
189.6451
 20
96.9
 30
0.0
 10
190.5
 20
96.0452
 30
0.0
 10
190.5
 20
95.0001
 30
0.0
 10
190.5
 20
95.0001
 30
0.0
 10
190.5
 20
95.0001
 30
0.0
 10
190.5
 20
94.9999
 30
0.0
 10
190.5
 20
94.9999
 30
0.0
 10
190.5
 20
94.9999
 30
0.0
 10
190.5
 20
93.9548
 30
0.0
 10
189.6451
 20
93.1
 30
0.0
 10
188.6001
 20
93.1
 30
0.0
 10
188.6001
 20
93.1
 30
0.0
 10
188.6001
 20
93.1
 30
0.0
 10
186.3999
 20
93.1
 30
0.0
 10
186.3999
 20
93.1
 30
0.0
 10
186.3999
 20
93.1
 30
0.0
 10
185.3549
 20
93.1
 30
0.0
 10
184.5
 20
93.9548
 30
0.0
 10
184.5
 20
94.9999
 30
0.0
 10
184.5
 20
94.9999
 30
0.0
 10
184.5
 20
94.9999
 30
0.0
 10
184.5
 20
95.0001
 30
0.0
 10
184.5
 20
95.0001
 30
0.0
 10
184.5
 20
95.0001
 30
0.0
 10
184.5
 20
96.0452
 30
0.0
 10
185.3549
 20
96.9
 30
0.0
 10
186.3999
 20
96.9
 30
0.0
  0
SPLINE
  5
97
330
1F
100
AcDbEntity
  8
Layer 1
370
     0
100
AcDbSpline
210
0.0
220
0.0
230
1.0
 70
    11
 71
     3
 72
    36
 73
    32
 74
     0
 42
0.0000000001
 43
0.0000000001
 12
1.0
 22
0.0
 32
0.0
 13
1.0
 23
0.0
 33
0.0
 40
0.0
 40
0.0
 40
0.0
 40
0.0
 40
0.1111111111111111
 40
0.1111111111111111
 40
0.1111111111111111
 40
0.1111111111111111
 40
0.2222222222222222
 40
0.2222222222222222
 40
0.2222222222222222
 40
0.2222222222222222
 40
0.3333333333333333
 40
0.3333333333333333
 40
0.3333333333333333
 40
0.3333333333333333
 40
0.4444444444444444
 40
0.4444444444444444
 40
0.4444444444444444
 40
0.4444444444444444
 40
0.5555555555555556
 40
0.5555555555555556
 40
0.5555555555555556
 40
0.5555555555555556
 40
0.6666666666666666
 40
0.6666666666666666
 40
0.6666666666666666
 40
0.6666666666666666
 40
0.7777777777777778
 40
0.7777777777777778
 40
0.7777777777777778
 40
0.7777777777777778
 40
1.0
 40
1.0
 40
1.0
 40
1.0
 10
186.3999
 20
76.9
 30
0.0
 10
186.3999
 20
76.9
 30
0.0
 10
188.6001
 20
76.9
 30
0.0
 10
188.6001
 20
76.9
 30
0.0
 10
188.6001
 20
76.9
 30
0.0
 10
189.6451
 20
76.9
 30
0.0
 10
190.5
 20
76.0452
 30
0.0
 10
190.5
 20
75.0001
 30
0.0
 10
190.5
 20
75.0001
 30
0.0
 10
190.5
 20
75.0001
 30
0.0
 10
190.5
 20
74.9999
 30
0.0
 10
190.5
 20
74.9999
 30
0.0
 10
190.5
 20
74.9999
 30
0.0
 10
190.5
 20
73.9548
 30
0.0
 10
189.6451
 20
73.1
 30
0.0
 10
188.6001
 20
73.1
 30
0.0
 10
188.6001
 20
73.1
 30
0.0
 10
188.6001
 20
73.1
 30
0.0
 10
186.3999
 20
73.1
 30
0.0
 10
186.3999
 20
73.1
 30
0.0
 10
186.3999
 20
73.1
 30
0.0
 10
185.3549
 20
73.1
 30
0.0
 10
184.5
 20
73.9548
 30
0.0
 10
184.5
 20
74.9999
 30
0.0
 10
184.5
 20
74.9999
 30
0.0
 10
184.5
 20
74.9999
 30
0.0
 10
184.5
 20
75.0001
 30
0.0
 10
184.5
 20
75.0001
 30
0.0
 10
184.5
 20
75.0001
 30
0.0
 10
184.5
 20
76.0452
 30
0.0
 10
185.3549
 20
76.9
 30
0.0
 10
186.3999
 20
76.9
 30
0.0
  0
SPLINE
  5
98
330
1F
100
AcDbEntity
  8
Layer 1
370
     0
100
AcDbSpline
210
0.0
220
0.0
230
1.0
 70
    11
 71
     3
 72
    36
 73
    32
 74
     0
 42
0.0000000001
 43
0.0000000001
 12
1.0
 22
0.0
 32
0.0
 13
1.0
 23
0.0
 33
0.0
 40
0.0
 40
0.0
 40
0.0
 40
0.0
 40
0.1111111111111111
 40
0.1111111111111111
 40
0.1111111111111111
 40
0.1111111111111111
 40
0.2222222222222222
 40
0.2222222222222222
 40
0.2222222222222222
 40
0.2222222222222222
 40
0.3333333333333333
 40
0.3333333333333333
 40
0.3333333333333333
 40
0.3333333333333333
 40
0.4444444444444444
 40
0.4444444444444444
 40
0.4444444444444444
 40
0.4444444444444444
 40
0.5555555555555556
 40
0.5555555555555556
 40
0.5555555555555556
 40
0.5555555555555556
 40
0.6666666666666666
 40
0.6666666666666666
 40
0.6666666666666666
 40
0.6666666666666666
 40
0.7777777777777778
 40
0.7777777777777778
 40
0.7777777777777778
 40
0.7777777777777778
 40
1.0
 40
1.0
 40
1.0
 40
1.0
 10
186.3999
 20
56.9
 30
0.0
 10
186.3999
 20
56.9
 30
0.0
 10
188.6001
 20
56.9
 30
0.0
 10
188.6001
 20
56.9
 30
0.0
 10
188.6001
 20
56.9
 30
0.0
 10
189.6451
 20
56.9
 30
0.0
 10
190.5
 20
56.0452
 30
0.0
 10
190.5
 20
55.0001
 30
0.0
 10
190.5
 20
55.0001
 30
0.0
 10
190.5
 20
55.0001
 30
0.0
 10
190.5
 20
54.9999
 30
0.0
 10
190.5
 20
54.9999
 30
0.0
 10
190.5
 20
54.9999
 30
0.0
 10
190.5
 20
53.9548
 30
0.0
 10
189.6451
 20
53.1
 30
0.0
 10
188.6001
 20
53.1
 30
0.0
 10
188.6001
 20
53.1
 30
0.0
 10
188.6001
 20
53.1
 30
0.0
 10
186.3999
 20
53.1
 30
0.0
 10
186.3999
 20
53.1
 30
0.0
 10
186.3999
 20
53.1
 30
0.0
 10
185.3549
 20
53.1
 30
0.0
 10
184.5
 20
53.9548
 30
0.0
 10
184.5
 20
54.9999
 30
0.0
 10
184.5
 20
54.9999
 30
0.0
 10
184.5
 20
54.9999
 30
0.0
 10
184.5
 20
55.0001
 30
0.0
 10
184.5
 20
55.0001
 30
0.0
 10
184.5
 20
55.0001
 30
0.0
 10
184.5
 20
56.0452
 30
0.0
 10
185.3549
 20
56.9
 30
0.0
 10
186.3999
 20
56.9
 30
0.0
  0
SPLINE
  5
99
330
1F
100
AcDbEntity
  8
Layer 1
370
     0
100
AcDbSpline
210
0.0
220
0.0
230
1.0
 70
    11
 71
     3
 72
    36
 73
    32
 74
     0
 42
0.0000000001
 43
0.0000000001
 12
1.0
 22
0.0
 32
0.0
 13
1.0
 23
0.0
 33
0.0
 40
0.0
 40
0.0
 40
0.0
 40
0.0
 40
0.1111111111111111
 40
0.1111111111111111
 40
0.1111111111111111
 40
0.1111111111111111
 40
0.2222222222222222
 40
0.2222222222222222
 40
0.2222222222222222
 40
0.2222222222222222
 40
0.3333333333333333
 40
0.3333333333333333
 40
0.3333333333333333
 40
0.3333333333333333
 40
0.4444444444444444
 40
0.4444444444444444
 40
0.4444444444444444
 40
0.4444444444444444
 40
0.5555555555555556
 40
0.5555555555555556
 40
0.5555555555555556
 40
0.5555555555555556
 40
0.6666666666666666
 40
0.6666666666666666
 40
0.6666666666666666
 40
0.6666666666666666
 40
0.7777777777777778
 40
0.7777777777777778
 40
0.7777777777777778
 40
0.7777777777777778
 40
1.0
 40
1.0
 40
1.0
 40
1.0
 10
186.3999
 20
36.9
 30
0.0
 10
186.3999
 20
36.9
 30
0.0
 10
188.6001
 20
36.9
 30
0.0
 10
188.6001
 20
36.9
 30
0.0
 10
188.6001
 20
36.9
 30
0.0
 10
189.6451
 20
36.9
 30
0.0
 10
190.5
 20
36.0452
 30
0.0
 10
190.5
 20
35.0001
 30
0.0
 10
190.5
 20
35.0001
 30
0.0
 10
190.5
 20
35.0001
 30
0.0
 10
190.5
 20
34.9999
 30
0.0
 10
190.5
 20
34.9999
 30
0.0
 10
190.5
 20
34.9999
 30
0.0
 10
190.5
 20
33.9548
 30
0.0
 10
189.6451
 20
33.1
 30
0.0
 10
188.6001
 20
33.1
 30
0.0
 10
188.6001
 20
33.1
 30
0.0
 10
188.6001
 20
33.1
 30
0.0
 10
186.3999
 20
33.1
 30
0.0
 10
186.3999
 20
33.1
 30
0.0
 10
186.3999
 20
33.1
 30
0.0
 10
185.3549
 20
33.1
 30
0.0
 10
184.5
 20
33.9548
 30
0.0
 10
184.5
 20
34.9999
 30
0.0
 10
184.5
 20
34.9999
 30
0.0
 10
184.5
 20
34.9999
 30
0.0
 10
184.5
 20
35.0001
 30
0.0
 10
184.5
 20
35.0001
 30
0.0
 10
184.5
 20
35.0001
 30
0.0
 10
184.5
 20
36.0452
 30
0.0
 10
185.3549
 20
36.9
 30
0.0
 10
186.3999
 20
36.9
 30
0.0
  0
SPLINE
  5
9A
330
1F
100
AcDbEntity
  8
Layer 1
370
     0
100
AcDbSpline
210
0.0
220
0.0
230
1.0
 70
    11
 71
     3
 72
    36
 73
    32
 74
     0
 42
0.0000000001
 43
0.0000000001
 12
1.0
 22
0.0
 32
0.0
 13
1.0
 23
0.0
 33
0.0
 40
0.0
 40
0.0
 40
0.0
 40
0.0
 40
0.1111111111111111
 40
0.1111111111111111
 40
0.1111111111111111
 40
0.1111111111111111
 40
0.2222222222222222
 40
0.2222222222222222
 40
0.2222222222222222
 40
0.2222222222222222
 40
0.3333333333333333
 40
0.3333333333333333
 40
0.3333333333333333
 40
0.3333333333333333
 40
0.4444444444444444
 40
0.4444444444444444
 40
0.4444444444444444
 40
0.4444444444444444
 40
0.5555555555555556
 40
0.5555555555555556
 40
0.5555555555555556
 40
0.5555555555555556
 40
0.6666666666666666
 40
0.6666666666666666
 40
0.6666666666666666
 40
0.6666666666666666
 40
0.7777777777777778
 40
0.7777777777777778
 40
0.7777777777777778
 40
0.7777777777777778
 40
1.0
 40
1.0
 40
1.0
 40
1.0
 10
186.3999
 20
16.9
 30
0.0
 10
186.3999
 20
16.9
 30
0.0
 10
188.6001
 20
16.9
 30
0.0
 10
188.6001
 20
16.9
 30
0.0
 10
188.6001
 20
16.9
 30
0.0
 10
189.6451
 20
16.9
 30
0.0
 10
190.5
 20
16.0452
 30
0.0
 10
190.5
 20
15.0001
 30
0.0
 10
190.5
 20
15.0001
 30
0.0
 10
190.5
 20
15.0001
 30
0.0
 10
190.5
 20
14.9999
 30
0.0
 10
190.5
 20
14.9999
 30
0.0
 10
190.5
 20
14.9999
 30
0.0
 10
190.5
 20
13.9548
 30
0.0
 10
189.6451
 20
13.1
 30
0.0
 10
188.6001
 20
13.1
 30
0.0
 10
188.6001
 20
13.1
 30
0.0
 10
188.6001
 20
13.1
 30
0.0
 10
186.3999
 20
13.1
 30
0.0
 10
186.3999
 20
13.1
 30
0.0
 10
186.3999
 20
13.1
 30
0.0
 10
185.3549
 20
13.1
 30
0.0
 10
184.5
 20
13.9548
 30
0.0
 10
184.5
 20
14.9999
 30
0.0
 10
184.5
 20
14.9999
 30
0.0
 10
184.5
 20
14.9999
 30
0.0
 10
184.5
 20
15.0001
 30
0.0
 10
184.5
 20
15.0001
 30
0.0
 10
184.5
 20
15.0001
 30
0.0
 10
184.5
 20
16.0452
 30
0.0
 10
185.3549
 20
16.9
 30
0.0
 10
186.3999
 20
16.9
 30
0.0
  0
SPLINE
  5
9B
330
1F
100
AcDbEntity
  8
Layer 1
370
     0
100
AcDbSpline
210
0.0
220
0.0
230
1.0
 70
    11
 71
     3
 72
    36
 73
    32
 74
     0
 42
0.0000000001
 43
0.0000000001
 12
1.0
 22
0.0
 32
0.0
 13
1.0
 23
0.0
 33
0.0
 40
0.0
 40
0.0
 40
0.0
 40
0.0
 40
0.1111111111111111
 40
0.1111111111111111
 40
0.1111111111111111
 40
0.1111111111111111
 40
0.2222222222222222
 40
0.2222222222222222
 40
0.2222222222222222
 40
0.2222222222222222
 40
0.3333333333333333
 40
0.3333333333333333
 40
0.3333333333333333
 40
0.3333333333333333
 40
0.4444444444444444
 40
0.4444444444444444
 40
0.4444444444444444
 40
0.4444444444444444
 40
0.5555555555555556
 40
0.5555555555555556
 40
0.5555555555555556
 40
0.5555555555555556
 40
0.6666666666666666
 40
0.6666666666666666
 40
0.6666666666666666
 40
0.6666666666666666
 40
0.7777777777777778
 40
0.7777777777777778
 40
0.7777777777777778
 40
0.7777777777777778
 40
1.0
 40
1.0
 40
1.0
 40
1.0
 10
186.3999
 20
-3.1
 30
0.0
 10
186.3999
 20
-3.1
 30
0.0
 10
188.6001
 20
-3.1
 30
0.0
 10
188.6001
 20
-3.1
 30
0.0
 10
188.6001
 20
-3.1
 30
0.0
 10
189.6451
 20
-3.1
 30
0.0
 10
190.5
 20
-3.9548
 30
0.0
 10
190.5
 20
-4.9999
 30
0.0
 10
190.5
 20
-4.9999
 30
0.0
 10
190.5
 20
-4.9999
 30
0.0
 10
190.5
 20
-5.0001
 30
0.0
 10
190.5
 20
-5.0001
 30
0.0
 10
190.5
 20
-5.0001
 30
0.0
 10
190.5
 20
-6.0452
 30
0.0
 10
189.6451
 20
-6.9
 30
0.0
 10
188.6001
 20
-6.9
 30
0.0
 10
188.6001
 20
-6.9
 30
0.0
 10
188.6001
 20
-6.9
 30
0.0
 10
186.3999
 20
-6.9
 30
0.0
 10
186.3999
 20
-6.9
 30
0.0
 10
186.3999
 20
-6.9
 30
0.0
 10
185.3549
 20
-6.9
 30
0.0
 10
184.5
 20
-6.0452
 30
0.0
 10
184.5
 20
-5.0001
 30
0.0
 10
184.5
 20
-5.0001
 30
0.0
 10
184.5
 20
-5.0001
 30
0.0
 10
184.5
 20
-4.9999
 30
0.0
 10
184.5
 20
-4.9999
 30
0.0
 10
184.5
 20
-4.9999
 30
0.0
 10
184.5
 20
-3.9548
 30
0.0
 10
185.3549
 20
-3.1
 30
0.0
 10
186.3999
 20
-3.1
 30
0.0
  0
SPLINE
  5
9C
330
1F
100
AcDbEntity
  8
Layer 1
370
     0
100
AcDbSpline
210
0.0
220
0.0
230
1.0
 70
    11
 71
     3
 72
    36
 73
    32
 74
     0
 42
0.0000000001
 43
0.0000000001
 12
1.0
 22
0.0
 32
0.0
 13
1.0
 23
0.0
 33
0.0
 40
0.0
 40
0.0
 40
0.0
 40
0.0
 40
0.1111111111111111
 40
0.1111111111111111
 40
0.1111111111111111
 40
0.1111111111111111
 40
0.2222222222222222
 40
0.2222222222222222
 40
0.2222222222222222
 40
0.2222222222222222
 40
0.3333333333333333
 40
0.3333333333333333
 40
0.3333333333333333
 40
0.3333333333333333
 40
0.4444444444444444
 40
0.4444444444444444
 40
0.4444444444444444
 40
0.4444444444444444
 40
0.5555555555555556
 40
0.5555555555555556
 40
0.5555555555555556
 40
0.5555555555555556
 40
0.6666666666666666
 40
0.6666666666666666
 40
0.6666666666666666
 40
0.6666666666666666
 40
0.7777777777777778
 40
0.7777777777777778
 40
0.7777777777777778
 40
0.7777777777777778
 40
1.0
 40
1.0
 40
1.0
 40
1.0
 10
173.6001
 20
136.9
 30
0.0
 10
173.6001
 20
136.9
 30
0.0
 10
171.3999
 20
136.9
 30
0.0
 10
171.3999
 20
136.9
 30
0.0
 10
171.3999
 20
136.9
 30
0.0
 10
170.3549
 20
136.9
 30
0.0
 10
169.5
 20
136.0452
 30
0.0
 10
169.5
 20
135.0001
 30
0.0
 10
169.5
 20
135.0001
 30
0.0
 10
169.5
 20
135.0001
 30
0.0
 10
169.5
 20
134.9999
 30
0.0
 10
169.5
 20
134.9999
 30
0.0
 10
169.5
 20
134.9999
 30
0.0
 10
169.5
 20
133.9548
 30
0.0
 10
170.3549
 20
133.1
 30
0.0
 10
171.3999
 20
133.1
 30
0.0
 10
171.3999
 20
133.1
 30
0.0
 10
171.3999
 20
133.1
 30
0.0
 10
173.6001
 20
133.1
 30
0.0
 10
173.6001
 20
133.1
 30
0.0
 10
173.6001
 20
133.1
 30
0.0
 10
174.6451
 20
133.1
 30
0.0
 10
175.5
 20
133.9548
 30
0.0
 10
175.5
 20
134.9999
 30
0.0
 10
175.5
 20
134.9999
 30
0.0
 10
175.5
 20
134.9999
 30
0.0
 10
175.5
 20
135.0001
 30
0.0
 10
175.5
 20
135.0001
 30
0.0
 10
175.5
 20
135.0001
 30
0.0
 10
175.5
 20
136.0452
 30
0.0
 10
174.6451
 20
136.9
 30
0.0
 10
173.6001
 20
136.9
 30
0.0
  0
SPLINE
  5
9D
330
1F
100
AcDbEntity
  8
Layer 1
370
     0
100
AcDbSpline
210
0.0
220
0.0
230
1.0
 70
    11
 71
     3
 72
    36
 73
    32
 74
     0
 42
0.0000000001
 43
0.0000000001
 12
1.0
 22
0.0
 32
0.0
 13
1.0
 23
0.0
 33
0.0
 40
0.0
 40
0.0
 40
0.0
 40
0.0
 40
0.1111111111111111
 40
0.1111111111111111
 40
0.1111111111111111
 40
0.1111111111111111
 40
0.2222222222222222
 40
0.2222222222222222
 40
0.2222222222222222
 40
0.2222222222222222
 40
0.3333333333333333
 40
0.3333333333333333
 40
0.3333333333333333
 40
0.3333333333333333
 40
0.4444444444444444
 40
0.4444444444444444
 40
0.4444444444444444
 40
0.4444444444444444
 40
0.5555555555555556
 40
0.5555555555555556
 40
0.5555555555555556
 40
0.5555555555555556
 40
0.6666666666666666
 40
0.6666666666666666
 40
0.6666666666666666
 40
0.6666666666666666
 40
0.7777777777777778
 40
0.7777777777777778
 40
0.7777777777777778
 40
0.7777777777777778
 40
1.0
 40
1.0
 40
1.0
 40
1.0
 10
173.6001
 20
116.9
 30
0.0
 10
173.6001
 20
116.9
 30
0.0
 10
171.3999
 20
116.9
 30
0.0
 10
171.3999
 20
116.9
 30
0.0
 10
171.3999
 20
116.9
 30
0.0
 10
170.3549
 20
116.9
 30
0.0
 10
169.5
 20
116.0452
 30
0.0
 10
169.5
 20
115.0001
 30
0.0
 10
169.5
 20
115.0001
 30
0.0
 10
169.5
 20
115.0001
 30
0.0
 10
169.5
 20
114.9999
 30
0.0
 10
169.5
 20
114.9999
 30
0.0
 10
169.5
 20
114.9999
 30
0.0
 10
169.5
 20
113.9548
 30
0.0
 10
170.3549
 20
113.1
 30
0.0
 10
171.3999
 20
113.1
 30
0.0
 10
171.3999
 20
113.1
 30
0.0
 10
171.3999
 20
113.1
 30
0.0
 10
173.6001
 20
113.1
 30
0.0
 10
173.6001
 20
113.1
 30
0.0
 10
173.6001
 20
113.1
 30
0.0
 10
174.6451
 20
113.1
 30
0.0
 10
175.5
 20
113.9548
 30
0.0
 10
175.5
 20
114.9999
 30
0.0
 10
175.5
 20
114.9999
 30
0.0
 10
175.5
 20
114.9999
 30
0.0
 10
175.5
 20
115.0001
 30
0.0
 10
175.5
 20
115.0001
 30
0.0
 10
175.5
 20
115.0001
 30
0.0
 10
175.5
 20
116.0452
 30
0.0
 10
174.6451
 20
116.9
 30
0.0
 10
173.6001
 20
116.9
 30
0.0
  0
SPLINE
  5
9E
330
1F
100
AcDbEntity
  8
Layer 1
370
     0
100
AcDbSpline
210
0.0
220
0.0
230
1.0
 70
    11
 71
     3
 72
    36
 73
    32
 74
     0
 42
0.0000000001
 43
0.0000000001
 12
1.0
 22
0.0
 32
0.0
 13
1.0
 23
0.0
 33
0.0
 40
0.0
 40
0.0
 40
0.0
 40
0.0
 40
0.1111111111111111
 40
0.1111111111111111
 40
0.1111111111111111
 40
0.1111111111111111
 40
0.2222222222222222
 40
0.2222222222222222
 40
0.2222222222222222
 40
0.2222222222222222
 40
0.3333333333333333
 40
0.3333333333333333
 40
0.3333333333333333
 40
0.3333333333333333
 40
0.4444444444444444
 40
0.4444444444444444
 40
0.4444444444444444
 40
0.4444444444444444
 40
0.5555555555555556
 40
0.5555555555555556
 40
0.5555555555555556
 40
0.5555555555555556
 40
0.6666666666666666
 40
0.6666666666666666
 40
0.6666666666666666
 40
0.6666666666666666
 40
0.7777777777777778
 40
0.7777777777777778
 40
0.7777777777777778
 40
0.7777777777777778
 40
1.0
 40
1.0
 40
1.0
 40
1.0
 10
173.6001
 20
96.9
 30
0.0
 10
173.6001
 20
96.9
 30
0.0
 10
171.3999
 20
96.9
 30
0.0
 10
171.3999
 20
96.9
 30
0.0
 10
171.3999
 20
96.9
 30
0.0
 10
170.3549
 20
96.9
 30
0.0
 10
169.5
 20
96.0452
 30
0.0
 10
169.5
 20
95.0001
 30
0.0
 10
169.5
 20
95.0001
 30
0.0
 10
169.5
 20
95.0001
 30
0.0
 10
169.5
 20
94.9999
 30
0.0
 10
169.5
 20
94.9999
 30
0.0
 10
169.5
 20
94.9999
 30
0.0
 10
169.5
 20
93.9548
 30
0.0
 10
170.3549
 20
93.1
 30
0.0
 10
171.3999
 20
93.1
 30
0.0
 10
171.3999
 20
93.1
 30
0.0
 10
171.3999
 20
93.1
 30
0.0
 10
173.6001
 20
93.1
 30
0.0
 10
173.6001
 20
93.1
 30
0.0
 10
173.6001
 20
93.1
 30
0.0
 10
174.6451
 20
93.1
 30
0.0
 10
175.5
 20
93.9548
 30
0.0
 10
175.5
 20
94.9999
 30
0.0
 10
175.5
 20
94.9999
 30
0.0
 10
175.5
 20
94.9999
 30
0.0
 10
175.5
 20
95.0001
 30
0.0
 10
175.5
 20
95.0001
 30
0.0
 10
175.5
 20
95.0001
 30
0.0
 10
175.5
 20
96.0452
 30
0.0
 10
174.6451
 20
96.9
 30
0.0
 10
173.6001
 20
96.9
 30
0.0
  0
SPLINE
  5
9F
330
1F
100
AcDbEntity
  8
Layer 1
370
     0
100
AcDbSpline
210
0.0
220
0.0
230
1.0
 70
    11
 71
     3
 72
    36
 73
    32
 74
     0
 42
0.0000000001
 43
0.0000000001
 12
1.0
 22
0.0
 32
0.0
 13
1.0
 23
0.0
 33
0.0
 40
0.0
 40
0.0
 40
0.0
 40
0.0
 40
0.1111111111111111
 40
0.1111111111111111
 40
0.1111111111111111
 40
0.1111111111111111
 40
0.2222222222222222
 40
0.2222222222222222
 40
0.2222222222222222
 40
0.2222222222222222
 40
0.3333333333333333
 40
0.3333333333333333
 40
0.3333333333333333
 40
0.3333333333333333
 40
0.4444444444444444
 40
0.4444444444444444
 40
0.4444444444444444
 40
0.4444444444444444
 40
0.5555555555555556
 40
0.5555555555555556
 40
0.5555555555555556
 40
0.5555555555555556
 40
0.6666666666666666
 40
0.6666666666666666
 40
0.6666666666666666
 40
0.6666666666666666
 40
0.7777777777777778
 40
0.7777777777777778
 40
0.7777777777777778
 40
0.7777777777777778
 40
1.0
 40
1.0
 40
1.0
 40
1.0
 10
173.6001
 20
76.9
 30
0.0
 10
173.6001
 20
76.9
 30
0.0
 10
171.3999
 20
76.9
 30
0.0
 10
171.3999
 20
76.9
 30
0.0
 10
171.3999
 20
76.9
 30
0.0
 10
170.3549
 20
76.9
 30
0.0
 10
169.5
 20
76.0452
 30
0.0
 10
169.5
 20
75.0001
 30
0.0
 10
169.5
 20
75.0001
 30
0.0
 10
169.5
 20
75.0001
 30
0.0
 10
169.5
 20
74.9999
 30
0.0
 10
169.5
 20
74.9999
 30
0.0
 10
169.5
 20
74.9999
 30
0.0
 10
169.5
 20
73.9548
 30
0.0
 10
170.3549
 20
73.1
 30
0.0
 10
171.3999
 20
73.1
 30
0.0
 10
171.3999
 20
73.1
 30
0.0
 10
171.3999
 20
73.1
 30
0.0
 10
173.6001
 20
73.1
 30
0.0
 10
173.6001
 20
73.1
 30
0.0
 10
173.6001
 20
73.1
 30
0.0
 10
174.6451
 20
73.1
 30
0.0
 10
175.5
 20
73.9548
 30
0.0
 10
175.5
 20
74.9999
 30
0.0
 10
175.5
 20
74.9999
 30
0.0
 10
175.5
 20
74.9999
 30
0.0
 10
175.5
 20
75.0001
 30
0.0
 10
175.5
 20
75.0001
 30
0.0
 10
175.5
 20
75.0001
 30
0.0
 10
175.5
 20
76.0452
 30
0.0
 10
174.6451
 20
76.9
 30
0.0
 10
173.6001
 20
76.9
 30
0.0
  0
SPLINE
  5
A0
330
1F
100
AcDbEntity
  8
Layer 1
370
     0
100
AcDbSpline
210
0.0
220
0.0
230
1.0
 70
    11
 71
     3
 72
    36
 73
    32
 74
     0
 42
0.0000000001
 43
0.0000000001
 12
1.0
 22
0.0
 32
0.0
 13
1.0
 23
0.0
 33
0.0
 40
0.0
 40
0.0
 40
0.0
 40
0.0
 40
0.1111111111111111
 40
0.1111111111111111
 40
0.1111111111111111
 40
0.1111111111111111
 40
0.2222222222222222
 40
0.2222222222222222
 40
0.2222222222222222
 40
0.2222222222222222
 40
0.3333333333333333
 40
0.3333333333333333
 40
0.3333333333333333
 40
0.3333333333333333
 40
0.4444444444444444
 40
0.4444444444444444
 40
0.4444444444444444
 40
0.4444444444444444
 40
0.5555555555555556
 40
0.5555555555555556
 40
0.5555555555555556
 40
0.5555555555555556
 40
0.6666666666666666
 40
0.6666666666666666
 40
0.6666666666666666
 40
0.6666666666666666
 40
0.7777777777777778
 40
0.7777777777777778
 40
0.7777777777777778
 40
0.7777777777777778
 40
1.0
 40
1.0
 40
1.0
 40
1.0
 10
173.6001
 20
56.9
 30
0.0
 10
173.6001
 20
56.9
 30
0.0
 10
171.3999
 20
56.9
 30
0.0
 10
171.3999
 20
56.9
 30
0.0
 10
171.3999
 20
56.9
 30
0.0
 10
170.3549
 20
56.9
 30
0.0
 10
169.5
 20
56.0452
 30
0.0
 10
169.5
 20
55.0001
 30
0.0
 10
169.5
 20
55.0001
 30
0.0
 10
169.5
 20
55.0001
 30
0.0
 10
169.5
 20
54.9999
 30
0.0
 10
169.5
 20
54.9999
 30
0.0
 10
169.5
 20
54.9999
 30
0.0
 10
169.5
 20
53.9548
 30
0.0
 10
170.3549
 20
53.1
 30
0.0
 10
171.3999
 20
53.1
 30
0.0
 10
171.3999
 20
53.1
 30
0.0
 10
171.3999
 20
53.1
 30
0.0
 10
173.6001
 20
53.1
 30
0.0
 10
173.6001
 20
53.1
 30
0.0
 10
173.6001
 20
53.1
 30
0.0
 10
174.6451
 20
53.1
 30
0.0
 10
175.5
 20
53.9548
 30
0.0
 10
175.5
 20
54.9999
 30
0.0
 10
175.5
 20
54.9999
 30
0.0
 10
175.5
 20
54.9999
 30
0.0
 10
175.5
 20
55.0001
 30
0.0
 10
175.5
 20
55.0001
 30
0.0
 10
175.5
 20
55.0001
 30
0.0
 10
175.5
 20
56.0452
 30
0.0
 10
174.6451
 20
56.9
 30
0.0
 10
173.6001
 20
56.9
 30
0.0
  0
SPLINE
  5
A1
330
1F
100
AcDbEntity
  8
Layer 1
370
     0
100
AcDbSpline
210
0.0
220
0.0
230
1.0
 70
    11
 71
     3
 72
    36
 73
    32
 74
     0
 42
0.0000000001
 43
0.0000000001
 12
1.0
 22
0.0
 32
0.0
 13
1.0
 23
0.0
 33
0.0
 40
0.0
 40
0.0
 40
0.0
 40
0.0
 40
0.1111111111111111
 40
0.1111111111111111
 40
0.1111111111111111
 40
0.1111111111111111
 40
0.2222222222222222
 40
0.2222222222222222
 40
0.2222222222222222
 40
0.2222222222222222
 40
0.3333333333333333
 40
0.3333333333333333
 40
0.3333333333333333
 40
0.3333333333333333
 40
0.4444444444444444
 40
0.4444444444444444
 40
0.4444444444444444
 40
0.4444444444444444
 40
0.5555555555555556
 40
0.5555555555555556
 40
0.5555555555555556
 40
0.5555555555555556
 40
0.6666666666666666
 40
0.6666666666666666
 40
0.6666666666666666
 40
0.6666666666666666
 40
0.7777777777777778
 40
0.7777777777777778
 40
0.7777777777777778
 40
0.7777777777777778
 40
1.0
 40
1.0
 40
1.0
 40
1.0
 10
173.6001
 20
36.9
 30
0.0
 10
173.6001
 20
36.9
 30
0.0
 10
171.3999
 20
36.9
 30
0.0
 10
171.3999
 20
36.9
 30
0.0
 10
171.3999
 20
36.9
 30
0.0
 10
170.3549
 20
36.9
 30
0.0
 10
169.5
 20
36.0452
 30
0.0
 10
169.5
 20
35.0001
 30
0.0
 10
169.5
 20
35.0001
 30
0.0
 10
169.5
 20
35.0001
 30
0.0
 10
169.5
 20
34.9999
 30
0.0
 10
169.5
 20
34.9999
 30
0.0
 10
169.5
 20
34.9999
 30
0.0
 10
169.5
 20
33.9548
 30
0.0
 10
170.3549
 20
33.1
 30
0.0
 10
171.3999
 20
33.1
 30
0.0
 10
171.3999
 20
33.1
 30
0.0
 10
171.3999
 20
33.1
 30
0.0
 10
173.6001
 20
33.1
 30
0.0
 10
173.6001
 20
33.1
 30
0.0
 10
173.6001
 20
33.1
 30
0.0
 10
174.6451
 20
33.1
 30
0.0
 10
175.5
 20
33.9548
 30
0.0
 10
175.5
 20
34.9999
 30
0.0
 10
175.5
 20
34.9999
 30
0.0
 10
175.5
 20
34.9999
 30
0.0
 10
175.5
 20
35.0001
 30
0.0
 10
175.5
 20
35.0001
 30
0.0
 10
175.5
 20
35.0001
 30
0.0
 10
175.5
 20
36.0452
 30
0.0
 10
174.6451
 20
36.9
 30
0.0
 10
173.6001
 20
36.9
 30
0.0
  0
SPLINE
  5
A2
330
1F
100
AcDbEntity
  8
Layer 1
370
     0
100
AcDbSpline
210
0.0
220
0.0
230
1.0
 70
    11
 71
     3
 72
    36
 73
    32
 74
     0
 42
0.0000000001
 43
0.0000000001
 12
1.0
 22
0.0
 32
0.0
 13
1.0
 23
0.0
 33
0.0
 40
0.0
 40
0.0
 40
0.0
 40
0.0
 40
0.1111111111111111
 40
0.1111111111111111
 40
0.1111111111111111
 40
0.1111111111111111
 40
0.2222222222222222
 40
0.2222222222222222
 40
0.2222222222222222
 40
0.2222222222222222
 40
0.3333333333333333
 40
0.3333333333333333
 40
0.3333333333333333
 40
0.3333333333333333
 40
0.4444444444444444
 40
0.4444444444444444
 40
0.4444444444444444
 40
0.4444444444444444
 40
0.5555555555555556
 40
0.5555555555555556
 40
0.5555555555555556
 40
0.5555555555555556
 40
0.6666666666666666
 40
0.6666666666666666
 40
0.6666666666666666
 40
0.6666666666666666
 40
0.7777777777777778
 40
0.7777777777777778
 40
0.7777777777777778
 40
0.7777777777777778
 40
1.0
 40
1.0
 40
1.0
 40
1.0
 10
173.6001
 20
16.9
 30
0.0
 10
173.6001
 20
16.9
 30
0.0
 10
171.3999
 20
16.9
 30
0.0
 10
171.3999
 20
16.9
 30
0.0
 10
171.3999
 20
16.9
 30
0.0
 10
170.3549
 20
16.9
 30
0.0
 10
169.5
 20
16.0452
 30
0.0
 10
169.5
 20
15.0001
 30
0.0
 10
169.5
 20
15.0001
 30
0.0
 10
169.5
 20
15.0001
 30
0.0
 10
169.5
 20
14.9999
 30
0.0
 10
169.5
 20
14.9999
 30
0.0
 10
169.5
 20
14.9999
 30
0.0
 10
169.5
 20
13.9548
 30
0.0
 10
170.3549
 20
13.1
 30
0.0
 10
171.3999
 20
13.1
 30
0.0
 10
171.3999
 20
13.1
 30
0.0
 10
171.3999
 20
13.1
 30
0.0
 10
173.6001
 20
13.1
 30
0.0
 10
173.6001
 20
13.1
 30
0.0
 10
173.6001
 20
13.1
 30
0.0
 10
174.6451
 20
13.1
 30
0.0
 10
175.5
 20
13.9548
 30
0.0
 10
175.5
 20
14.9999
 30
0.0
 10
175.5
 20
14.9999
 30
0.0
 10
175.5
 20
14.9999
 30
0.0
 10
175.5
 20
15.0001
 30
0.0
 10
175.5
 20
15.0001
 30
0.0
 10
175.5
 20
15.0001
 30
0.0
 10
175.5
 20
16.0452
 30
0.0
 10
174.6451
 20
16.9
 30
0.0
 10
173.6001
 20
16.9
 30
0.0
  0
SPLINE
  5
A3
330
1F
100
AcDbEntity
  8
Layer 1
370
     0
100
AcDbSpline
210
0.0
220
0.0
230
1.0
 70
    11
 71
     3
 72
    36
 73
    32
 74
     0
 42
0.0000000001
 43
0.0000000001
 12
1.0
 22
0.0
 32
0.0
 13
1.0
 23
0.0
 33
0.0
 40
0.0
 40
0.0
 40
0.0
 40
0.0
 40
0.1111111111111111
 40
0.1111111111111111
 40
0.1111111111111111
 40
0.1111111111111111
 40
0.2222222222222222
 40
0.2222222222222222
 40
0.2222222222222222
 40
0.2222222222222222
 40
0.3333333333333333
 40
0.3333333333333333
 40
0.3333333333333333
 40
0.3333333333333333
 40
0.4444444444444444
 40
0.4444444444444444
 40
0.4444444444444444
 40
0.4444444444444444
 40
0.5555555555555556
 40
0.5555555555555556
 40
0.5555555555555556
 40
0.5555555555555556
 40
0.6666666666666666
 40
0.6666666666666666
 40
0.6666666666666666
 40
0.6666666666666666
 40
0.7777777777777778
 40
0.7777777777777778
 40
0.7777777777777778
 40
0.7777777777777778
 40
1.0
 40
1.0
 40
1.0
 40
1.0
 10
173.6001
 20
-3.1
 30
0.0
 10
173.6001
 20
-3.1
 30
0.0
 10
171.3999
 20
-3.1
 30
0.0
 10
171.3999
 20
-3.1
 30
0.0
 10
171.3999
 20
-3.1
 30
0.0
 10
170.3549
 20
-3.1
 30
0.0
 10
169.5
 20
-3.9548
 30
0.0
 10
169.5
 20
-4.9999
 30
0.0
 10
169.5
 20
-4.9999
 30
0.0
 10
169.5
 20
-4.9999
 30
0.0
 10
169.5
 20
-5.0001
 30
0.0
 10
169.5
 20
-5.0001
 30
0.0
 10
169.5
 20
-5.0001
 30
0.0
 10
169.5
 20
-6.0452
 30
0.0
 10
170.3549
 20
-6.9
 30
0.0
 10
171.3999
 20
-6.9
 30
0.0
 10
171.3999
 20
-6.9
 30
0.0
 10
171.3999
 20
-6.9
 30
0.0
 10
173.6001
 20
-6.9
 30
0.0
 10
173.6001
 20
-6.9
 30
0.0
 10
173.6001
 20
-6.9
 30
0.0
 10
174.6451
 20
-6.9
 30
0.0
 10
175.5
 20
-6.0452
 30
0.0
 10
175.5
 20
-5.0001
 30
0.0
 10
175.5
 20
-5.0001
 30
0.0
 10
175.5
 20
-5.0001
 30
0.0
 10
175.5
 20
-4.9999
 30
0.0
 10
175.5
 20
-4.9999
 30
0.0
 10
175.5
 20
-4.9999
 30
0.0
 10
175.5
 20
-3.9548
 30
0.0
 10
174.6451
 20
-3.1
 30
0.0
 10
173.6001
 20
-3.1
 30
0.0
  0
ENDSEC
  0
SECTION
  2
OBJECTS
  0
DICTIONARY
  5
C
330
0
100
AcDbDictionary
281
     1
  3
ACAD_GROUP
350
D
  3
ACAD_LAYOUT
350
1A
  3
ACAD_MATERIAL
350
3B
  3
ACAD_MLEADERSTYLE
350
C5
  3
ACAD_MLINESTYLE
350
17
  3
ACAD_PLOTSETTINGS
350
19
  3
ACAD_PLOTSTYLENAME
350
E
  3
ACAD_TABLESTYLE
350
C4
  3
ACAD_VISUALSTYLE
350
2A
  0
DICTIONARY
  5
D
102
{ACAD_REACTORS
330
C
102
}
330
C
100
AcDbDictionary
281
     1
  0
DICTIONARY
  5
1A
102
{ACAD_REACTORS
330
C
102
}
330
C
100
AcDbDictionary
281
     1
  3
Layout1
350
1E
  3
Layout2
350
26
  3
Model
350
22
  0
DICTIONARY
  5
3B
102
{ACAD_REACTORS
330
C
102
}
330
C
100
AcDbDictionary
281
     1
  3
ByBlock
350
3D
  3
ByLayer
350
3C
  3
Global
350
3E
  0
DICTIONARY
  5
C5
102
{ACAD_REACTORS
330
C
102
}
330
C
100
AcDbDictionary
281
     1
  0
DICTIONARY
  5
17
102
{ACAD_REACTORS
330
C
102
}
330
C
100
AcDbDictionary
281
     1
  3
Standard
350
18
  0
DICTIONARY
  5
19
102
{ACAD_REACTORS
330
C
102
}
330
C
100
AcDbDictionary
281
     1
  0
ACDBDICTIONARYWDFLT
  5
E
102
{ACAD_REACTORS
330
C
102
}
330
C
100
AcDbDictionary
281
     1
  3
Normal
350
F
100
AcDbDictionaryWithDefault
340
F
  0
DICTIONARY
  5
C4
102
{ACAD_REACTORS
330
C
102
}
330
C
100
AcDbDictionary
281
     1
  0
DICTIONARY
  5
2A
102
{ACAD_REACTORS
330
C
102
}
330
C
100
AcDbDictionary
281
     1
  3
2dWireframe
350
2F
  3
3D Hidden
350
31
  3
3dWireframe
350
30
  3
Basic
350
32
  3
Brighten
350
36
  3
ColorChange
350
3A
  3
Conceptual
350
34
  3
Dim
350
35
  3
Facepattern
350
39
  3
Flat
350
2B
  3
FlatWithEdges
350
2C
  3
Gouraud
350
2D
  3
GouraudWithEdges
350
2E
  3
Linepattern
350
38
  3
Realistic
350
33
  3
Thicken
350
37
  0
LAYOUT
  5
1E
102
{ACAD_REACTORS
330
1A
102
}
330
1A
100
AcDbPlotSettings
  1

  2
none_device
  4

  6

 40
0.0
 41
0.0
 42
0.0
 43
0.0
 44
0.0
 45
0.0
 46
0.0
 47
0.0
 48
0.0
 49
0.0
140
0.0
141
0.0
142
1.0
143
1.0
 70
   688
 72
     0
 73
     0
 74
     5
  7

 75
    16
 76
     0
 77
     2
 78
   300
147
1.0
148
0.0
149
0.0
100
AcDbLayout
  1
Layout1
 70
     1
 71
     1
 10
0.0
 20
0.0
 11
12.0
 21
9.0
 12
0.0
 22
0.0
 32
0.0
 14
1.000000000000000E+20
 24
1.000000000000000E+20
 34
1.000000000000000E+20
 15
-1.000000000000000E+20
 25
-1.000000000000000E+20
 35
-1.000000000000000E+20
146
0.0
 13
0.0
 23
0.0
 33
0.0
 16
1.0
 26
0.0
 36
0.0
 17
0.0
 27
1.0
 37
0.0
 76
     0
330
1B
  0
LAYOUT
  5
26
102
{ACAD_REACTORS
330
1A
102
}
330
1A
100
AcDbPlotSettings
  1

  2
none_device
  4

  6

 40
0.0
 41
0.0
 42
0.0
 43
0.0
 44
0.0
 45
0.0
 46
0.0
 47
0.0
 48
0.0
 49
0.0
140
0.0
141
0.0
142
1.0
143
1.0
 70
   688
 72
     0
 73
     0
 74
     5
  7

 75
    16
 76
     0
 77
     2
 78
   300
147
1.0
148
0.0
149
0.0
100
AcDbLayout
  1
Layout2
 70
     1
 71
     2
 10
0.0
 20
0.0
 11
0.0
 21
0.0
 12
0.0
 22
0.0
 32
0.0
 14
0.0
 24
0.0
 34
0.0
 15
0.0
 25
0.0
 35
0.0
146
0.0
 13
0.0
 23
0.0
 33
0.0
 16
1.0
 26
0.0
 36
0.0
 17
0.0
 27
1.0
 37
0.0
 76
     0
330
23
  0
LAYOUT
  5
22
102
{ACAD_REACTORS
330
1A
102
}
330
1A
100
AcDbPlotSettings
  1

  2
none_device
  4

  6

 40
0.0
 41
0.0
 42
0.0
 43
0.0
 44
0.0
 45
0.0
 46
0.0
 47
0.0
 48
0.0
 49
0.0
140
0.0
141
0.0
142
1.0
143
1.0
 70
  1712
 72
     0
 73
     0
 74
     0
  7

 75
     0
 76
     0
 77
     2
 78
   300
147
1.0
148
0.0
149
0.0
100
AcDbLayout
  1
Model
 70
     1
 71
     0
 10
0.0
 20
0.0
 11
12.0
 21
9.0
 12
0.0
 22
0.0
 32
0.0
 14
-198.505
 24
-126.4366
 34
0.0
 15
195.005
 25
148.505
 35
0.0
146
0.0
 13
0.0
 23
0.0
 33
0.0
 16
1.0
 26
0.0
 36
0.0
 17
0.0
 27
1.0
 37
0.0
 76
     0
330
1F
331
29
  0
MATERIAL
  5
3D
102
{ACAD_REACTORS
330
3B
102
}
330
3B
100
AcDbMaterial
  1
ByBlock
 72
     1
 94
      127
  0
MATERIAL
  5
3C
102
{ACAD_REACTORS
330
3B
102
}
330
3B
100
AcDbMaterial
  1
ByLayer
 72
     1
 94
      127
  0
MATERIAL
  5
3E
102
{ACAD_REACTORS
330
3B
102
}
330
3B
100
AcDbMaterial
  1
Global
 72
     1
 94
      127
  0
MLINESTYLE
  5
18
102
{ACAD_REACTORS
330
17
102
}
330
17
100
AcDbMlineStyle
  2
Standard
 70
     0
  3

 62
   256
 51
90.0
 52
90.0
 71
     2
 49
0.5
 62
   256
  6
BYLAYER
 49
-0.5
 62
   256
  6
BYLAYER
  0
ACDBPLACEHOLDER
  5
F
102
{ACAD_REACTORS
330
E
102
}
330
E
  0
VISUALSTYLE
  5
2F
102
{ACAD_REACTORS
330
2A
102
}
102
{ACAD_XDICTIONARY
360
AC
102
}
330
2A
100
AcDbVisualStyle
  2
2dWireframe
 70
     4
 71
     0
 72
     2
 73
     0
 90
        0
 40
-0.6
 41
-30.0
 62
     5
 63
     7
421
 16777215
 74
     1
 91
        4
 64
     7
 65
   257
 75
     1
175
     1
 42
1.0
 92
        0
 66
   257
 43
1.0
 76
     1
 77
     6
 78
     2
 67
     7
 79
     5
170
     0
171
     0
290
     0
174
     0
 93
        1
 44
0.0
173
     0
291
     0
 45
0.0
  0
VISUALSTYLE
  5
31
102
{ACAD_REACTORS
330
2A
102
}
102
{ACAD_XDICTIONARY
360
B0
102
}
330
2A
100
AcDbVisualStyle
  2
3D Hidden
 70
     6
 71
     1
 72
     2
 73
     2
 90
        0
 40
-0.6
 41
-30.0
 62
     5
 63
     7
421
 16777215
 74
     2
 91
        2
 64
     7
 65
   257
 75
     2
175
     1
 42
40.0
 92
        0
 66
   257
 43
1.0
 76
     1
 77
     6
 78
     2
 67
     7
 79
     3
170
     0
171
     0
290
     0
174
     0
 93
        1
 44
0.0
173
     0
291
     0
 45
0.0
  0
VISUALSTYLE
  5
30
102
{ACAD_REACTORS
330
2A
102
}
102
{ACAD_XDICTIONARY
360
AE
102
}
330
2A
100
AcDbVisualStyle
  2
3dWireframe
 70
     5
 71
     0
 72
     2
 73
     0
 90
        0
 40
-0.6
 41
-30.0
 62
     5
 63
     7
421
 16777215
 74
     1
 91
        4
 64
     7
 65
   257
 75
     1
175
     1
 42
1.0
 92
        0
 66
   257
 43
1.0
 76
     1
 77
     6
 78
     2
 67
     7
 79
     5
170
     0
171
     0
290
     0
174
     0
 93
        1
 44
0.0
173
     0
291
     0
 45
0.0
  0
VISUALSTYLE
  5
32
102
{ACAD_REACTORS
330
2A
102
}
102
{ACAD_XDICTIONARY
360
B2
102
}
330
2A
100
AcDbVisualStyle
  2
Basic
 70
     7
 71
     1
 72
     0
 73
     1
 90
        0
 40
-0.6
 41
-30.0
 62
     5
 63
     7
421
 16777215
 74
     0
 91
        4
 64
     7
 65
   257
 75
     1
175
     1
 42
1.0
 92
        8
 66
     7
 43
1.0
 76
     1
 77
     6
 78
     2
 67
     7
 79
     5
170
     0
171
     0
290
     0
174
     0
 93
        1
 44
0.0
173
     0
291
     1
 45
0.0
  0
VISUALSTYLE
  5
36
102
{ACAD_REACTORS
330
2A
102
}
102
{ACAD_XDICTIONARY
360
BA
102
}
330
2A
100
AcDbVisualStyle
  2
Brighten
 70
    12
 71
     2
 72
     2
 73
     0
 90
        0
 40
-0.6
 41
-30.0
 62
     5
 63
     7
421
 16777215
 74
     1
 91
        4
 64
     7
 65
   257
 75
     1
175
     1
 42
1.0
 92
        8
 66
     7
 43
1.0
 76
     1
 77
     6
 78
     2
 67
     7
 79
     5
170
     0
171
     0
290
     0
174
     0
 93
        1
 44
50.0
173
     0
291
     1
 45
0.0
  0
VISUALSTYLE
  5
3A
102
{ACAD_REACTORS
330
2A
102
}
102
{ACAD_XDICTIONARY
360
C2
102
}
330
2A
100
AcDbVisualStyle
  2
ColorChange
 70
    16
 71
     2
 72
     2
 73
     3
 90
        0
 40
-0.6
 41
-30.0
 62
     5
 63
     8
421
  8421504
 74
     1
 91
        4
 64
     7
 65
   257
 75
     1
175
     1
 42
1.0
 92
        8
 66
     8
424
  8421504
 43
1.0
 76
     1
 77
     6
 78
     2
 67
     7
 79
     5
170
     0
171
     0
290
     0
174
     0
 93
        1
 44
0.0
173
     0
291
     1
 45
0.0
  0
VISUALSTYLE
  5
34
102
{ACAD_REACTORS
330
2A
102
}
102
{ACAD_XDICTIONARY
360
B6
102
}
330
2A
100
AcDbVisualStyle
  2
Conceptual
 70
     9
 71
     3
 72
     2
 73
     0
 90
        0
 40
-0.6
 41
-30.0
 62
     5
 63
     7
421
 16777215
 74
     2
 91
        2
 64
     7
 65
   257
 75
     1
175
     1
 42
40.0
 92
        8
 66
     7
 43
1.0
 76
     1
 77
     6
 78
     2
 67
     7
 79
     3
170
     0
171
     0
290
     0
174
     0
 93
        1
 44
0.0
173
     0
291
     0
 45
0.0
  0
VISUALSTYLE
  5
35
102
{ACAD_REACTORS
330
2A
102
}
102
{ACAD_XDICTIONARY
360
B8
102
}
330
2A
100
AcDbVisualStyle
  2
Dim
 70
    11
 71
     2
 72
     2
 73
     0
 90
        0
 40
-0.6
 41
-30.0
 62
     5
 63
     7
421
 16777215
 74
     1
 91
        4
 64
     7
 65
   257
 75
     1
175
     1
 42
1.0
 92
        8
 66
     7
 43
1.0
 76
     1
 77
     6
 78
     2
 67
     7
 79
     5
170
     0
171
     0
290
     0
174
     0
 93
        1
 44
-50.0
173
     0
291
     1
 45
0.0
  0
VISUALSTYLE
  5
39
102
{ACAD_REACTORS
330
2A
102
}
102
{ACAD_XDICTIONARY
360
C0
102
}
330
2A
100
AcDbVisualStyle
  2
Facepattern
 70
    15
 71
     2
 72
     2
 73
     0
 90
        0
 40
-0.6
 41
-30.0
 62
     5
 63
     7
421
 16777215
 74
     1
 91
        4
 64
     7
 65
   257
 75
     1
175
     1
 42
1.0
 92
        8
 66
     7
 43
1.0
 76
     1
 77
     6
 78
     2
 67
     7
 79
     5
170
     0
171
     0
290
     0
174
     0
 93
        1
 44
0.0
173
     0
291
     1
 45
0.0
  0
VISUALSTYLE
  5
2B
102
{ACAD_REACTORS
330
2A
102
}
102
{ACAD_XDICTIONARY
360
A4
102
}
330
2A
100
AcDbVisualStyle
  2
Flat
 70
     0
 71
     2
 72
     1
 73
     1
 90
        2
 40
-0.6
 41
30.0
 62
     5
 63
     7
421
 16777215
 74
     0
 91
        4
 64
     7
 65
   257
 75
     1
175
     1
 42
1.0
 92
        8
 66
     7
 43
1.0
 76
     1
 77
     6
 78
     2
 67
     7
 79
     5
170
     0
171
     0
290
     0
174
     0
 93
       13
 44
0.0
173
     0
291
     1
 45
0.0
  0
VISUALSTYLE
  5
2C
102
{ACAD_REACTORS
330
2A
102
}
102
{ACAD_XDICTIONARY
360
A6
102
}
330
2A
100
AcDbVisualStyle
  2
FlatWithEdges
 70
     1
 71
     2
 72
     1
 73
     1
 90
        2
 40
-0.6
 41
30.0
 62
     5
 63
     7
421
 16777215
 74
     1
 91
        4
 64
     7
 65
   257
 75
     1
175
     1
 42
1.0
 92
        0
 66
   257
 43
1.0
 76
     1
 77
     6
 78
     2
 67
     7
 79
     5
170
     0
171
     0
290
     0
174
     0
 93
       13
 44
0.0
173
     0
291
     1
 45
0.0
  0
VISUALSTYLE
  5
2D
102
{ACAD_REACTORS
330
2A
102
}
102
{ACAD_XDICTIONARY
360
A8
102
}
330
2A
100
AcDbVisualStyle
  2
Gouraud
 70
     2
 71
     2
 72
     2
 73
     1
 90
        2
 40
-0.6
 41
30.0
 62
     5
 63
     7
421
 16777215
 74
     0
 91
        4
 64
     7
 65
   257
 75
     1
175
     1
 42
1.0
 92
        0
 66
     7
 43
1.0
 76
     1
 77
     6
 78
     2
 67
     7
 79
     5
170
     0
171
     0
290
     0
174
     0
 93
       13
 44
0.0
173
     0
291
     1
 45
0.0
  0
VISUALSTYLE
  5
2E
102
{ACAD_REACTORS
330
2A
102
}
102
{ACAD_XDICTIONARY
360
AA
102
}
330
2A
100
AcDbVisualStyle
  2
GouraudWithEdges
 70
     3
 71
     2
 72
     2
 73
     1
 90
        2
 40
-0.6
 41
30.0
 62
     5
 63
     7
421
 16777215
 74
     1
 91
        4
 64
     7
 65
   257
 75
     1
175
     1
 42
1.0
 92
        0
 66
   257
 43
1.0
 76
     1
 77
     6
 78
     2
 67
     7
 79
     5
170
     0
171
     0
290
     0
174
     0
 93
       13
 44
0.0
173
     0
291
     1
 45
0.0
  0
VISUALSTYLE
  5
38
102
{ACAD_REACTORS
330
2A
102
}
102
{ACAD_XDICTIONARY
360
BE
102
}
330
2A
100
AcDbVisualStyle
  2
Linepattern
 70
    14
 71
     2
 72
     2
 73
     0
 90
        0
 40
-0.6
 41
-30.0
 62
     5
 63
     7
421
 16777215
 74
     1
 91
        4
 64
     7
 65
   257
 75
     7
175
     7
 42
1.0
 92
        8
 66
     7
 43
1.0
 76
     1
 77
     6
 78
     2
 67
     7
 79
     5
170
     0
171
     0
290
     0
174
     0
 93
        1
 44
0.0
173
     0
291
     1
 45
0.0
  0
VISUALSTYLE
  5
33
102
{ACAD_REACTORS
330
2A
102
}
102
{ACAD_XDICTIONARY
360
B4
102
}
330
2A
100
AcDbVisualStyle
  2
Realistic
 70
     8
 71
     2
 72
     2
 73
     0
 90
        0
 40
-0.6
 41
-30.0
 62
     5
 63
     7
421
 16777215
 74
     1
 91
        0
 64
     7
 65
   257
 75
     1
175
     1
 42
1.0
 92
        8
 66
     8
424
  7895160
 43
1.0
 76
     1
 77
     6
 78
     2
 67
     7
 79
     5
170
     0
171
     0
290
     0
174
     0
 93
       13
 44
0.0
173
     0
291
     0
 45
0.0
  0
VISUALSTYLE
  5
37
102
{ACAD_REACTORS
330
2A
102
}
102
{ACAD_XDICTIONARY
360
BC
102
}
330
2A
100
AcDbVisualStyle
  2
Thicken
 70
    13
 71
     2
 72
     2
 73
     0
 90
        0
 40
-0.6
 41
-30.0
 62
     5
 63
     7
421
 16777215
 74
     1
 91
        4
 64
     7
 65
   257
 75
     1
175
     1
 42
1.0
 92
       12
 66
     7
 43
1.0
 76
     1
 77
     6
 78
     2
 67
     7
 79
     5
170
     0
171
     0
290
     0
174
     0
 93
        1
 44
0.0
173
     0
291
     1
 45
0.0
  0
DICTIONARY
  5
AC
330
2F
100
AcDbDictionary
280
     1
281
     1
  3
ACAD_XREC_ROUNDTRIP
360
AD
  0
DICTIONARY
  5
B0
330
31
100
AcDbDictionary
280
     1
281
     1
  3
ACAD_XREC_ROUNDTRIP
360
B1
  0
DICTIONARY
  5
AE
330
30
100
AcDbDictionary
280
     1
281
     1
  3
ACAD_XREC_ROUNDTRIP
360
AF
  0
DICTIONARY
  5
B2
330
32
100
AcDbDictionary
280
     1
281
     1
  3
ACAD_XREC_ROUNDTRIP
360
B3
  0
DICTIONARY
  5
BA
330
36
100
AcDbDictionary
280
     1
281
     1
  3
ACAD_XREC_ROUNDTRIP
360
BB
  0
DICTIONARY
  5
C2
330
3A
100
AcDbDictionary
280
     1
281
     1
  3
ACAD_XREC_ROUNDTRIP
360
C3
  0
DICTIONARY
  5
B6
330
34
100
AcDbDictionary
280
     1
281
     1
  3
ACAD_XREC_ROUNDTRIP
360
B7
  0
DICTIONARY
  5
B8
330
35
100
AcDbDictionary
280
     1
281
     1
  3
ACAD_XREC_ROUNDTRIP
360
B9
  0
DICTIONARY
  5
C0
330
39
100
AcDbDictionary
280
     1
281
     1
  3
ACAD_XREC_ROUNDTRIP
360
C1
  0
DICTIONARY
  5
A4
330
2B
100
AcDbDictionary
280
     1
281
     1
  3
ACAD_XREC_ROUNDTRIP
360
A5
  0
DICTIONARY
  5
A6
330
2C
100
AcDbDictionary
280
     1
281
     1
  3
ACAD_XREC_ROUNDTRIP
360
A7
  0
DICTIONARY
  5
A8
330
2D
100
AcDbDictionary
280
     1
281
     1
  3
ACAD_XREC_ROUNDTRIP
360
A9
  0
DICTIONARY
  5
AA
330
2E
100
AcDbDictionary
280
     1
281
     1
  3
ACAD_XREC_ROUNDTRIP
360
AB
  0
DICTIONARY
  5
BE
330
38
100
AcDbDictionary
280
     1
281
     1
  3
ACAD_XREC_ROUNDTRIP
360
BF
  0
DICTIONARY
  5
B4
330
33
100
AcDbDictionary
280
     1
281
     1
  3
ACAD_XREC_ROUNDTRIP
360
B5
  0
DICTIONARY
  5
BC
330
37
100
AcDbDictionary
280
     1
281
     1
  3
ACAD_XREC_ROUNDTRIP
360
BD
  0
XRECORD
  5
AD
102
{ACAD_REACTORS
330
AC
102
}
330
AC
100
AcDbXrecord
280
     1
102
RTVSPropertyOp0
 70
     1
102
RTVSPropertyOp1
 70
     1
102
RTVSPropertyOp2
 70
     1
102
RTVSPropertyOp3
 70
     1
102
RTVSPropertyOp4
 70
     1
102
RTVSPropertyOp5
 70
     1
102
RTVSPropertyOp6
 70
     1
102
RTVSPropertyOp7
 70
     1
102
RTVSPropertyOp8
 70
     1
102
RTVSPropertyOp9
 70
     1
102
RTVSPropertyOp10
 70
     1
102
RTVSPropertyOp11
 70
     1
102
RTVSPropertyOp12
 70
     1
102
RTVSPropertyOp13
 70
     1
102
RTVSPropertyOp14
 70
     1
102
RTVSPropertyOp15
 70
     1
102
RTVSPropertyOp16
 70
     1
102
RTVSPropertyOp17
 70
     1
102
RTVSPropertyOp18
 70
     1
102
RTVSPropertyOp19
 70
     1
102
RTVSPropertyOp20
 70
     1
102
RTVSPropertyOp21
 70
     1
102
RTVSPropertyOp22
 70
     1
102
RTVSPropertyOp23
 70
     1
102
RTVSPropertyOp24
 70
     1
102
RTVSPropertyOp25
 70
     1
102
RTVSPropertyOp26
 70
     1
102
RTVSPropertyOp27
 70
     1
102
RTVSPropertyOp28
 70
     1
102
RTVSPropertyOp29
 70
     1
102
RTVSPropertyOp30
 70
     1
102
RTVSPropertyOp31
 70
     1
102
RTVSPropertyOp32
 70
     1
  0
XRECORD
  5
B1
102
{ACAD_REACTORS
330
B0
102
}
330
B0
100
AcDbXrecord
280
     1
102
RTVSPropertyOp0
 70
     1
102
RTVSPropertyOp1
 70
     1
102
RTVSPropertyOp2
 70
     1
102
RTVSPropertyOp3
 70
     1
102
RTVSPropertyOp4
 70
     1
102
RTVSPropertyOp5
 70
     1
102
RTVSPropertyOp6
 70
     1
102
RTVSPropertyOp7
 70
     1
102
RTVSPropertyOp8
 70
     1
102
RTVSPropertyOp9
 70
     1
102
RTVSPropertyOp10
 70
     1
102
RTVSPropertyOp11
 70
     1
102
RTVSPropertyOp12
 70
     1
102
RTVSPropertyOp13
 70
     1
102
RTVSPropertyOp14
 70
     1
102
RTVSPropertyOp15
 70
     1
102
RTVSPropertyOp16
 70
     1
102
RTVSPropertyOp17
 70
     1
102
RTVSPropertyOp18
 70
     1
102
RTVSPropertyOp19
 70
     1
102
RTVSPropertyOp20
 70
     1
102
RTVSPropertyOp21
 70
     1
102
RTVSPropertyOp22
 70
     1
102
RTVSPropertyOp23
 70
     1
102
RTVSPropertyOp24
 70
     1
102
RTVSPropertyOp25
 70
     1
102
RTVSPropertyOp26
 70
     1
102
RTVSPropertyOp27
 70
     1
102
RTVSPropertyOp28
 70
     1
102
RTVSPropertyOp29
 70
     1
102
RTVSPropertyOp30
 70
     1
102
RTVSPropertyOp31
 70
     1
102
RTVSPropertyOp32
 70
     1
  0
XRECORD
  5
AF
102
{ACAD_REACTORS
330
AE
102
}
330
AE
100
AcDbXrecord
280
     1
102
RTVSPropertyOp0
 70
     1
102
RTVSPropertyOp1
 70
     1
102
RTVSPropertyOp2
 70
     1
102
RTVSPropertyOp3
 70
     1
102
RTVSPropertyOp4
 70
     1
102
RTVSPropertyOp5
 70
     1
102
RTVSPropertyOp6
 70
     1
102
RTVSPropertyOp7
 70
     1
102
RTVSPropertyOp8
 70
     1
102
RTVSPropertyOp9
 70
     1
102
RTVSPropertyOp10
 70
     1
102
RTVSPropertyOp11
 70
     1
102
RTVSPropertyOp12
 70
     1
102
RTVSPropertyOp13
 70
     1
102
RTVSPropertyOp14
 70
     1
102
RTVSPropertyOp15
 70
     1
102
RTVSPropertyOp16
 70
     1
102
RTVSPropertyOp17
 70
     1
102
RTVSPropertyOp18
 70
     1
102
RTVSPropertyOp19
 70
     1
102
RTVSPropertyOp20
 70
     1
102
RTVSPropertyOp21
 70
     1
102
RTVSPropertyOp22
 70
     1
102
RTVSPropertyOp23
 70
     1
102
RTVSPropertyOp24
 70
     1
102
RTVSPropertyOp25
 70
     1
102
RTVSPropertyOp26
 70
     1
102
RTVSPropertyOp27
 70
     1
102
RTVSPropertyOp28
 70
     1
102
RTVSPropertyOp29
 70
     1
102
RTVSPropertyOp30
 70
     1
102
RTVSPropertyOp31
 70
     1
102
RTVSPropertyOp32
 70
     1
  0
XRECORD
  5
B3
102
{ACAD_REACTORS
330
B2
102
}
330
B2
100
AcDbXrecord
280
     1
102
RTVSPropertyOp0
 70
     1
102
RTVSPropertyOp1
 70
     1
102
RTVSPropertyOp2
 70
     1
102
RTVSPropertyOp3
 70
     1
102
RTVSPropertyOp4
 70
     1
102
RTVSPropertyOp5
 70
     1
102
RTVSPropertyOp6
 70
     1
102
RTVSPropertyOp7
 70
     1
102
RTVSPropertyOp8
 70
     1
102
RTVSPropertyOp9
 70
     1
102
RTVSPropertyOp10
 70
     1
102
RTVSPropertyOp11
 70
     1
102
RTVSPropertyOp12
 70
     1
102
RTVSPropertyOp13
 70
     1
102
RTVSPropertyOp14
 70
     1
102
RTVSPropertyOp15
 70
     1
102
RTVSPropertyOp16
 70
     1
102
RTVSPropertyOp17
 70
     1
102
RTVSPropertyOp18
 70
     1
102
RTVSPropertyOp19
 70
     1
102
RTVSPropertyOp20
 70
     1
102
RTVSPropertyOp21
 70
     1
102
RTVSPropertyOp22
 70
     1
102
RTVSPropertyOp23
 70
     1
102
RTVSPropertyOp24
 70
     1
102
RTVSPropertyOp25
 70
     1
102
RTVSPropertyOp26
 70
     1
102
RTVSPropertyOp27
 70
     1
102
RTVSPropertyOp28
 70
     1
102
RTVSPropertyOp29
 70
     1
102
RTVSPropertyOp30
 70
     1
102
RTVSPropertyOp31
 70
     1
102
RTVSPropertyOp32
 70
     1
  0
XRECORD
  5
BB
102
{ACAD_REACTORS
330
BA
102
}
330
BA
100
AcDbXrecord
280
     1
102
RTVSPropertyOp0
 70
     1
102
RTVSPropertyOp1
 70
     1
102
RTVSPropertyOp2
 70
     1
102
RTVSPropertyOp3
 70
     1
102
RTVSPropertyOp4
 70
     1
102
RTVSPropertyOp5
 70
     1
102
RTVSPropertyOp6
 70
     1
102
RTVSPropertyOp7
 70
     1
102
RTVSPropertyOp8
 70
     1
102
RTVSPropertyOp9
 70
     1
102
RTVSPropertyOp10
 70
     1
102
RTVSPropertyOp11
 70
     1
102
RTVSPropertyOp12
 70
     1
102
RTVSPropertyOp13
 70
     1
102
RTVSPropertyOp14
 70
     1
102
RTVSPropertyOp15
 70
     1
102
RTVSPropertyOp16
 70
     1
102
RTVSPropertyOp17
 70
     1
102
RTVSPropertyOp18
 70
     1
102
RTVSPropertyOp19
 70
     1
102
RTVSPropertyOp20
 70
     1
102
RTVSPropertyOp21
 70
     1
102
RTVSPropertyOp22
 70
     1
102
RTVSPropertyOp23
 70
     1
102
RTVSPropertyOp24
 70
     1
102
RTVSPropertyOp25
 70
     1
102
RTVSPropertyOp26
 70
     1
102
RTVSPropertyOp27
 70
     1
102
RTVSPropertyOp28
 70
     1
102
RTVSPropertyOp29
 70
     1
102
RTVSPropertyOp30
 70
     1
102
RTVSPropertyOp31
 70
     1
102
RTVSPropertyOp32
 70
     1
  0
XRECORD
  5
C3
102
{ACAD_REACTORS
330
C2
102
}
330
C2
100
AcDbXrecord
280
     1
102
RTVSPropertyOp0
 70
     1
102
RTVSPropertyOp1
 70
     1
102
RTVSPropertyOp2
 70
     1
102
RTVSPropertyOp3
 70
     1
102
RTVSPropertyOp4
 70
     1
102
RTVSPropertyOp5
 70
     1
102
RTVSPropertyOp6
 70
     1
102
RTVSPropertyOp7
 70
     1
102
RTVSPropertyOp8
 70
     1
102
RTVSPropertyOp9
 70
     1
102
RTVSPropertyOp10
 70
     1
102
RTVSPropertyOp11
 70
     1
102
RTVSPropertyOp12
 70
     1
102
RTVSPropertyOp13
 70
     1
102
RTVSPropertyOp14
 70
     1
102
RTVSPropertyOp15
 70
     1
102
RTVSPropertyOp16
 70
     1
102
RTVSPropertyOp17
 70
     1
102
RTVSPropertyOp18
 70
     1
102
RTVSPropertyOp19
 70
     1
102
RTVSPropertyOp20
 70
     1
102
RTVSPropertyOp21
 70
     1
102
RTVSPropertyOp22
 70
     1
102
RTVSPropertyOp23
 70
     1
102
RTVSPropertyOp24
 70
     1
102
RTVSPropertyOp25
 70
     1
102
RTVSPropertyOp26
 70
     1
102
RTVSPropertyOp27
 70
     1
102
RTVSPropertyOp28
 70
     1
102
RTVSPropertyOp29
 70
     1
102
RTVSPropertyOp30
 70
     1
102
RTVSPropertyOp31
 70
     1
102
RTVSPropertyOp32
 70
     1
  0
XRECORD
  5
B7
102
{ACAD_REACTORS
330
B6
102
}
330
B6
100
AcDbXrecord
280
     1
102
RTVSPropertyOp0
 70
     1
102
RTVSPropertyOp1
 70
     1
102
RTVSPropertyOp2
 70
     1
102
RTVSPropertyOp3
 70
     1
102
RTVSPropertyOp4
 70
     1
102
RTVSPropertyOp5
 70
     1
102
RTVSPropertyOp6
 70
     1
102
RTVSPropertyOp7
 70
     1
102
RTVSPropertyOp8
 70
     1
102
RTVSPropertyOp9
 70
     1
102
RTVSPropertyOp10
 70
     1
102
RTVSPropertyOp11
 70
     1
102
RTVSPropertyOp12
 70
     1
102
RTVSPropertyOp13
 70
     1
102
RTVSPropertyOp14
 70
     1
102
RTVSPropertyOp15
 70
     1
102
RTVSPropertyOp16
 70
     1
102
RTVSPropertyOp17
 70
     1
102
RTVSPropertyOp18
 70
     1
102
RTVSPropertyOp19
 70
     1
102
RTVSPropertyOp20
 70
     1
102
RTVSPropertyOp21
 70
     1
102
RTVSPropertyOp22
 70
     1
102
RTVSPropertyOp23
 70
     1
102
RTVSPropertyOp24
 70
     1
102
RTVSPropertyOp25
 70
     1
102
RTVSPropertyOp26
 70
     1
102
RTVSPropertyOp27
 70
     1
102
RTVSPropertyOp28
 70
     1
102
RTVSPropertyOp29
 70
     1
102
RTVSPropertyOp30
 70
     1
102
RTVSPropertyOp31
 70
     1
102
RTVSPropertyOp32
 70
     1
  0
XRECORD
  5
B9
102
{ACAD_REACTORS
330
B8
102
}
330
B8
100
AcDbXrecord
280
     1
102
RTVSPropertyOp0
 70
     1
102
RTVSPropertyOp1
 70
     1
102
RTVSPropertyOp2
 70
     1
102
RTVSPropertyOp3
 70
     1
102
RTVSPropertyOp4
 70
     1
102
RTVSPropertyOp5
 70
     1
102
RTVSPropertyOp6
 70
     1
102
RTVSPropertyOp7
 70
     1
102
RTVSPropertyOp8
 70
     1
102
RTVSPropertyOp9
 70
     1
102
RTVSPropertyOp10
 70
     1
102
RTVSPropertyOp11
 70
     1
102
RTVSPropertyOp12
 70
     1
102
RTVSPropertyOp13
 70
     1
102
RTVSPropertyOp14
 70
     1
102
RTVSPropertyOp15
 70
     1
102
RTVSPropertyOp16
 70
     1
102
RTVSPropertyOp17
 70
     1
102
RTVSPropertyOp18
 70
     1
102
RTVSPropertyOp19
 70
     1
102
RTVSPropertyOp20
 70
     1
102
RTVSPropertyOp21
 70
     1
102
RTVSPropertyOp22
 70
     1
102
RTVSPropertyOp23
 70
     1
102
RTVSPropertyOp24
 70
     1
102
RTVSPropertyOp25
 70
     1
102
RTVSPropertyOp26
 70
     1
102
RTVSPropertyOp27
 70
     1
102
RTVSPropertyOp28
 70
     1
102
RTVSPropertyOp29
 70
     1
102
RTVSPropertyOp30
 70
     1
102
RTVSPropertyOp31
 70
     1
102
RTVSPropertyOp32
 70
     1
  0
XRECORD
  5
C1
102
{ACAD_REACTORS
330
C0
102
}
330
C0
100
AcDbXrecord
280
     1
102
RTVSPropertyOp0
 70
     1
102
RTVSPropertyOp1
 70
     1
102
RTVSPropertyOp2
 70
     1
102
RTVSPropertyOp3
 70
     1
102
RTVSPropertyOp4
 70
     1
102
RTVSPropertyOp5
 70
     1
102
RTVSPropertyOp6
 70
     1
102
RTVSPropertyOp7
 70
     1
102
RTVSPropertyOp8
 70
     1
102
RTVSPropertyOp9
 70
     1
102
RTVSPropertyOp10
 70
     1
102
RTVSPropertyOp11
 70
     1
102
RTVSPropertyOp12
 70
     1
102
RTVSPropertyOp13
 70
     1
102
RTVSPropertyOp14
 70
     1
102
RTVSPropertyOp15
 70
     1
102
RTVSPropertyOp16
 70
     1
102
RTVSPropertyOp17
 70
     1
102
RTVSPropertyOp18
 70
     1
102
RTVSPropertyOp19
 70
     1
102
RTVSPropertyOp20
 70
     1
102
RTVSPropertyOp21
 70
     1
102
RTVSPropertyOp22
 70
     1
102
RTVSPropertyOp23
 70
     1
102
RTVSPropertyOp24
 70
     1
102
RTVSPropertyOp25
 70
     1
102
RTVSPropertyOp26
 70
     1
102
RTVSPropertyOp27
 70
     1
102
RTVSPropertyOp28
 70
     1
102
RTVSPropertyOp29
 70
     1
102
RTVSPropertyOp30
 70
     1
102
RTVSPropertyOp31
 70
     1
102
RTVSPropertyOp32
 70
     1
  0
XRECORD
  5
A5
102
{ACAD_REACTORS
330
A4
102
}
330
A4
100
AcDbXrecord
280
     1
102
RTVSPropertyOp0
 70
     1
102
RTVSPropertyOp1
 70
     1
102
RTVSPropertyOp2
 70
     1
102
RTVSPropertyOp3
 70
     1
102
RTVSPropertyOp4
 70
     1
102
RTVSPropertyOp5
 70
     1
102
RTVSPropertyOp6
 70
     1
102
RTVSPropertyOp7
 70
     1
102
RTVSPropertyOp8
 70
     1
102
RTVSPropertyOp9
 70
     1
102
RTVSPropertyOp10
 70
     1
102
RTVSPropertyOp11
 70
     1
102
RTVSPropertyOp12
 70
     1
102
RTVSPropertyOp13
 70
     1
102
RTVSPropertyOp14
 70
     1
102
RTVSPropertyOp15
 70
     1
102
RTVSPropertyOp16
 70
     1
102
RTVSPropertyOp17
 70
     1
102
RTVSPropertyOp18
 70
     1
102
RTVSPropertyOp19
 70
     1
102
RTVSPropertyOp20
 70
     1
102
RTVSPropertyOp21
 70
     1
102
RTVSPropertyOp22
 70
     1
102
RTVSPropertyOp23
 70
     1
102
RTVSPropertyOp24
 70
     1
102
RTVSPropertyOp25
 70
     1
102
RTVSPropertyOp26
 70
     1
102
RTVSPropertyOp27
 70
     1
102
RTVSPropertyOp28
 70
     1
102
RTVSPropertyOp29
 70
     1
102
RTVSPropertyOp30
 70
     1
102
RTVSPropertyOp31
 70
     1
102
RTVSPropertyOp32
 70
     1
  0
XRECORD
  5
A7
102
{ACAD_REACTORS
330
A6
102
}
330
A6
100
AcDbXrecord
280
     1
102
RTVSPropertyOp0
 70
     1
102
RTVSPropertyOp1
 70
     1
102
RTVSPropertyOp2
 70
     1
102
RTVSPropertyOp3
 70
     1
102
RTVSPropertyOp4
 70
     1
102
RTVSPropertyOp5
 70
     1
102
RTVSPropertyOp6
 70
     1
102
RTVSPropertyOp7
 70
     1
102
RTVSPropertyOp8
 70
     1
102
RTVSPropertyOp9
 70
     1
102
RTVSPropertyOp10
 70
     1
102
RTVSPropertyOp11
 70
     1
102
RTVSPropertyOp12
 70
     1
102
RTVSPropertyOp13
 70
     1
102
RTVSPropertyOp14
 70
     1
102
RTVSPropertyOp15
 70
     1
102
RTVSPropertyOp16
 70
     1
102
RTVSPropertyOp17
 70
     1
102
RTVSPropertyOp18
 70
     1
102
RTVSPropertyOp19
 70
     1
102
RTVSPropertyOp20
 70
     1
102
RTVSPropertyOp21
 70
     1
102
RTVSPropertyOp22
 70
     1
102
RTVSPropertyOp23
 70
     1
102
RTVSPropertyOp24
 70
     1
102
RTVSPropertyOp25
 70
     1
102
RTVSPropertyOp26
 70
     1
102
RTVSPropertyOp27
 70
     1
102
RTVSPropertyOp28
 70
     1
102
RTVSPropertyOp29
 70
     1
102
RTVSPropertyOp30
 70
     1
102
RTVSPropertyOp31
 70
     1
102
RTVSPropertyOp32
 70
     1
  0
XRECORD
  5
A9
102
{ACAD_REACTORS
330
A8
102
}
330
A8
100
AcDbXrecord
280
     1
102
RTVSPropertyOp0
 70
     1
102
RTVSPropertyOp1
 70
     1
102
RTVSPropertyOp2
 70
     1
102
RTVSPropertyOp3
 70
     1
102
RTVSPropertyOp4
 70
     1
102
RTVSPropertyOp5
 70
     1
102
RTVSPropertyOp6
 70
     1
102
RTVSPropertyOp7
 70
     1
102
RTVSPropertyOp8
 70
     1
102
RTVSPropertyOp9
 70
     1
102
RTVSPropertyOp10
 70
     1
102
RTVSPropertyOp11
 70
     1
102
RTVSPropertyOp12
 70
     1
102
RTVSPropertyOp13
 70
     1
102
RTVSPropertyOp14
 70
     1
102
RTVSPropertyOp15
 70
     1
102
RTVSPropertyOp16
 70
     1
102
RTVSPropertyOp17
 70
     1
102
RTVSPropertyOp18
 70
     1
102
RTVSPropertyOp19
 70
     1
102
RTVSPropertyOp20
 70
     1
102
RTVSPropertyOp21
 70
     1
102
RTVSPropertyOp22
 70
     1
102
RTVSPropertyOp23
 70
     1
102
RTVSPropertyOp24
 70
     1
102
RTVSPropertyOp25
 70
     1
102
RTVSPropertyOp26
 70
     1
102
RTVSPropertyOp27
 70
     1
102
RTVSPropertyOp28
 70
     1
102
RTVSPropertyOp29
 70
     1
102
RTVSPropertyOp30
 70
     1
102
RTVSPropertyOp31
 70
     1
102
RTVSPropertyOp32
 70
     1
  0
XRECORD
  5
AB
102
{ACAD_REACTORS
330
AA
102
}
330
AA
100
AcDbXrecord
280
     1
102
RTVSPropertyOp0
 70
     1
102
RTVSPropertyOp1
 70
     1
102
RTVSPropertyOp2
 70
     1
102
RTVSPropertyOp3
 70
     1
102
RTVSPropertyOp4
 70
     1
102
RTVSPropertyOp5
 70
     1
102
RTVSPropertyOp6
 70
     1
102
RTVSPropertyOp7
 70
     1
102
RTVSPropertyOp8
 70
     1
102
RTVSPropertyOp9
 70
     1
102
RTVSPropertyOp10
 70
     1
102
RTVSPropertyOp11
 70
     1
102
RTVSPropertyOp12
 70
     1
102
RTVSPropertyOp13
 70
     1
102
RTVSPropertyOp14
 70
     1
102
RTVSPropertyOp15
 70
     1
102
RTVSPropertyOp16
 70
     1
102
RTVSPropertyOp17
 70
     1
102
RTVSPropertyOp18
 70
     1
102
RTVSPropertyOp19
 70
     1
102
RTVSPropertyOp20
 70
     1
102
RTVSPropertyOp21
 70
     1
102
RTVSPropertyOp22
 70
     1
102
RTVSPropertyOp23
 70
     1
102
RTVSPropertyOp24
 70
     1
102
RTVSPropertyOp25
 70
     1
102
RTVSPropertyOp26
 70
     1
102
RTVSPropertyOp27
 70
     1
102
RTVSPropertyOp28
 70
     1
102
RTVSPropertyOp29
 70
     1
102
RTVSPropertyOp30
 70
     1
102
RTVSPropertyOp31
 70
     1
102
RTVSPropertyOp32
 70
     1
  0
XRECORD
  5
BF
102
{ACAD_REACTORS
330
BE
102
}
330
BE
100
AcDbXrecord
280
     1
102
RTVSPropertyOp0
 70
     1
102
RTVSPropertyOp1
 70
     1
102
RTVSPropertyOp2
 70
     1
102
RTVSPropertyOp3
 70
     1
102
RTVSPropertyOp4
 70
     1
102
RTVSPropertyOp5
 70
     1
102
RTVSPropertyOp6
 70
     1
102
RTVSPropertyOp7
 70
     1
102
RTVSPropertyOp8
 70
     1
102
RTVSPropertyOp9
 70
     1
102
RTVSPropertyOp10
 70
     1
102
RTVSPropertyOp11
 70
     1
102
RTVSPropertyOp12
 70
     1
102
RTVSPropertyOp13
 70
     1
102
RTVSPropertyOp14
 70
     1
102
RTVSPropertyOp15
 70
     1
102
RTVSPropertyOp16
 70
     1
102
RTVSPropertyOp17
 70
     1
102
RTVSPropertyOp18
 70
     1
102
RTVSPropertyOp19
 70
     1
102
RTVSPropertyOp20
 70
     1
102
RTVSPropertyOp21
 70
     1
102
RTVSPropertyOp22
 70
     1
102
RTVSPropertyOp23
 70
     1
102
RTVSPropertyOp24
 70
     1
102
RTVSPropertyOp25
 70
     1
102
RTVSPropertyOp26
 70
     1
102
RTVSPropertyOp27
 70
     1
102
RTVSPropertyOp28
 70
     1
102
RTVSPropertyOp29
 70
     1
102
RTVSPropertyOp30
 70
     1
102
RTVSPropertyOp31
 70
     1
102
RTVSPropertyOp32
 70
     1
  0
XRECORD
  5
B5
102
{ACAD_REACTORS
330
B4
102
}
330
B4
100
AcDbXrecord
280
     1
102
RTVSPropertyOp0
 70
     1
102
RTVSPropertyOp1
 70
     1
102
RTVSPropertyOp2
 70
     1
102
RTVSPropertyOp3
 70
     1
102
RTVSPropertyOp4
 70
     1
102
RTVSPropertyOp5
 70
     1
102
RTVSPropertyOp6
 70
     1
102
RTVSPropertyOp7
 70
     1
102
RTVSPropertyOp8
 70
     1
102
RTVSPropertyOp9
 70
     1
102
RTVSPropertyOp10
 70
     1
102
RTVSPropertyOp11
 70
     1
102
RTVSPropertyOp12
 70
     1
102
RTVSPropertyOp13
 70
     1
102
RTVSPropertyOp14
 70
     1
102
RTVSPropertyOp15
 70
     1
102
RTVSPropertyOp16
 70
     1
102
RTVSPropertyOp17
 70
     1
102
RTVSPropertyOp18
 70
     1
102
RTVSPropertyOp19
 70
     1
102
RTVSPropertyOp20
 70
     1
102
RTVSPropertyOp21
 70
     1
102
RTVSPropertyOp22
 70
     1
102
RTVSPropertyOp23
 70
     1
102
RTVSPropertyOp24
 70
     1
102
RTVSPropertyOp25
 70
     1
102
RTVSPropertyOp26
 70
     1
102
RTVSPropertyOp27
 70
     1
102
RTVSPropertyOp28
 70
     1
102
RTVSPropertyOp29
 70
     1
102
RTVSPropertyOp30
 70
     1
102
RTVSPropertyOp31
 70
     1
102
RTVSPropertyOp32
 70
     1
  0
XRECORD
  5
BD
102
{ACAD_REACTORS
330
BC
102
}
330
BC
100
AcDbXrecord
280
     1
102
RTVSPropertyOp0
 70
     1
102
RTVSPropertyOp1
 70
     1
102
RTVSPropertyOp2
 70
     1
102
RTVSPropertyOp3
 70
     1
102
RTVSPropertyOp4
 70
     1
102
RTVSPropertyOp5
 70
     1
102
RTVSPropertyOp6
 70
     1
102
RTVSPropertyOp7
 70
     1
102
RTVSPropertyOp8
 70
     1
102
RTVSPropertyOp9
 70
     1
102
RTVSPropertyOp10
 70
     1
102
RTVSPropertyOp11
 70
     1
102
RTVSPropertyOp12
 70
     1
102
RTVSPropertyOp13
 70
     1
102
RTVSPropertyOp14
 70
     1
102
RTVSPropertyOp15
 70
     1
102
RTVSPropertyOp16
 70
     1
102
RTVSPropertyOp17
 70
     1
102
RTVSPropertyOp18
 70
     1
102
RTVSPropertyOp19
 70
     1
102
RTVSPropertyOp20
 70
     1
102
RTVSPropertyOp21
 70
     1
102
RTVSPropertyOp22
 70
     1
102
RTVSPropertyOp23
 70
     1
102
RTVSPropertyOp24
 70
     1
102
RTVSPropertyOp25
 70
     1
102
RTVSPropertyOp26
 70
     1
102
RTVSPropertyOp27
 70
     1
102
RTVSPropertyOp28
 70
     1
102
RTVSPropertyOp29
 70
     1
102
RTVSPropertyOp30
 70
     1
102
RTVSPropertyOp31
 70
     1
102
RTVSPropertyOp32
 70
     1
  0
ENDSEC
  0
EOF
